<?xml version="1.0" encoding="UTF-8" standalone="no"?>
<!-- Created with Inkscape (http://www.inkscape.org/) -->

<svg
   xmlns:dc="http://purl.org/dc/elements/1.1/"
   xmlns:cc="http://creativecommons.org/ns#"
   xmlns:rdf="http://www.w3.org/1999/02/22-rdf-syntax-ns#"
   xmlns:svg="http://www.w3.org/2000/svg"
   xmlns="http://www.w3.org/2000/svg"
   xmlns:sodipodi="http://sodipodi.sourceforge.net/DTD/sodipodi-0.dtd"
   xmlns:inkscape="http://www.inkscape.org/namespaces/inkscape"
   width="210mm"
   height="297mm"
   id="svg2"
   version="1.1"
   inkscape:version="0.48.2 r9819"
   sodipodi:docname="FC-border-very-thick.svg">
  <defs
     id="defs4" />
  <sodipodi:namedview
     id="base"
     pagecolor="#ffffff"
     bordercolor="#666666"
     borderopacity="1.0"
     inkscape:pageopacity="0.0"
     inkscape:pageshadow="2"
     inkscape:zoom="0.98994949"
     inkscape:cx="146.25994"
     inkscape:cy="697.0672"
     inkscape:document-units="px"
     inkscape:current-layer="layer1"
     showgrid="false"
     inkscape:window-width="1920"
     inkscape:window-height="1017"
     inkscape:window-x="-8"
     inkscape:window-y="-8"
     inkscape:window-maximized="1" />
  <metadata
     id="metadata7">
    <rdf:RDF>
      <cc:Work
         rdf:about="">
        <dc:format>image/svg+xml</dc:format>
        <dc:type
           rdf:resource="http://purl.org/dc/dcmitype/StillImage" />
        <dc:title />
      </cc:Work>
    </rdf:RDF>
  </metadata>
  <g
     inkscape:label="Ebene 1"
     inkscape:groupmode="layer"
     id="layer1">
    <path
       style="fill:none;stroke:#000000;stroke-width:15;stroke-miterlimit:4;stroke-opacity:1;stroke-dasharray:none"
       d="m 398.78125,109.75 c -4.6432,0.0403 -18.36402,0.82548 -27.21875,8.40625 -8.9922,1.92472 -15.18626,8.38496 -18,13.53125 -4.81748,2.35524 -12.75582,6.744 -16.03125,15.28125 -5.80713,2.75208 -10.50179,8.60416 -12.4375,12.03125 6.10335,-17.7215 21.07846,-33.72345 27.5,-38.90625 1.98637,-1.82338 1.08147,-4.44447 -3.1875,-3.90625 -9.88406,1.51335 -15.44328,4.01503 -19.34375,6.15625 -3.6691,2.25354 -9.89642,5.40032 -14.125,15.09375 -6.21531,4.35898 -10.1341,9.16753 -10.71875,15.71875 -3.69496,1.6937 -8.91926,6.37523 -8.21875,14.03125 -4.10208,4.02733 -6.97069,8.72637 -6.5625,14.90625 -1.82374,1.7837 -2.88746,3.3455 -4.1875,5.90625 -3.77043,-6.09237 -9.77559,-11.68619 -19.75,-13.34375 -1.7589,-0.0393 -3.65163,-0.0387 -4.9375,1.25 -0.56338,1.22103 1.06586,2.28149 1.78125,4.15625 2.06221,4.67646 1.24618,7.06627 2.25,12.46875 1.69724,9.15874 5.73666,12.81136 11.75,17.4375 0.8015,0.82701 0.31828,1.54905 -0.28125,2.53125 -4.0376,9.42626 -1.24097,14.99075 0.59375,21.09375 1.13386,8.01389 -3.3913,27.21111 -4.5,31.46875 -1.13421,4.4061 -7.02423,18.16104 -3.6875,31.09375 1.18489,3.98693 4.61596,9.19503 8.71875,11.15625 4.99429,2.16674 8.38841,2.45015 11.5625,7.53125 4.01244,6.19405 2.32812,26.3976 1.84375,29.875 0,0.9574 1.48571,2.06226 3.21875,0.1875 12.61133,-12.89303 10.64558,-29.60296 11.28125,-28.46875 4.17862,6.33118 1.85619,20.52302 4.59375,22.90625 2.82827,1.96122 11.01746,-13.58438 12.8125,-27.34375 2.47394,-18.91701 4.76928,-26.63373 7.0625,-26.40625 1.59235,0.12969 1.47554,5.09767 1.65625,8.15625 0.38267,7.0317 1.61479,6.28848 5.03125,6.1875 2.45941,0.19133 2.57164,2.9004 2.6875,4.59375 0.25229,3.35161 2.72394,4.34253 4.75,5.71875 1.70823,1.59236 0.90886,4.61038 2.09375,7.15625 0.76535,1.64338 1.7503,3.0769 3.8125,3.96875 0.79087,0.0255 1.48221,0.62307 0.5,1.03125 -2.1926,0.45851 -5.3147,2.92415 -12.09375,8.9375 -15.08492,13.37669 -18.3163,16.95563 -41.25,30.625 -36.73358,5.53609 -62.45118,18.9187 -63.75,34.375 -57.18139,26.51001 -96.90625,84.42485 -96.90625,151.625 0,92.25531 74.83505,167 167,167 92.28047,0 167.0625,-74.74469 167.0625,-167 0,-41.80319 -15.33513,-80.01544 -40.71875,-109.3125 -1.75059,-2.02049 -3.56204,-4.00361 -5.40625,-5.9375 -0.92211,-0.96695 -1.86765,-1.93036 -2.8125,-2.875 -1.791,-1.7906 -3.59829,-3.54181 -5.46875,-5.25 1.86605,1.70134 3.68177,3.4671 5.46875,5.25 0.949,0.94684 1.88644,1.90581 2.8125,2.875 1.85581,1.94224 3.64524,3.9082 5.40625,5.9375 4.05858,4.67692 7.88258,9.57993 11.40625,14.6875 0,0 2.52682,3.93037 5.34375,6.8125 2.9041,3.06957 5.40625,5 5.40625,5 0.94252,1.35071 1.7663,-0.68944 2.875,-0.28125 6.11433,2.30386 6.25413,11.87165 8.125,11.78125 1.64339,-0.10098 2.21554,-1.73204 3.65625,-2.28125 4.34445,-0.36815 7.49024,8.09185 10.625,7.875 2.33256,-1.48075 1.3665,-3.66764 2.5,-4 2.08772,-0.63567 3.02537,2.21528 5.34375,3.375 4.36996,0.45815 4.08365,3.88103 5.78125,5.96875 3.21023,4.86815 7.52806,0.83783 14.28125,3.78125 6.58417,3.03024 6.41043,10.99614 7.65625,17.125 0.80504,3.38776 3.6642,3.291 4.53125,6.09375 1.87087,5.3628 1.3127,12.92979 3.65625,13.9375 0.81637,0.41882 1.88321,-0.49854 3.03125,0 1.04385,0.57048 1.16476,9.58402 4.375,12.09375 1.09807,0.59957 1.97711,-0.62129 3.1875,0.0937 1.8489,0.96768 2.80326,3.26318 3.125,5.53125 0.59563,2.96823 4.35237,2.07952 5.84375,4.15625 2.78822,2.96823 5.87222,10.90385 8.46875,13.03125 1.33973,0.38268 0.75408,-1.10143 2.4375,-0.71875 1.65756,0.38268 27.87705,33.95683 25.75,63.4375 -1.13421,16.26944 -7.63759,24.9279 -12.53125,31.03125 -3.00826,3.7598 -3.327,8.14882 -3.3125,11.21875 0.22748,2.57527 1.24222,3.16382 3.34375,4.5 2.26772,1.17355 7.19274,2.38517 13.90625,-0.40625 9.13748,-3.80657 6.03775,-11.69365 10.90625,-16.40625 3.18543,-3.09933 6.58692,-7.20373 7.03125,-13.90625 0.49819,-6.82937 -2.12975,-17.14884 -4.4375,-25.53125 -1.40103,-5.22602 -4.68239,-25.43263 -1.5625,-35.28125 0.38303,-1.13422 1.28082,-1.46472 2.375,-0.125 8.17972,7.56602 14.77493,19.49441 17.375,23.875 2.81693,4.76398 11.0943,18.76813 9.09375,32.4375 -2.6511,16.11461 -10.27533,19.14973 -13.21875,35 -1.513,8.76544 5.29002,13.68092 15.6875,10.0625 7.52989,-2.72693 12.80788,-12.83295 14.09375,-25.625 0.53397,-1.88539 1.83485,-1.02007 3.59375,-3.03125 1.6937,-1.9109 1.79576,-4.30124 0.96875,-7.5625 -9.8628,-39.68681 -4.42356,-41.69976 -6.3125,-63 -0.36815,-3.31158 -2.06503,-6.28258 -3.53125,-7.6875 -2.48492,-3.7304 -10.62489,-9.52357 -12.34375,-16.65625 -5.98819,-24.97322 8.13013,-77.40565 0.96875,-101.5625 -1.08389,-4.01244 0.76465,-1.40558 4.34375,-0.78125 28.0435,4.03795 39.84124,-27.1438 43.6875,-35.65625 0.76606,-2.02606 1.05153,-3.70879 -0.375,-4.34375 -1.00772,-0.59953 -2.6757,0.91404 -2.625,-1.1875 0.14067,-2.48456 1.11579,-4.6343 2.25,-6.75 0.36851,-0.81638 0.51878,-2.46831 -0.78125,-2.75 -0.6215,-0.1265 -1.39864,0.10555 -1.96875,0.78125 -0.33272,0.41877 -0.90625,0.55609 -0.90625,-0.0937 0.13783,-2.61142 2.28467,-6.60416 3.1875,-10.03125 0.40819,-1.55303 -1.40043,-2.30454 -2.625,-1.4375 -3.06957,1.9754 -5.61992,10.98132 -8.625,10.5625 -1.14803,-0.14103 -0.5411,-2.32924 -1.625,-3.15625 -0.55949,-0.44752 -1.20922,-0.24509 -1.71875,0.53125 -9.19807,14.84327 -20.5695,31.18471 -34.34375,31.53125 -6.34182,-0.58854 -8.41171,-3.64593 -11.6875,-8.78125 C 581.39733,386.51786 550.21867,363.42903 513.21875,337.09375 504.67052,329.89269 487.8784,294.9828 473.1875,284.625 457.7447,273.47953 439.2748,274.06196 423.5,259.03125 c -11.19933,-10.95732 -16.84622,-30.32323 -42.875,-45.625 -1.4765,-0.90319 4.34761,-13.04558 -1.78125,-26.28125 -0.35752,-0.75153 -0.91605,-1.29654 -1.65625,-1.625 -13.16055,-2.14193 -25.76752,12.05166 -25.5,9.71875 7.69217,-52.05579 57.893,-77.87125 56.71875,-82.28125 -0.675,-3.04441 -4.86713,-3.02168 -8.21875,-3.1875 -0.25189,-0.006 -0.74294,-0.006 -1.40625,0 z"
       inkscape:connector-curvature="0"
       sodipodi:nodetypes="scccccccccccccccccccccccccccccccccccccccsssssscsssccccccccccccccccccccccccccccccccccccccccccccccccccccccccccccccccccs" />
  </g>
</svg>
