<?xml version="1.0" encoding="UTF-8" standalone="no"?>
<!-- Created with Inkscape (http://www.inkscape.org/) -->

<svg
   xmlns:dc="http://purl.org/dc/elements/1.1/"
   xmlns:cc="http://creativecommons.org/ns#"
   xmlns:rdf="http://www.w3.org/1999/02/22-rdf-syntax-ns#"
   xmlns:svg="http://www.w3.org/2000/svg"
   xmlns="http://www.w3.org/2000/svg"
   xmlns:sodipodi="http://sodipodi.sourceforge.net/DTD/sodipodi-0.dtd"
   xmlns:inkscape="http://www.inkscape.org/namespaces/inkscape"
   width="210mm"
   height="297mm"
   id="svg2"
   version="1.1"
   inkscape:version="0.48.2 r9819"
   sodipodi:docname="FC-border.svg">
  <defs
     id="defs4" />
  <sodipodi:namedview
     id="base"
     pagecolor="#ffffff"
     bordercolor="#666666"
     borderopacity="1.0"
     inkscape:pageopacity="0.0"
     inkscape:pageshadow="2"
     inkscape:zoom="0.98994949"
     inkscape:cx="339.70415"
     inkscape:cy="697.0672"
     inkscape:document-units="px"
     inkscape:current-layer="layer1"
     showgrid="false"
     inkscape:window-width="1920"
     inkscape:window-height="1017"
     inkscape:window-x="-8"
     inkscape:window-y="-8"
     inkscape:window-maximized="1" />
  <metadata
     id="metadata7">
    <rdf:RDF>
      <cc:Work
         rdf:about="">
        <dc:format>image/svg+xml</dc:format>
        <dc:type
           rdf:resource="http://purl.org/dc/dcmitype/StillImage" />
        <dc:title></dc:title>
      </cc:Work>
    </rdf:RDF>
  </metadata>
  <g
     inkscape:label="Ebene 1"
     inkscape:groupmode="layer"
     id="layer1">
    <path
       style="fill:none;fill-opacity:1;fill-rule:evenodd;stroke:#000000;stroke-opacity:1;stroke-width:10;stroke-miterlimit:4;stroke-dasharray:none"
       d="M 398.78125 109.75 C 394.13805 109.79029 380.41723 110.57548 371.5625 118.15625 C 362.5703 120.08097 356.37624 126.54121 353.5625 131.6875 C 348.74502 134.04274 340.80668 138.4315 337.53125 146.96875 C 331.72412 149.72083 327.02946 155.57291 325.09375 159 C 331.1971 141.2785 346.17221 125.27655 352.59375 120.09375 C 354.58012 118.27037 353.67522 115.64928 349.40625 116.1875 C 339.52219 117.70085 333.96297 120.20253 330.0625 122.34375 C 326.3934 124.59729 320.16608 127.74407 315.9375 137.4375 C 309.72219 141.79648 305.8034 146.60503 305.21875 153.15625 C 301.52379 154.84995 296.29949 159.53148 297 167.1875 C 292.89792 171.21483 290.02931 175.91387 290.4375 182.09375 C 288.61376 183.87745 287.55004 185.43925 286.25 188 C 282.47957 181.90763 276.47441 176.31381 266.5 174.65625 C 264.7411 174.61692 262.84837 174.61755 261.5625 175.90625 C 260.99912 177.12728 262.62836 178.18774 263.34375 180.0625 C 265.40596 184.73896 264.58993 187.12877 265.59375 192.53125 C 267.29099 201.68999 271.33041 205.34261 277.34375 209.96875 C 278.14525 210.79576 277.66203 211.5178 277.0625 212.5 C 273.0249 221.92626 275.82153 227.49075 277.65625 233.59375 C 278.79011 241.60764 274.26495 260.80486 273.15625 265.0625 C 272.02204 269.4686 266.13202 283.22354 269.46875 296.15625 C 270.65364 300.14318 274.08471 305.35128 278.1875 307.3125 C 283.18179 309.47924 286.57591 309.76265 289.75 314.84375 C 293.76244 321.0378 292.07812 341.24135 291.59375 344.71875 C 291.59375 345.67615 293.07946 346.78101 294.8125 344.90625 C 307.42383 332.01322 305.45808 315.30329 306.09375 316.4375 C 310.27237 322.76868 307.94994 336.96052 310.6875 339.34375 C 313.51577 341.30497 321.70496 325.75937 323.5 312 C 325.97394 293.08299 328.26928 285.36627 330.5625 285.59375 C 332.15485 285.72344 332.03804 290.69142 332.21875 293.75 C 332.60142 300.7817 333.83354 300.03848 337.25 299.9375 C 339.70941 300.12883 339.82164 302.8379 339.9375 304.53125 C 340.18979 307.88286 342.66144 308.87378 344.6875 310.25 C 346.39573 311.84236 345.59636 314.86038 346.78125 317.40625 C 347.5466 319.04963 348.53155 320.48315 350.59375 321.375 C 351.38462 321.40051 352.07596 321.99807 351.09375 322.40625 C 348.90115 322.86476 345.77905 325.3304 339 331.34375 C 323.91508 344.72044 320.6837 348.29938 297.75 361.96875 C 261.01642 367.50484 235.29882 380.88745 234 396.34375 C 176.81861 422.85376 137.09375 480.7686 137.09375 547.96875 C 137.09375 640.22406 211.9288 714.96875 304.09375 714.96875 C 396.37422 714.96875 471.15625 640.22406 471.15625 547.96875 C 471.15625 506.16556 455.82112 467.95331 430.4375 438.65625 C 428.68691 436.63576 426.87546 434.65264 425.03125 432.71875 C 424.10914 431.7518 423.1636 430.78839 422.21875 429.84375 C 420.42775 428.05315 418.62046 426.30194 416.75 424.59375 C 418.61605 426.29509 420.43177 428.06085 422.21875 429.84375 C 423.16775 430.79059 424.10519 431.74956 425.03125 432.71875 C 426.88706 434.66099 428.67649 436.62695 430.4375 438.65625 C 434.49608 443.33317 438.32008 448.23618 441.84375 453.34375 C 441.84375 453.34375 444.37057 457.27412 447.1875 460.15625 C 450.0916 463.22582 452.59375 465.15625 452.59375 465.15625 C 453.53627 466.50696 454.36005 464.46681 455.46875 464.875 C 461.58308 467.17886 461.72288 476.74665 463.59375 476.65625 C 465.23714 476.55527 465.80929 474.92421 467.25 474.375 C 471.59445 474.00685 474.74024 482.46685 477.875 482.25 C 480.20756 480.76925 479.2415 478.58236 480.375 478.25 C 482.46272 477.61433 483.40037 480.46528 485.71875 481.625 C 490.08871 482.08315 489.8024 485.50603 491.5 487.59375 C 494.71023 492.4619 499.02806 488.43158 505.78125 491.375 C 512.36542 494.40524 512.19168 502.37114 513.4375 508.5 C 514.24254 511.88776 517.1017 511.791 517.96875 514.59375 C 519.83962 519.95655 519.28145 527.52354 521.625 528.53125 C 522.44137 528.95007 523.50821 528.03271 524.65625 528.53125 C 525.7001 529.10173 525.82101 538.11527 529.03125 540.625 C 530.12932 541.22457 531.00836 540.00371 532.21875 540.71875 C 534.06765 541.68643 535.02201 543.98193 535.34375 546.25 C 535.93938 549.21823 539.69612 548.32952 541.1875 550.40625 C 543.97572 553.37448 547.05972 561.3101 549.65625 563.4375 C 550.99598 563.82018 550.41033 562.33607 552.09375 562.71875 C 553.75131 563.10143 579.9708 596.67558 577.84375 626.15625 C 576.70954 642.42569 570.20616 651.08415 565.3125 657.1875 C 562.30424 660.9473 561.9855 665.33632 562 668.40625 C 562.22748 670.98152 563.24222 671.57007 565.34375 672.90625 C 567.61147 674.0798 572.53649 675.29142 579.25 672.5 C 588.38748 668.69343 585.28775 660.80635 590.15625 656.09375 C 593.34168 652.99442 596.74317 648.89002 597.1875 642.1875 C 597.68569 635.35813 595.05775 625.03866 592.75 616.65625 C 591.34897 611.43023 588.06761 591.22362 591.1875 581.375 C 591.57053 580.24078 592.46832 579.91028 593.5625 581.25 C 601.74222 588.81602 608.33743 600.74441 610.9375 605.125 C 613.75443 609.88898 622.0318 623.89313 620.03125 637.5625 C 617.38015 653.67711 609.75592 656.71223 606.8125 672.5625 C 605.2995 681.32794 612.10252 686.24342 622.5 682.625 C 630.02989 679.89807 635.30788 669.79205 636.59375 657 C 637.12772 655.11461 638.4286 655.97993 640.1875 653.96875 C 641.8812 652.05785 641.98326 649.66751 641.15625 646.40625 C 631.29345 606.71944 636.73269 604.70649 634.84375 583.40625 C 634.4756 580.09467 632.77872 577.12367 631.3125 575.71875 C 628.82758 571.98835 620.68761 566.19518 618.96875 559.0625 C 612.98056 534.08928 627.09888 481.65685 619.9375 457.5 C 618.85361 453.48756 620.70215 456.09442 624.28125 456.71875 C 652.32475 460.7567 664.12249 429.57495 667.96875 421.0625 C 668.73481 419.03644 669.02028 417.35371 667.59375 416.71875 C 666.58603 416.11922 664.91805 417.63279 664.96875 415.53125 C 665.10942 413.04669 666.08454 410.89695 667.21875 408.78125 C 667.58726 407.96487 667.73753 406.31294 666.4375 406.03125 C 665.816 405.90475 665.03886 406.1368 664.46875 406.8125 C 664.13603 407.23127 663.5625 407.36859 663.5625 406.71875 C 663.70033 404.10733 665.84717 400.11459 666.75 396.6875 C 667.15819 395.13447 665.34957 394.38296 664.125 395.25 C 661.05543 397.2254 658.50508 406.23132 655.5 405.8125 C 654.35197 405.67147 654.9589 403.48326 653.875 402.65625 C 653.31551 402.20873 652.66578 402.41116 652.15625 403.1875 C 642.95818 418.03077 631.58675 434.37221 617.8125 434.71875 C 611.47068 434.13021 609.40079 431.07282 606.125 425.9375 C 581.39733 386.51786 550.21867 363.42903 513.21875 337.09375 C 504.67052 329.89269 487.8784 294.9828 473.1875 284.625 C 457.7447 273.47953 439.2748 274.06196 423.5 259.03125 C 412.30067 248.07393 406.65378 228.70802 380.625 213.40625 C 379.1485 212.50306 384.97261 200.36067 378.84375 187.125 C 378.48623 186.37347 377.9277 185.82846 377.1875 185.5 C 364.02695 183.35807 351.41998 197.55166 351.6875 195.21875 C 359.37967 143.16296 409.5805 117.3475 408.40625 112.9375 C 407.73125 109.89309 403.53912 109.91582 400.1875 109.75 C 399.93561 109.74367 399.44456 109.74424 398.78125 109.75 z M 377.4375 397.84375 C 378.35117 398.29033 379.25203 398.75611 380.15625 399.21875 C 379.25359 398.75652 378.34958 398.28994 377.4375 397.84375 z M 398.28125 410 C 399.11639 410.57034 399.9571 411.1338 400.78125 411.71875 C 399.95751 411.13342 399.11597 410.57068 398.28125 410 z "
       id="_46749016" />
  </g>
</svg>
