<?xml version="1.0" encoding="UTF-8" standalone="no"?>
<svg
   xmlns:dc="http://purl.org/dc/elements/1.1/"
   xmlns:cc="http://creativecommons.org/ns#"
   xmlns:rdf="http://www.w3.org/1999/02/22-rdf-syntax-ns#"
   xmlns:svg="http://www.w3.org/2000/svg"
   xmlns="http://www.w3.org/2000/svg"
   xmlns:sodipodi="http://sodipodi.sourceforge.net/DTD/sodipodi-0.dtd"
   xmlns:inkscape="http://www.inkscape.org/namespaces/inkscape"
   sodipodi:docname="Streuer.svg"
   inkscape:version="1.0 (4035a4fb49, 2020-05-01)"
   id="svg8"
   version="1.1"
   viewBox="0 0 210 297"
   height="297mm"
   width="210mm">
  <defs
     id="defs2" />
  <sodipodi:namedview
     inkscape:window-maximized="1"
     inkscape:window-y="-8"
     inkscape:window-x="-8"
     inkscape:window-height="1017"
     inkscape:window-width="1920"
     showgrid="false"
     inkscape:document-rotation="0"
     inkscape:current-layer="layer1"
     inkscape:document-units="mm"
     inkscape:cy="640.2445"
     inkscape:cx="405.5025"
     inkscape:zoom="7.9195959"
     inkscape:pageshadow="2"
     inkscape:pageopacity="0.0"
     borderopacity="1.0"
     bordercolor="#666666"
     pagecolor="#ffffff"
     id="base" />
  <metadata
     id="metadata5">
    <rdf:RDF>
      <cc:Work
         rdf:about="">
        <dc:format>image/svg+xml</dc:format>
        <dc:type
           rdf:resource="http://purl.org/dc/dcmitype/StillImage" />
        <dc:title></dc:title>
      </cc:Work>
    </rdf:RDF>
  </metadata>
  <g
     id="layer1"
     inkscape:groupmode="layer"
     inkscape:label="Ebene 1">
    <path
       sodipodi:nodetypes="sssssssssssssssssssssssssss"
       id="path847"
       d="m 96.856398,155.06473 c 1.795684,-0.12169 3.606152,0.11182 5.386162,0.37798 2.07808,0.31073 4.159,0.723 6.14211,1.41741 1.58231,0.55407 3.20927,1.24461 4.70275,2.00632 1.53174,0.78122 3.03673,1.53648 4.36868,2.62388 0.9872,0.80594 1.82221,1.82417 2.45685,2.92932 0.64996,1.13183 1.03316,2.41266 1.32291,3.68527 0.20387,0.8954 0.34223,1.82389 0.28349,2.74033 -0.0704,1.09792 -0.40336,2.17065 -0.75596,3.21279 -0.32083,0.94822 -0.67001,1.90953 -1.22842,2.74033 -0.5344,0.79507 -1.23501,1.48207 -1.98438,2.07887 -1.06062,0.84468 -2.22126,1.61763 -3.49628,2.07887 -1.31965,0.47738 -2.75459,0.63802 -4.15773,0.66146 -1.52346,0.0255 -2.96116,-0.14673 -4.4689,-0.36652 -1.70632,-0.24873 -3.49828,-0.62614 -5.1695,-1.05089 -1.776375,-0.45147 -3.517849,-1.06108 -5.19717,-1.79539 -0.916719,-0.40085 -1.805083,-0.87501 -2.645834,-1.41741 -1.000547,-0.64548 -1.968703,-1.3563 -2.83482,-2.17336 -0.666023,-0.6283 -1.31257,-1.3009 -1.795388,-2.07887 -0.684825,-1.10346 -1.176228,-2.33621 -1.511903,-3.59078 -0.262549,-0.98126 -0.377976,-2.00803 -0.377976,-3.02381 0,-1.01578 0.06631,-2.05702 0.377976,-3.02381 0.363278,-1.1269 1.014311,-2.15369 1.700892,-3.1183 0.54306,-0.76297 1.192578,-1.45372 1.889882,-2.07887 0.637986,-0.57197 1.314899,-1.12393 2.078868,-1.5119 0.825978,-0.41946 1.549704,-0.71413 2.445381,-0.95068 0.746587,-0.19716 1.697894,-0.32003 2.46831,-0.37224 z"
       style="fill:#000000;stroke:#000000;stroke-width:0.264583px;stroke-linecap:butt;stroke-linejoin:miter;stroke-opacity:1;fill-opacity:1" />
  </g>
</svg>
