<?xml version="1.0" encoding="UTF-8" standalone="no"?>
<svg
   xmlns:dc="http://purl.org/dc/elements/1.1/"
   xmlns:cc="http://creativecommons.org/ns#"
   xmlns:rdf="http://www.w3.org/1999/02/22-rdf-syntax-ns#"
   xmlns:svg="http://www.w3.org/2000/svg"
   xmlns="http://www.w3.org/2000/svg"
   xmlns:sodipodi="http://sodipodi.sourceforge.net/DTD/sodipodi-0.dtd"
   xmlns:inkscape="http://www.inkscape.org/namespaces/inkscape"
   sodipodi:docname="EinhellAdapter.svg"
   inkscape:version="1.0 (4035a4fb49, 2020-05-01)"
   width="210mm"
   height="297mm"
   viewBox="0 0 210 297"
   version="1.1"
   id="svg8">
  <defs
     id="defs2" />
  <sodipodi:namedview
     inkscape:window-maximized="1"
     inkscape:window-y="-8"
     inkscape:window-x="-8"
     inkscape:window-height="1017"
     inkscape:window-width="1920"
     showgrid="false"
     inkscape:document-rotation="0"
     inkscape:current-layer="layer2"
     inkscape:document-units="mm"
     inkscape:cy="578.82645"
     inkscape:cx="360.53377"
     inkscape:zoom="1.979899"
     inkscape:pageshadow="2"
     inkscape:pageopacity="0.0"
     borderopacity="1.0"
     bordercolor="#666666"
     pagecolor="#ffffff"
     id="base" />
  <metadata
     id="metadata5">
    <rdf:RDF>
      <cc:Work
         rdf:about="">
        <dc:format>image/svg+xml</dc:format>
        <dc:type
           rdf:resource="http://purl.org/dc/dcmitype/StillImage" />
        <dc:title></dc:title>
      </cc:Work>
    </rdf:RDF>
  </metadata>
  <g
     inkscape:label="Ebene 2"
     id="layer2"
     inkscape:groupmode="layer">
    <path
       transform="scale(0.26458333)"
       d="M 412.48633 371.37109 L 373.75586 373.75586 C 359.82492 376.59952 349.23372 378.58149 339.86523 381.30078 C 327.65495 384.84496 319.79566 387.82785 309.64648 392.82227 L 292.27344 408.21875 L 282.58984 424.01172 L 277.79102 446.99219 L 278.54883 469.7207 L 278.29688 495.73242 L 279.00391 514.62109 L 280.45312 584.25195 L 280.82227 636.39648 L 282.84375 721.98047 L 285.79297 750.87695 L 296.24805 776.42383 L 314.20508 796.32031 L 339.28711 811.20703 L 367.00586 817.75977 L 404.57422 816.82422 L 447.03516 816.85156 L 471.60547 813.98828 L 501.88477 798.90039 L 517.96484 783.06055 L 529.9082 764.55664 L 535.81641 743.3418 L 538.20312 682.14062 L 539.66602 618.78711 L 541.08398 539.58203 L 542.05273 478.65039 L 540.61328 433.05078 L 531.64453 412.32031 L 516.52539 396.90039 C 495.96986 382.91595 462.97367 373.75505 412.48633 371.37109 z M 343.84961 404.13086 A 3.7788188 3.7788188 0 0 1 343.90234 404.13086 A 3.7788188 3.7788188 0 0 1 347.67969 407.9082 A 3.7788188 3.7788188 0 0 1 343.90234 411.6875 A 3.7788188 3.7788188 0 0 1 340.12305 407.9082 A 3.7788188 3.7788188 0 0 1 343.84961 404.13086 z M 478.00391 404.57617 A 3.7788188 3.7788188 0 0 1 478.05469 404.57617 A 3.7788188 3.7788188 0 0 1 481.83398 408.35352 A 3.7788188 3.7788188 0 0 1 478.05469 412.13281 A 3.7788188 3.7788188 0 0 1 474.27539 408.35352 A 3.7788188 3.7788188 0 0 1 478.00391 404.57617 z M 341.39062 777.05664 A 3.7788188 3.7788188 0 0 1 341.44141 777.05664 A 3.7788188 3.7788188 0 0 1 345.21875 780.83398 A 3.7788188 3.7788188 0 0 1 341.44141 784.61328 A 3.7788188 3.7788188 0 0 1 337.66211 780.83398 A 3.7788188 3.7788188 0 0 1 341.39062 777.05664 z M 476.79297 777.06836 A 3.7788188 3.7788188 0 0 1 480.57031 780.84766 A 3.7788188 3.7788188 0 0 1 476.79297 784.62695 A 3.7788188 3.7788188 0 0 1 473.01367 780.84766 A 3.7788188 3.7788188 0 0 1 476.79297 777.06836 z "
       style="fill:#030303;fill-opacity:1;stroke:#000000;stroke-width:0.999999px;stroke-linecap:butt;stroke-linejoin:miter;stroke-opacity:1"
       id="path981" />
  </g>
  <g
     id="layer1"
     inkscape:groupmode="layer"
     inkscape:label="Ebene 1" />
</svg>
