solid OpenSCAD_Model
  facet normal -1 0 0
    outer loop
      vertex 138.7 -1.3 0
      vertex 138.7 124.9 5
      vertex 138.7 124.9 0
    endloop
  endfacet
  facet normal -1 -0 0
    outer loop
      vertex 138.7 124.9 5
      vertex 138.7 -1.3 0
      vertex 138.7 -1.3 5
    endloop
  endfacet
  facet normal 0 0 1
    outer loop
      vertex 264.9 124.9 5
      vertex 264 124 5
      vertex 264.9 -1.3 5
    endloop
  endfacet
  facet normal 0 0 1
    outer loop
      vertex 264.9 124.9 5
      vertex 139.6 124 5
      vertex 264 124 5
    endloop
  endfacet
  facet normal 0 0 1
    outer loop
      vertex 139.6 124 5
      vertex 138.7 124.9 5
      vertex 139.6 -0.4 5
    endloop
  endfacet
  facet normal -0 0 1
    outer loop
      vertex 138.7 124.9 5
      vertex 139.6 124 5
      vertex 264.9 124.9 5
    endloop
  endfacet
  facet normal -0 0 1
    outer loop
      vertex 264 -0.4 5
      vertex 264.9 -1.3 5
      vertex 264 124 5
    endloop
  endfacet
  facet normal -0 0 1
    outer loop
      vertex 139.6 -0.4 5
      vertex 264.9 -1.3 5
      vertex 264 -0.4 5
    endloop
  endfacet
  facet normal 0 0 1
    outer loop
      vertex 139.6 -0.4 5
      vertex 138.7 -1.3 5
      vertex 264.9 -1.3 5
    endloop
  endfacet
  facet normal 0 0 1
    outer loop
      vertex 138.7 -1.3 5
      vertex 139.6 -0.4 5
      vertex 138.7 124.9 5
    endloop
  endfacet
  facet normal 1 -0 0
    outer loop
      vertex 264.9 -1.3 5
      vertex 264.9 124.9 0
      vertex 264.9 124.9 5
    endloop
  endfacet
  facet normal 1 0 0
    outer loop
      vertex 264.9 124.9 0
      vertex 264.9 -1.3 5
      vertex 264.9 -1.3 0
    endloop
  endfacet
  facet normal 0 0 -1
    outer loop
      vertex 138.7 -1.3 0
      vertex 264.9 124.9 0
      vertex 264.9 -1.3 0
    endloop
  endfacet
  facet normal -0 0 -1
    outer loop
      vertex 264.9 124.9 0
      vertex 138.7 -1.3 0
      vertex 138.7 124.9 0
    endloop
  endfacet
  facet normal 0 -1 0
    outer loop
      vertex 138.7 -1.3 0
      vertex 264.9 -1.3 5
      vertex 138.7 -1.3 5
    endloop
  endfacet
  facet normal 0 -1 -0
    outer loop
      vertex 264.9 -1.3 5
      vertex 138.7 -1.3 0
      vertex 264.9 -1.3 0
    endloop
  endfacet
  facet normal 0 1 -0
    outer loop
      vertex 264.9 124.9 0
      vertex 138.7 124.9 5
      vertex 264.9 124.9 5
    endloop
  endfacet
  facet normal 0 1 0
    outer loop
      vertex 138.7 124.9 5
      vertex 264.9 124.9 0
      vertex 138.7 124.9 0
    endloop
  endfacet
  facet normal 1 -0 0
    outer loop
      vertex 139.6 -0.4 5
      vertex 139.6 124 1
      vertex 139.6 124 5
    endloop
  endfacet
  facet normal 1 0 0
    outer loop
      vertex 139.6 124 1
      vertex 139.6 -0.4 5
      vertex 139.6 -0.4 1
    endloop
  endfacet
  facet normal -1 0 0
    outer loop
      vertex 264 -0.4 1
      vertex 264 124 5
      vertex 264 124 1
    endloop
  endfacet
  facet normal -1 -0 0
    outer loop
      vertex 264 124 5
      vertex 264 -0.4 1
      vertex 264 -0.4 5
    endloop
  endfacet
  facet normal 0 -1 0
    outer loop
      vertex 139.6 124 1
      vertex 264 124 5
      vertex 139.6 124 5
    endloop
  endfacet
  facet normal 0 -1 -0
    outer loop
      vertex 264 124 5
      vertex 139.6 124 1
      vertex 264 124 1
    endloop
  endfacet
  facet normal 0 1 -0
    outer loop
      vertex 264 -0.4 1
      vertex 139.6 -0.4 5
      vertex 264 -0.4 5
    endloop
  endfacet
  facet normal 0 1 0
    outer loop
      vertex 139.6 -0.4 5
      vertex 264 -0.4 1
      vertex 139.6 -0.4 1
    endloop
  endfacet
  facet normal -1 0 0
    outer loop
      vertex 141.3 1.3 1
      vertex 141.3 40.5 5
      vertex 141.3 40.5 1
    endloop
  endfacet
  facet normal -1 -0 0
    outer loop
      vertex 141.3 40.5 5
      vertex 141.3 1.3 1
      vertex 141.3 1.3 5
    endloop
  endfacet
  facet normal 0 0 1
    outer loop
      vertex 180.5 40.5 5
      vertex 179.6 39.6 5
      vertex 180.5 1.3 5
    endloop
  endfacet
  facet normal 0 0 1
    outer loop
      vertex 180.5 40.5 5
      vertex 142.2 39.6 5
      vertex 179.6 39.6 5
    endloop
  endfacet
  facet normal 0 0 1
    outer loop
      vertex 142.2 39.6 5
      vertex 141.3 40.5 5
      vertex 142.2 2.2 5
    endloop
  endfacet
  facet normal -0 0 1
    outer loop
      vertex 141.3 40.5 5
      vertex 142.2 39.6 5
      vertex 180.5 40.5 5
    endloop
  endfacet
  facet normal -0 0 1
    outer loop
      vertex 179.6 2.2 5
      vertex 180.5 1.3 5
      vertex 179.6 39.6 5
    endloop
  endfacet
  facet normal -0 0 1
    outer loop
      vertex 142.2 2.2 5
      vertex 180.5 1.3 5
      vertex 179.6 2.2 5
    endloop
  endfacet
  facet normal 0 0 1
    outer loop
      vertex 142.2 2.2 5
      vertex 141.3 1.3 5
      vertex 180.5 1.3 5
    endloop
  endfacet
  facet normal 0 0 1
    outer loop
      vertex 141.3 1.3 5
      vertex 142.2 2.2 5
      vertex 141.3 40.5 5
    endloop
  endfacet
  facet normal 1 -0 0
    outer loop
      vertex 180.5 1.3 5
      vertex 180.5 40.5 1
      vertex 180.5 40.5 5
    endloop
  endfacet
  facet normal 1 0 0
    outer loop
      vertex 180.5 40.5 1
      vertex 180.5 1.3 5
      vertex 180.5 1.3 1
    endloop
  endfacet
  facet normal 0 1 -0
    outer loop
      vertex 180.5 40.5 1
      vertex 141.3 40.5 5
      vertex 180.5 40.5 5
    endloop
  endfacet
  facet normal 0 1 0
    outer loop
      vertex 141.3 40.5 5
      vertex 180.5 40.5 1
      vertex 141.3 40.5 1
    endloop
  endfacet
  facet normal -0 0 1
    outer loop
      vertex 224 121.4 1
      vertex 261.4 84 1
      vertex 261.4 121.4 1
    endloop
  endfacet
  facet normal 0 0 1
    outer loop
      vertex 261.4 84 1
      vertex 224 121.4 1
      vertex 224 84 1
    endloop
  endfacet
  facet normal -0 0 1
    outer loop
      vertex 224 80.5 1
      vertex 261.4 43.1 1
      vertex 261.4 80.5 1
    endloop
  endfacet
  facet normal 0 0 1
    outer loop
      vertex 261.4 43.1 1
      vertex 224 80.5 1
      vertex 224 43.1 1
    endloop
  endfacet
  facet normal -0 0 1
    outer loop
      vertex 224 39.6 1
      vertex 261.4 2.2 1
      vertex 261.4 39.6 1
    endloop
  endfacet
  facet normal 0 0 1
    outer loop
      vertex 261.4 2.2 1
      vertex 224 39.6 1
      vertex 224 2.2 1
    endloop
  endfacet
  facet normal -0 0 1
    outer loop
      vertex 183.1 121.4 1
      vertex 220.5 84 1
      vertex 220.5 121.4 1
    endloop
  endfacet
  facet normal 0 0 1
    outer loop
      vertex 220.5 84 1
      vertex 183.1 121.4 1
      vertex 183.1 84 1
    endloop
  endfacet
  facet normal -0 0 1
    outer loop
      vertex 183.1 80.5 1
      vertex 220.5 43.1 1
      vertex 220.5 80.5 1
    endloop
  endfacet
  facet normal 0 0 1
    outer loop
      vertex 220.5 43.1 1
      vertex 183.1 80.5 1
      vertex 183.1 43.1 1
    endloop
  endfacet
  facet normal -0 0 1
    outer loop
      vertex 183.1 39.6 1
      vertex 220.5 2.2 1
      vertex 220.5 39.6 1
    endloop
  endfacet
  facet normal 0 0 1
    outer loop
      vertex 220.5 2.2 1
      vertex 183.1 39.6 1
      vertex 183.1 2.2 1
    endloop
  endfacet
  facet normal -0 0 1
    outer loop
      vertex 142.2 121.4 1
      vertex 179.6 84 1
      vertex 179.6 121.4 1
    endloop
  endfacet
  facet normal 0 0 1
    outer loop
      vertex 179.6 84 1
      vertex 142.2 121.4 1
      vertex 142.2 84 1
    endloop
  endfacet
  facet normal -0 0 1
    outer loop
      vertex 142.2 80.5 1
      vertex 179.6 43.1 1
      vertex 179.6 80.5 1
    endloop
  endfacet
  facet normal 0 0 1
    outer loop
      vertex 179.6 43.1 1
      vertex 142.2 80.5 1
      vertex 142.2 43.1 1
    endloop
  endfacet
  facet normal -0 0 1
    outer loop
      vertex 142.2 39.6 1
      vertex 179.6 2.2 1
      vertex 179.6 39.6 1
    endloop
  endfacet
  facet normal 0 0 1
    outer loop
      vertex 179.6 2.2 1
      vertex 142.2 39.6 1
      vertex 142.2 2.2 1
    endloop
  endfacet
  facet normal -0 0 1
    outer loop
      vertex 141.3 42.2 1
      vertex 180.5 40.5 1
      vertex 180.5 42.2 1
    endloop
  endfacet
  facet normal 0 0 1
    outer loop
      vertex 180.5 40.5 1
      vertex 141.3 42.2 1
      vertex 141.3 40.5 1
    endloop
  endfacet
  facet normal -0 0 1
    outer loop
      vertex 141.3 83.1 1
      vertex 180.5 81.4 1
      vertex 180.5 83.1 1
    endloop
  endfacet
  facet normal 0 0 1
    outer loop
      vertex 180.5 81.4 1
      vertex 141.3 83.1 1
      vertex 141.3 81.4 1
    endloop
  endfacet
  facet normal -0 0 1
    outer loop
      vertex 182.2 42.2 1
      vertex 221.4 40.5 1
      vertex 221.4 42.2 1
    endloop
  endfacet
  facet normal 0 0 1
    outer loop
      vertex 221.4 40.5 1
      vertex 182.2 42.2 1
      vertex 182.2 40.5 1
    endloop
  endfacet
  facet normal -0 0 1
    outer loop
      vertex 182.2 83.1 1
      vertex 221.4 81.4 1
      vertex 221.4 83.1 1
    endloop
  endfacet
  facet normal 0 0 1
    outer loop
      vertex 221.4 81.4 1
      vertex 182.2 83.1 1
      vertex 182.2 81.4 1
    endloop
  endfacet
  facet normal -0 0 1
    outer loop
      vertex 223.1 42.2 1
      vertex 262.3 40.5 1
      vertex 262.3 42.2 1
    endloop
  endfacet
  facet normal 0 0 1
    outer loop
      vertex 262.3 40.5 1
      vertex 223.1 42.2 1
      vertex 223.1 40.5 1
    endloop
  endfacet
  facet normal -0 0 1
    outer loop
      vertex 223.1 83.1 1
      vertex 262.3 81.4 1
      vertex 262.3 83.1 1
    endloop
  endfacet
  facet normal 0 0 1
    outer loop
      vertex 262.3 81.4 1
      vertex 223.1 83.1 1
      vertex 223.1 81.4 1
    endloop
  endfacet
  facet normal 0 0 1
    outer loop
      vertex 262.3 83.1 1
      vertex 264 124 1
      vertex 262.3 122.3 1
    endloop
  endfacet
  facet normal 0 0 1
    outer loop
      vertex 264 124 1
      vertex 223.1 122.3 1
      vertex 262.3 122.3 1
    endloop
  endfacet
  facet normal 0 0 1
    outer loop
      vertex 221.4 83.1 1
      vertex 223.1 83.1 1
      vertex 223.1 122.3 1
    endloop
  endfacet
  facet normal 0 0 1
    outer loop
      vertex 223.1 83.1 1
      vertex 221.4 83.1 1
      vertex 223.1 81.4 1
    endloop
  endfacet
  facet normal 0 0 1
    outer loop
      vertex 223.1 81.4 1
      vertex 221.4 81.4 1
      vertex 223.1 42.2 1
    endloop
  endfacet
  facet normal 0 0 1
    outer loop
      vertex 221.4 42.2 1
      vertex 223.1 42.2 1
      vertex 221.4 81.4 1
    endloop
  endfacet
  facet normal 0 0 1
    outer loop
      vertex 221.4 83.1 1
      vertex 223.1 122.3 1
      vertex 221.4 122.3 1
    endloop
  endfacet
  facet normal 0 0 1
    outer loop
      vertex 264 124 1
      vertex 221.4 122.3 1
      vertex 223.1 122.3 1
    endloop
  endfacet
  facet normal 0 0 1
    outer loop
      vertex 264 124 1
      vertex 182.2 122.3 1
      vertex 221.4 122.3 1
    endloop
  endfacet
  facet normal 0 0 1
    outer loop
      vertex 180.5 83.1 1
      vertex 182.2 83.1 1
      vertex 182.2 122.3 1
    endloop
  endfacet
  facet normal 0 0 1
    outer loop
      vertex 182.2 83.1 1
      vertex 180.5 83.1 1
      vertex 182.2 81.4 1
    endloop
  endfacet
  facet normal 0 0 1
    outer loop
      vertex 182.2 81.4 1
      vertex 180.5 81.4 1
      vertex 182.2 42.2 1
    endloop
  endfacet
  facet normal 0 0 1
    outer loop
      vertex 180.5 42.2 1
      vertex 182.2 42.2 1
      vertex 180.5 81.4 1
    endloop
  endfacet
  facet normal 0 0 1
    outer loop
      vertex 180.5 83.1 1
      vertex 182.2 122.3 1
      vertex 180.5 122.3 1
    endloop
  endfacet
  facet normal -0 0 1
    outer loop
      vertex 139.6 124 1
      vertex 182.2 122.3 1
      vertex 264 124 1
    endloop
  endfacet
  facet normal 0 0 1
    outer loop
      vertex 182.2 122.3 1
      vertex 139.6 124 1
      vertex 180.5 122.3 1
    endloop
  endfacet
  facet normal 0 0 1
    outer loop
      vertex 139.6 124 1
      vertex 141.3 83.1 1
      vertex 141.3 122.3 1
    endloop
  endfacet
  facet normal 0 0 1
    outer loop
      vertex 141.3 83.1 1
      vertex 139.6 124 1
      vertex 141.3 81.4 1
    endloop
  endfacet
  facet normal 0 0 1
    outer loop
      vertex 141.3 81.4 1
      vertex 139.6 124 1
      vertex 141.3 42.2 1
    endloop
  endfacet
  facet normal 0 0 1
    outer loop
      vertex 139.6 -0.4 1
      vertex 141.3 42.2 1
      vertex 139.6 124 1
    endloop
  endfacet
  facet normal 0 0 1
    outer loop
      vertex 141.3 42.2 1
      vertex 139.6 -0.4 1
      vertex 141.3 40.5 1
    endloop
  endfacet
  facet normal 0 0 1
    outer loop
      vertex 180.5 122.3 1
      vertex 139.6 124 1
      vertex 141.3 122.3 1
    endloop
  endfacet
  facet normal 0 0 1
    outer loop
      vertex 262.3 81.4 1
      vertex 264 124 1
      vertex 262.3 83.1 1
    endloop
  endfacet
  facet normal 0 0 1
    outer loop
      vertex 264 124 1
      vertex 262.3 81.4 1
      vertex 264 -0.4 1
    endloop
  endfacet
  facet normal -0 0 1
    outer loop
      vertex 262.3 42.2 1
      vertex 264 -0.4 1
      vertex 262.3 81.4 1
    endloop
  endfacet
  facet normal -0 0 1
    outer loop
      vertex 262.3 40.5 1
      vertex 264 -0.4 1
      vertex 262.3 42.2 1
    endloop
  endfacet
  facet normal -0 0 1
    outer loop
      vertex 262.3 1.3 1
      vertex 264 -0.4 1
      vertex 262.3 40.5 1
    endloop
  endfacet
  facet normal -0 0 1
    outer loop
      vertex 223.1 1.3 1
      vertex 264 -0.4 1
      vertex 262.3 1.3 1
    endloop
  endfacet
  facet normal 0 0 1
    outer loop
      vertex 223.1 81.4 1
      vertex 221.4 83.1 1
      vertex 221.4 81.4 1
    endloop
  endfacet
  facet normal 0 0 1
    outer loop
      vertex 223.1 42.2 1
      vertex 221.4 42.2 1
      vertex 223.1 40.5 1
    endloop
  endfacet
  facet normal 0 0 1
    outer loop
      vertex 221.4 40.5 1
      vertex 223.1 40.5 1
      vertex 221.4 42.2 1
    endloop
  endfacet
  facet normal 0 0 1
    outer loop
      vertex 223.1 40.5 1
      vertex 221.4 40.5 1
      vertex 223.1 1.3 1
    endloop
  endfacet
  facet normal 0 0 1
    outer loop
      vertex 221.4 1.3 1
      vertex 223.1 1.3 1
      vertex 221.4 40.5 1
    endloop
  endfacet
  facet normal -0 0 1
    outer loop
      vertex 221.4 1.3 1
      vertex 264 -0.4 1
      vertex 223.1 1.3 1
    endloop
  endfacet
  facet normal -0 0 1
    outer loop
      vertex 182.2 1.3 1
      vertex 264 -0.4 1
      vertex 221.4 1.3 1
    endloop
  endfacet
  facet normal 0 0 1
    outer loop
      vertex 182.2 81.4 1
      vertex 180.5 83.1 1
      vertex 180.5 81.4 1
    endloop
  endfacet
  facet normal 0 0 1
    outer loop
      vertex 182.2 42.2 1
      vertex 180.5 42.2 1
      vertex 182.2 40.5 1
    endloop
  endfacet
  facet normal 0 0 1
    outer loop
      vertex 180.5 40.5 1
      vertex 182.2 40.5 1
      vertex 180.5 42.2 1
    endloop
  endfacet
  facet normal 0 0 1
    outer loop
      vertex 182.2 40.5 1
      vertex 180.5 40.5 1
      vertex 182.2 1.3 1
    endloop
  endfacet
  facet normal 0 0 1
    outer loop
      vertex 180.5 1.3 1
      vertex 182.2 1.3 1
      vertex 180.5 40.5 1
    endloop
  endfacet
  facet normal 0 0 1
    outer loop
      vertex 139.6 -0.4 1
      vertex 182.2 1.3 1
      vertex 180.5 1.3 1
    endloop
  endfacet
  facet normal 0 0 1
    outer loop
      vertex 139.6 -0.4 1
      vertex 180.5 1.3 1
      vertex 141.3 1.3 1
    endloop
  endfacet
  facet normal 0 0 1
    outer loop
      vertex 182.2 1.3 1
      vertex 139.6 -0.4 1
      vertex 264 -0.4 1
    endloop
  endfacet
  facet normal 0 0 1
    outer loop
      vertex 141.3 40.5 1
      vertex 139.6 -0.4 1
      vertex 141.3 1.3 1
    endloop
  endfacet
  facet normal 0 -1 0
    outer loop
      vertex 141.3 1.3 1
      vertex 180.5 1.3 5
      vertex 141.3 1.3 5
    endloop
  endfacet
  facet normal 0 -1 -0
    outer loop
      vertex 180.5 1.3 5
      vertex 141.3 1.3 1
      vertex 180.5 1.3 1
    endloop
  endfacet
  facet normal 1 -0 0
    outer loop
      vertex 142.2 2.2 5
      vertex 142.2 39.6 1
      vertex 142.2 39.6 5
    endloop
  endfacet
  facet normal 1 0 0
    outer loop
      vertex 142.2 39.6 1
      vertex 142.2 2.2 5
      vertex 142.2 2.2 1
    endloop
  endfacet
  facet normal -1 0 0
    outer loop
      vertex 179.6 2.2 1
      vertex 179.6 39.6 5
      vertex 179.6 39.6 1
    endloop
  endfacet
  facet normal -1 -0 0
    outer loop
      vertex 179.6 39.6 5
      vertex 179.6 2.2 1
      vertex 179.6 2.2 5
    endloop
  endfacet
  facet normal 0 -1 0
    outer loop
      vertex 142.2 39.6 1
      vertex 179.6 39.6 5
      vertex 142.2 39.6 5
    endloop
  endfacet
  facet normal 0 -1 -0
    outer loop
      vertex 179.6 39.6 5
      vertex 142.2 39.6 1
      vertex 179.6 39.6 1
    endloop
  endfacet
  facet normal 0 1 -0
    outer loop
      vertex 179.6 2.2 1
      vertex 142.2 2.2 5
      vertex 179.6 2.2 5
    endloop
  endfacet
  facet normal 0 1 0
    outer loop
      vertex 142.2 2.2 5
      vertex 179.6 2.2 1
      vertex 142.2 2.2 1
    endloop
  endfacet
  facet normal -1 0 0
    outer loop
      vertex 141.3 42.2 1
      vertex 141.3 81.4 5
      vertex 141.3 81.4 1
    endloop
  endfacet
  facet normal -1 -0 0
    outer loop
      vertex 141.3 81.4 5
      vertex 141.3 42.2 1
      vertex 141.3 42.2 5
    endloop
  endfacet
  facet normal 0 0 1
    outer loop
      vertex 180.5 81.4 5
      vertex 179.6 80.5 5
      vertex 180.5 42.2 5
    endloop
  endfacet
  facet normal 0 0 1
    outer loop
      vertex 180.5 81.4 5
      vertex 142.2 80.5 5
      vertex 179.6 80.5 5
    endloop
  endfacet
  facet normal 0 0 1
    outer loop
      vertex 142.2 80.5 5
      vertex 141.3 81.4 5
      vertex 142.2 43.1 5
    endloop
  endfacet
  facet normal -0 0 1
    outer loop
      vertex 141.3 81.4 5
      vertex 142.2 80.5 5
      vertex 180.5 81.4 5
    endloop
  endfacet
  facet normal -0 0 1
    outer loop
      vertex 179.6 43.1 5
      vertex 180.5 42.2 5
      vertex 179.6 80.5 5
    endloop
  endfacet
  facet normal -0 0 1
    outer loop
      vertex 142.2 43.1 5
      vertex 180.5 42.2 5
      vertex 179.6 43.1 5
    endloop
  endfacet
  facet normal 0 0 1
    outer loop
      vertex 142.2 43.1 5
      vertex 141.3 42.2 5
      vertex 180.5 42.2 5
    endloop
  endfacet
  facet normal 0 0 1
    outer loop
      vertex 141.3 42.2 5
      vertex 142.2 43.1 5
      vertex 141.3 81.4 5
    endloop
  endfacet
  facet normal 1 -0 0
    outer loop
      vertex 180.5 42.2 5
      vertex 180.5 81.4 1
      vertex 180.5 81.4 5
    endloop
  endfacet
  facet normal 1 0 0
    outer loop
      vertex 180.5 81.4 1
      vertex 180.5 42.2 5
      vertex 180.5 42.2 1
    endloop
  endfacet
  facet normal 0 1 -0
    outer loop
      vertex 180.5 81.4 1
      vertex 141.3 81.4 5
      vertex 180.5 81.4 5
    endloop
  endfacet
  facet normal 0 1 0
    outer loop
      vertex 141.3 81.4 5
      vertex 180.5 81.4 1
      vertex 141.3 81.4 1
    endloop
  endfacet
  facet normal 0 -1 0
    outer loop
      vertex 141.3 42.2 1
      vertex 180.5 42.2 5
      vertex 141.3 42.2 5
    endloop
  endfacet
  facet normal 0 -1 -0
    outer loop
      vertex 180.5 42.2 5
      vertex 141.3 42.2 1
      vertex 180.5 42.2 1
    endloop
  endfacet
  facet normal 1 -0 0
    outer loop
      vertex 142.2 43.1 5
      vertex 142.2 80.5 1
      vertex 142.2 80.5 5
    endloop
  endfacet
  facet normal 1 0 0
    outer loop
      vertex 142.2 80.5 1
      vertex 142.2 43.1 5
      vertex 142.2 43.1 1
    endloop
  endfacet
  facet normal -1 0 0
    outer loop
      vertex 179.6 43.1 1
      vertex 179.6 80.5 5
      vertex 179.6 80.5 1
    endloop
  endfacet
  facet normal -1 -0 0
    outer loop
      vertex 179.6 80.5 5
      vertex 179.6 43.1 1
      vertex 179.6 43.1 5
    endloop
  endfacet
  facet normal 0 -1 0
    outer loop
      vertex 142.2 80.5 1
      vertex 179.6 80.5 5
      vertex 142.2 80.5 5
    endloop
  endfacet
  facet normal 0 -1 -0
    outer loop
      vertex 179.6 80.5 5
      vertex 142.2 80.5 1
      vertex 179.6 80.5 1
    endloop
  endfacet
  facet normal 0 1 -0
    outer loop
      vertex 179.6 43.1 1
      vertex 142.2 43.1 5
      vertex 179.6 43.1 5
    endloop
  endfacet
  facet normal 0 1 0
    outer loop
      vertex 142.2 43.1 5
      vertex 179.6 43.1 1
      vertex 142.2 43.1 1
    endloop
  endfacet
  facet normal -1 0 0
    outer loop
      vertex 141.3 83.1 1
      vertex 141.3 122.3 5
      vertex 141.3 122.3 1
    endloop
  endfacet
  facet normal -1 -0 0
    outer loop
      vertex 141.3 122.3 5
      vertex 141.3 83.1 1
      vertex 141.3 83.1 5
    endloop
  endfacet
  facet normal 0 0 1
    outer loop
      vertex 180.5 122.3 5
      vertex 179.6 121.4 5
      vertex 180.5 83.1 5
    endloop
  endfacet
  facet normal 0 0 1
    outer loop
      vertex 180.5 122.3 5
      vertex 142.2 121.4 5
      vertex 179.6 121.4 5
    endloop
  endfacet
  facet normal 0 0 1
    outer loop
      vertex 142.2 121.4 5
      vertex 141.3 122.3 5
      vertex 142.2 84 5
    endloop
  endfacet
  facet normal -0 0 1
    outer loop
      vertex 141.3 122.3 5
      vertex 142.2 121.4 5
      vertex 180.5 122.3 5
    endloop
  endfacet
  facet normal -0 0 1
    outer loop
      vertex 179.6 84 5
      vertex 180.5 83.1 5
      vertex 179.6 121.4 5
    endloop
  endfacet
  facet normal -0 0 1
    outer loop
      vertex 142.2 84 5
      vertex 180.5 83.1 5
      vertex 179.6 84 5
    endloop
  endfacet
  facet normal 0 0 1
    outer loop
      vertex 142.2 84 5
      vertex 141.3 83.1 5
      vertex 180.5 83.1 5
    endloop
  endfacet
  facet normal 0 0 1
    outer loop
      vertex 141.3 83.1 5
      vertex 142.2 84 5
      vertex 141.3 122.3 5
    endloop
  endfacet
  facet normal 1 -0 0
    outer loop
      vertex 180.5 83.1 5
      vertex 180.5 122.3 1
      vertex 180.5 122.3 5
    endloop
  endfacet
  facet normal 1 0 0
    outer loop
      vertex 180.5 122.3 1
      vertex 180.5 83.1 5
      vertex 180.5 83.1 1
    endloop
  endfacet
  facet normal 0 -1 0
    outer loop
      vertex 141.3 83.1 1
      vertex 180.5 83.1 5
      vertex 141.3 83.1 5
    endloop
  endfacet
  facet normal 0 -1 -0
    outer loop
      vertex 180.5 83.1 5
      vertex 141.3 83.1 1
      vertex 180.5 83.1 1
    endloop
  endfacet
  facet normal 0 1 -0
    outer loop
      vertex 180.5 122.3 1
      vertex 141.3 122.3 5
      vertex 180.5 122.3 5
    endloop
  endfacet
  facet normal 0 1 0
    outer loop
      vertex 141.3 122.3 5
      vertex 180.5 122.3 1
      vertex 141.3 122.3 1
    endloop
  endfacet
  facet normal 1 -0 0
    outer loop
      vertex 142.2 84 5
      vertex 142.2 121.4 1
      vertex 142.2 121.4 5
    endloop
  endfacet
  facet normal 1 0 0
    outer loop
      vertex 142.2 121.4 1
      vertex 142.2 84 5
      vertex 142.2 84 1
    endloop
  endfacet
  facet normal -1 0 0
    outer loop
      vertex 179.6 84 1
      vertex 179.6 121.4 5
      vertex 179.6 121.4 1
    endloop
  endfacet
  facet normal -1 -0 0
    outer loop
      vertex 179.6 121.4 5
      vertex 179.6 84 1
      vertex 179.6 84 5
    endloop
  endfacet
  facet normal 0 1 -0
    outer loop
      vertex 179.6 84 1
      vertex 142.2 84 5
      vertex 179.6 84 5
    endloop
  endfacet
  facet normal 0 1 0
    outer loop
      vertex 142.2 84 5
      vertex 179.6 84 1
      vertex 142.2 84 1
    endloop
  endfacet
  facet normal 0 -1 0
    outer loop
      vertex 142.2 121.4 1
      vertex 179.6 121.4 5
      vertex 142.2 121.4 5
    endloop
  endfacet
  facet normal 0 -1 -0
    outer loop
      vertex 179.6 121.4 5
      vertex 142.2 121.4 1
      vertex 179.6 121.4 1
    endloop
  endfacet
  facet normal -1 0 0
    outer loop
      vertex 182.2 1.3 1
      vertex 182.2 40.5 5
      vertex 182.2 40.5 1
    endloop
  endfacet
  facet normal -1 -0 0
    outer loop
      vertex 182.2 40.5 5
      vertex 182.2 1.3 1
      vertex 182.2 1.3 5
    endloop
  endfacet
  facet normal 0 0 1
    outer loop
      vertex 221.4 40.5 5
      vertex 220.5 39.6 5
      vertex 221.4 1.3 5
    endloop
  endfacet
  facet normal 0 0 1
    outer loop
      vertex 221.4 40.5 5
      vertex 183.1 39.6 5
      vertex 220.5 39.6 5
    endloop
  endfacet
  facet normal 0 0 1
    outer loop
      vertex 183.1 39.6 5
      vertex 182.2 40.5 5
      vertex 183.1 2.2 5
    endloop
  endfacet
  facet normal -0 0 1
    outer loop
      vertex 182.2 40.5 5
      vertex 183.1 39.6 5
      vertex 221.4 40.5 5
    endloop
  endfacet
  facet normal -0 0 1
    outer loop
      vertex 220.5 2.2 5
      vertex 221.4 1.3 5
      vertex 220.5 39.6 5
    endloop
  endfacet
  facet normal -0 0 1
    outer loop
      vertex 183.1 2.2 5
      vertex 221.4 1.3 5
      vertex 220.5 2.2 5
    endloop
  endfacet
  facet normal 0 0 1
    outer loop
      vertex 183.1 2.2 5
      vertex 182.2 1.3 5
      vertex 221.4 1.3 5
    endloop
  endfacet
  facet normal 0 0 1
    outer loop
      vertex 182.2 1.3 5
      vertex 183.1 2.2 5
      vertex 182.2 40.5 5
    endloop
  endfacet
  facet normal 1 -0 0
    outer loop
      vertex 221.4 1.3 5
      vertex 221.4 40.5 1
      vertex 221.4 40.5 5
    endloop
  endfacet
  facet normal 1 0 0
    outer loop
      vertex 221.4 40.5 1
      vertex 221.4 1.3 5
      vertex 221.4 1.3 1
    endloop
  endfacet
  facet normal 0 1 -0
    outer loop
      vertex 221.4 40.5 1
      vertex 182.2 40.5 5
      vertex 221.4 40.5 5
    endloop
  endfacet
  facet normal 0 1 0
    outer loop
      vertex 182.2 40.5 5
      vertex 221.4 40.5 1
      vertex 182.2 40.5 1
    endloop
  endfacet
  facet normal 0 -1 0
    outer loop
      vertex 182.2 1.3 1
      vertex 221.4 1.3 5
      vertex 182.2 1.3 5
    endloop
  endfacet
  facet normal 0 -1 -0
    outer loop
      vertex 221.4 1.3 5
      vertex 182.2 1.3 1
      vertex 221.4 1.3 1
    endloop
  endfacet
  facet normal 1 -0 0
    outer loop
      vertex 183.1 2.2 5
      vertex 183.1 39.6 1
      vertex 183.1 39.6 5
    endloop
  endfacet
  facet normal 1 0 0
    outer loop
      vertex 183.1 39.6 1
      vertex 183.1 2.2 5
      vertex 183.1 2.2 1
    endloop
  endfacet
  facet normal -1 0 0
    outer loop
      vertex 220.5 2.2 1
      vertex 220.5 39.6 5
      vertex 220.5 39.6 1
    endloop
  endfacet
  facet normal -1 -0 0
    outer loop
      vertex 220.5 39.6 5
      vertex 220.5 2.2 1
      vertex 220.5 2.2 5
    endloop
  endfacet
  facet normal 0 1 -0
    outer loop
      vertex 220.5 2.2 1
      vertex 183.1 2.2 5
      vertex 220.5 2.2 5
    endloop
  endfacet
  facet normal 0 1 0
    outer loop
      vertex 183.1 2.2 5
      vertex 220.5 2.2 1
      vertex 183.1 2.2 1
    endloop
  endfacet
  facet normal 0 -1 0
    outer loop
      vertex 183.1 39.6 1
      vertex 220.5 39.6 5
      vertex 183.1 39.6 5
    endloop
  endfacet
  facet normal 0 -1 -0
    outer loop
      vertex 220.5 39.6 5
      vertex 183.1 39.6 1
      vertex 220.5 39.6 1
    endloop
  endfacet
  facet normal -1 0 0
    outer loop
      vertex 182.2 42.2 1
      vertex 182.2 81.4 5
      vertex 182.2 81.4 1
    endloop
  endfacet
  facet normal -1 -0 0
    outer loop
      vertex 182.2 81.4 5
      vertex 182.2 42.2 1
      vertex 182.2 42.2 5
    endloop
  endfacet
  facet normal 0 0 1
    outer loop
      vertex 221.4 81.4 5
      vertex 220.5 80.5 5
      vertex 221.4 42.2 5
    endloop
  endfacet
  facet normal 0 0 1
    outer loop
      vertex 221.4 81.4 5
      vertex 183.1 80.5 5
      vertex 220.5 80.5 5
    endloop
  endfacet
  facet normal 0 0 1
    outer loop
      vertex 183.1 80.5 5
      vertex 182.2 81.4 5
      vertex 183.1 43.1 5
    endloop
  endfacet
  facet normal -0 0 1
    outer loop
      vertex 182.2 81.4 5
      vertex 183.1 80.5 5
      vertex 221.4 81.4 5
    endloop
  endfacet
  facet normal -0 0 1
    outer loop
      vertex 220.5 43.1 5
      vertex 221.4 42.2 5
      vertex 220.5 80.5 5
    endloop
  endfacet
  facet normal -0 0 1
    outer loop
      vertex 183.1 43.1 5
      vertex 221.4 42.2 5
      vertex 220.5 43.1 5
    endloop
  endfacet
  facet normal 0 0 1
    outer loop
      vertex 183.1 43.1 5
      vertex 182.2 42.2 5
      vertex 221.4 42.2 5
    endloop
  endfacet
  facet normal 0 0 1
    outer loop
      vertex 182.2 42.2 5
      vertex 183.1 43.1 5
      vertex 182.2 81.4 5
    endloop
  endfacet
  facet normal 1 -0 0
    outer loop
      vertex 221.4 42.2 5
      vertex 221.4 81.4 1
      vertex 221.4 81.4 5
    endloop
  endfacet
  facet normal 1 0 0
    outer loop
      vertex 221.4 81.4 1
      vertex 221.4 42.2 5
      vertex 221.4 42.2 1
    endloop
  endfacet
  facet normal 0 1 -0
    outer loop
      vertex 221.4 81.4 1
      vertex 182.2 81.4 5
      vertex 221.4 81.4 5
    endloop
  endfacet
  facet normal 0 1 0
    outer loop
      vertex 182.2 81.4 5
      vertex 221.4 81.4 1
      vertex 182.2 81.4 1
    endloop
  endfacet
  facet normal 0 -1 0
    outer loop
      vertex 182.2 42.2 1
      vertex 221.4 42.2 5
      vertex 182.2 42.2 5
    endloop
  endfacet
  facet normal 0 -1 -0
    outer loop
      vertex 221.4 42.2 5
      vertex 182.2 42.2 1
      vertex 221.4 42.2 1
    endloop
  endfacet
  facet normal 1 -0 0
    outer loop
      vertex 183.1 43.1 5
      vertex 183.1 80.5 1
      vertex 183.1 80.5 5
    endloop
  endfacet
  facet normal 1 0 0
    outer loop
      vertex 183.1 80.5 1
      vertex 183.1 43.1 5
      vertex 183.1 43.1 1
    endloop
  endfacet
  facet normal -1 0 0
    outer loop
      vertex 220.5 43.1 1
      vertex 220.5 80.5 5
      vertex 220.5 80.5 1
    endloop
  endfacet
  facet normal -1 -0 0
    outer loop
      vertex 220.5 80.5 5
      vertex 220.5 43.1 1
      vertex 220.5 43.1 5
    endloop
  endfacet
  facet normal 0 -1 0
    outer loop
      vertex 183.1 80.5 1
      vertex 220.5 80.5 5
      vertex 183.1 80.5 5
    endloop
  endfacet
  facet normal 0 -1 -0
    outer loop
      vertex 220.5 80.5 5
      vertex 183.1 80.5 1
      vertex 220.5 80.5 1
    endloop
  endfacet
  facet normal 0 1 -0
    outer loop
      vertex 220.5 43.1 1
      vertex 183.1 43.1 5
      vertex 220.5 43.1 5
    endloop
  endfacet
  facet normal 0 1 0
    outer loop
      vertex 183.1 43.1 5
      vertex 220.5 43.1 1
      vertex 183.1 43.1 1
    endloop
  endfacet
  facet normal -1 0 0
    outer loop
      vertex 182.2 83.1 1
      vertex 182.2 122.3 5
      vertex 182.2 122.3 1
    endloop
  endfacet
  facet normal -1 -0 0
    outer loop
      vertex 182.2 122.3 5
      vertex 182.2 83.1 1
      vertex 182.2 83.1 5
    endloop
  endfacet
  facet normal 0 0 1
    outer loop
      vertex 221.4 122.3 5
      vertex 220.5 121.4 5
      vertex 221.4 83.1 5
    endloop
  endfacet
  facet normal 0 0 1
    outer loop
      vertex 221.4 122.3 5
      vertex 183.1 121.4 5
      vertex 220.5 121.4 5
    endloop
  endfacet
  facet normal 0 0 1
    outer loop
      vertex 183.1 121.4 5
      vertex 182.2 122.3 5
      vertex 183.1 84 5
    endloop
  endfacet
  facet normal -0 0 1
    outer loop
      vertex 182.2 122.3 5
      vertex 183.1 121.4 5
      vertex 221.4 122.3 5
    endloop
  endfacet
  facet normal -0 0 1
    outer loop
      vertex 220.5 84 5
      vertex 221.4 83.1 5
      vertex 220.5 121.4 5
    endloop
  endfacet
  facet normal -0 0 1
    outer loop
      vertex 183.1 84 5
      vertex 221.4 83.1 5
      vertex 220.5 84 5
    endloop
  endfacet
  facet normal 0 0 1
    outer loop
      vertex 183.1 84 5
      vertex 182.2 83.1 5
      vertex 221.4 83.1 5
    endloop
  endfacet
  facet normal 0 0 1
    outer loop
      vertex 182.2 83.1 5
      vertex 183.1 84 5
      vertex 182.2 122.3 5
    endloop
  endfacet
  facet normal 1 -0 0
    outer loop
      vertex 221.4 83.1 5
      vertex 221.4 122.3 1
      vertex 221.4 122.3 5
    endloop
  endfacet
  facet normal 1 0 0
    outer loop
      vertex 221.4 122.3 1
      vertex 221.4 83.1 5
      vertex 221.4 83.1 1
    endloop
  endfacet
  facet normal 0 1 -0
    outer loop
      vertex 221.4 122.3 1
      vertex 182.2 122.3 5
      vertex 221.4 122.3 5
    endloop
  endfacet
  facet normal 0 1 0
    outer loop
      vertex 182.2 122.3 5
      vertex 221.4 122.3 1
      vertex 182.2 122.3 1
    endloop
  endfacet
  facet normal 0 -1 0
    outer loop
      vertex 182.2 83.1 1
      vertex 221.4 83.1 5
      vertex 182.2 83.1 5
    endloop
  endfacet
  facet normal 0 -1 -0
    outer loop
      vertex 221.4 83.1 5
      vertex 182.2 83.1 1
      vertex 221.4 83.1 1
    endloop
  endfacet
  facet normal 1 -0 0
    outer loop
      vertex 183.1 84 5
      vertex 183.1 121.4 1
      vertex 183.1 121.4 5
    endloop
  endfacet
  facet normal 1 0 0
    outer loop
      vertex 183.1 121.4 1
      vertex 183.1 84 5
      vertex 183.1 84 1
    endloop
  endfacet
  facet normal -1 0 0
    outer loop
      vertex 220.5 84 1
      vertex 220.5 121.4 5
      vertex 220.5 121.4 1
    endloop
  endfacet
  facet normal -1 -0 0
    outer loop
      vertex 220.5 121.4 5
      vertex 220.5 84 1
      vertex 220.5 84 5
    endloop
  endfacet
  facet normal 0 -1 0
    outer loop
      vertex 183.1 121.4 1
      vertex 220.5 121.4 5
      vertex 183.1 121.4 5
    endloop
  endfacet
  facet normal 0 -1 -0
    outer loop
      vertex 220.5 121.4 5
      vertex 183.1 121.4 1
      vertex 220.5 121.4 1
    endloop
  endfacet
  facet normal 0 1 -0
    outer loop
      vertex 220.5 84 1
      vertex 183.1 84 5
      vertex 220.5 84 5
    endloop
  endfacet
  facet normal 0 1 0
    outer loop
      vertex 183.1 84 5
      vertex 220.5 84 1
      vertex 183.1 84 1
    endloop
  endfacet
  facet normal -1 0 0
    outer loop
      vertex 223.1 1.3 1
      vertex 223.1 40.5 5
      vertex 223.1 40.5 1
    endloop
  endfacet
  facet normal -1 -0 0
    outer loop
      vertex 223.1 40.5 5
      vertex 223.1 1.3 1
      vertex 223.1 1.3 5
    endloop
  endfacet
  facet normal 0 0 1
    outer loop
      vertex 262.3 40.5 5
      vertex 261.4 39.6 5
      vertex 262.3 1.3 5
    endloop
  endfacet
  facet normal 0 0 1
    outer loop
      vertex 262.3 40.5 5
      vertex 224 39.6 5
      vertex 261.4 39.6 5
    endloop
  endfacet
  facet normal 0 0 1
    outer loop
      vertex 224 39.6 5
      vertex 223.1 40.5 5
      vertex 224 2.2 5
    endloop
  endfacet
  facet normal -0 0 1
    outer loop
      vertex 223.1 40.5 5
      vertex 224 39.6 5
      vertex 262.3 40.5 5
    endloop
  endfacet
  facet normal -0 0 1
    outer loop
      vertex 261.4 2.2 5
      vertex 262.3 1.3 5
      vertex 261.4 39.6 5
    endloop
  endfacet
  facet normal -0 0 1
    outer loop
      vertex 224 2.2 5
      vertex 262.3 1.3 5
      vertex 261.4 2.2 5
    endloop
  endfacet
  facet normal 0 0 1
    outer loop
      vertex 224 2.2 5
      vertex 223.1 1.3 5
      vertex 262.3 1.3 5
    endloop
  endfacet
  facet normal 0 0 1
    outer loop
      vertex 223.1 1.3 5
      vertex 224 2.2 5
      vertex 223.1 40.5 5
    endloop
  endfacet
  facet normal 1 -0 0
    outer loop
      vertex 262.3 1.3 5
      vertex 262.3 40.5 1
      vertex 262.3 40.5 5
    endloop
  endfacet
  facet normal 1 0 0
    outer loop
      vertex 262.3 40.5 1
      vertex 262.3 1.3 5
      vertex 262.3 1.3 1
    endloop
  endfacet
  facet normal 0 -1 0
    outer loop
      vertex 223.1 1.3 1
      vertex 262.3 1.3 5
      vertex 223.1 1.3 5
    endloop
  endfacet
  facet normal 0 -1 -0
    outer loop
      vertex 262.3 1.3 5
      vertex 223.1 1.3 1
      vertex 262.3 1.3 1
    endloop
  endfacet
  facet normal 0 1 -0
    outer loop
      vertex 262.3 40.5 1
      vertex 223.1 40.5 5
      vertex 262.3 40.5 5
    endloop
  endfacet
  facet normal 0 1 0
    outer loop
      vertex 223.1 40.5 5
      vertex 262.3 40.5 1
      vertex 223.1 40.5 1
    endloop
  endfacet
  facet normal 1 -0 0
    outer loop
      vertex 224 2.2 5
      vertex 224 39.6 1
      vertex 224 39.6 5
    endloop
  endfacet
  facet normal 1 0 0
    outer loop
      vertex 224 39.6 1
      vertex 224 2.2 5
      vertex 224 2.2 1
    endloop
  endfacet
  facet normal -1 0 0
    outer loop
      vertex 261.4 2.2 1
      vertex 261.4 39.6 5
      vertex 261.4 39.6 1
    endloop
  endfacet
  facet normal -1 -0 0
    outer loop
      vertex 261.4 39.6 5
      vertex 261.4 2.2 1
      vertex 261.4 2.2 5
    endloop
  endfacet
  facet normal 0 -1 0
    outer loop
      vertex 224 39.6 1
      vertex 261.4 39.6 5
      vertex 224 39.6 5
    endloop
  endfacet
  facet normal 0 -1 -0
    outer loop
      vertex 261.4 39.6 5
      vertex 224 39.6 1
      vertex 261.4 39.6 1
    endloop
  endfacet
  facet normal 0 1 -0
    outer loop
      vertex 261.4 2.2 1
      vertex 224 2.2 5
      vertex 261.4 2.2 5
    endloop
  endfacet
  facet normal 0 1 0
    outer loop
      vertex 224 2.2 5
      vertex 261.4 2.2 1
      vertex 224 2.2 1
    endloop
  endfacet
  facet normal -1 0 0
    outer loop
      vertex 223.1 42.2 1
      vertex 223.1 81.4 5
      vertex 223.1 81.4 1
    endloop
  endfacet
  facet normal -1 -0 0
    outer loop
      vertex 223.1 81.4 5
      vertex 223.1 42.2 1
      vertex 223.1 42.2 5
    endloop
  endfacet
  facet normal 0 0 1
    outer loop
      vertex 262.3 81.4 5
      vertex 261.4 80.5 5
      vertex 262.3 42.2 5
    endloop
  endfacet
  facet normal 0 0 1
    outer loop
      vertex 262.3 81.4 5
      vertex 224 80.5 5
      vertex 261.4 80.5 5
    endloop
  endfacet
  facet normal 0 0 1
    outer loop
      vertex 224 80.5 5
      vertex 223.1 81.4 5
      vertex 224 43.1 5
    endloop
  endfacet
  facet normal -0 0 1
    outer loop
      vertex 223.1 81.4 5
      vertex 224 80.5 5
      vertex 262.3 81.4 5
    endloop
  endfacet
  facet normal -0 0 1
    outer loop
      vertex 261.4 43.1 5
      vertex 262.3 42.2 5
      vertex 261.4 80.5 5
    endloop
  endfacet
  facet normal -0 0 1
    outer loop
      vertex 224 43.1 5
      vertex 262.3 42.2 5
      vertex 261.4 43.1 5
    endloop
  endfacet
  facet normal 0 0 1
    outer loop
      vertex 224 43.1 5
      vertex 223.1 42.2 5
      vertex 262.3 42.2 5
    endloop
  endfacet
  facet normal 0 0 1
    outer loop
      vertex 223.1 42.2 5
      vertex 224 43.1 5
      vertex 223.1 81.4 5
    endloop
  endfacet
  facet normal 1 -0 0
    outer loop
      vertex 262.3 42.2 5
      vertex 262.3 81.4 1
      vertex 262.3 81.4 5
    endloop
  endfacet
  facet normal 1 0 0
    outer loop
      vertex 262.3 81.4 1
      vertex 262.3 42.2 5
      vertex 262.3 42.2 1
    endloop
  endfacet
  facet normal 0 1 -0
    outer loop
      vertex 262.3 81.4 1
      vertex 223.1 81.4 5
      vertex 262.3 81.4 5
    endloop
  endfacet
  facet normal 0 1 0
    outer loop
      vertex 223.1 81.4 5
      vertex 262.3 81.4 1
      vertex 223.1 81.4 1
    endloop
  endfacet
  facet normal 0 -1 0
    outer loop
      vertex 223.1 42.2 1
      vertex 262.3 42.2 5
      vertex 223.1 42.2 5
    endloop
  endfacet
  facet normal 0 -1 -0
    outer loop
      vertex 262.3 42.2 5
      vertex 223.1 42.2 1
      vertex 262.3 42.2 1
    endloop
  endfacet
  facet normal 1 -0 0
    outer loop
      vertex 224 43.1 5
      vertex 224 80.5 1
      vertex 224 80.5 5
    endloop
  endfacet
  facet normal 1 0 0
    outer loop
      vertex 224 80.5 1
      vertex 224 43.1 5
      vertex 224 43.1 1
    endloop
  endfacet
  facet normal -1 0 0
    outer loop
      vertex 261.4 43.1 1
      vertex 261.4 80.5 5
      vertex 261.4 80.5 1
    endloop
  endfacet
  facet normal -1 -0 0
    outer loop
      vertex 261.4 80.5 5
      vertex 261.4 43.1 1
      vertex 261.4 43.1 5
    endloop
  endfacet
  facet normal 0 -1 0
    outer loop
      vertex 224 80.5 1
      vertex 261.4 80.5 5
      vertex 224 80.5 5
    endloop
  endfacet
  facet normal 0 -1 -0
    outer loop
      vertex 261.4 80.5 5
      vertex 224 80.5 1
      vertex 261.4 80.5 1
    endloop
  endfacet
  facet normal 0 1 -0
    outer loop
      vertex 261.4 43.1 1
      vertex 224 43.1 5
      vertex 261.4 43.1 5
    endloop
  endfacet
  facet normal 0 1 0
    outer loop
      vertex 224 43.1 5
      vertex 261.4 43.1 1
      vertex 224 43.1 1
    endloop
  endfacet
  facet normal -1 0 0
    outer loop
      vertex 223.1 83.1 1
      vertex 223.1 122.3 5
      vertex 223.1 122.3 1
    endloop
  endfacet
  facet normal -1 -0 0
    outer loop
      vertex 223.1 122.3 5
      vertex 223.1 83.1 1
      vertex 223.1 83.1 5
    endloop
  endfacet
  facet normal 0 0 1
    outer loop
      vertex 262.3 122.3 5
      vertex 261.4 121.4 5
      vertex 262.3 83.1 5
    endloop
  endfacet
  facet normal 0 0 1
    outer loop
      vertex 262.3 122.3 5
      vertex 224 121.4 5
      vertex 261.4 121.4 5
    endloop
  endfacet
  facet normal 0 0 1
    outer loop
      vertex 224 121.4 5
      vertex 223.1 122.3 5
      vertex 224 84 5
    endloop
  endfacet
  facet normal -0 0 1
    outer loop
      vertex 223.1 122.3 5
      vertex 224 121.4 5
      vertex 262.3 122.3 5
    endloop
  endfacet
  facet normal -0 0 1
    outer loop
      vertex 261.4 84 5
      vertex 262.3 83.1 5
      vertex 261.4 121.4 5
    endloop
  endfacet
  facet normal -0 0 1
    outer loop
      vertex 224 84 5
      vertex 262.3 83.1 5
      vertex 261.4 84 5
    endloop
  endfacet
  facet normal 0 0 1
    outer loop
      vertex 224 84 5
      vertex 223.1 83.1 5
      vertex 262.3 83.1 5
    endloop
  endfacet
  facet normal 0 0 1
    outer loop
      vertex 223.1 83.1 5
      vertex 224 84 5
      vertex 223.1 122.3 5
    endloop
  endfacet
  facet normal 1 -0 0
    outer loop
      vertex 262.3 83.1 5
      vertex 262.3 122.3 1
      vertex 262.3 122.3 5
    endloop
  endfacet
  facet normal 1 0 0
    outer loop
      vertex 262.3 122.3 1
      vertex 262.3 83.1 5
      vertex 262.3 83.1 1
    endloop
  endfacet
  facet normal 0 1 -0
    outer loop
      vertex 262.3 122.3 1
      vertex 223.1 122.3 5
      vertex 262.3 122.3 5
    endloop
  endfacet
  facet normal 0 1 0
    outer loop
      vertex 223.1 122.3 5
      vertex 262.3 122.3 1
      vertex 223.1 122.3 1
    endloop
  endfacet
  facet normal 0 -1 0
    outer loop
      vertex 223.1 83.1 1
      vertex 262.3 83.1 5
      vertex 223.1 83.1 5
    endloop
  endfacet
  facet normal 0 -1 -0
    outer loop
      vertex 262.3 83.1 5
      vertex 223.1 83.1 1
      vertex 262.3 83.1 1
    endloop
  endfacet
  facet normal 1 -0 0
    outer loop
      vertex 224 84 5
      vertex 224 121.4 1
      vertex 224 121.4 5
    endloop
  endfacet
  facet normal 1 0 0
    outer loop
      vertex 224 121.4 1
      vertex 224 84 5
      vertex 224 84 1
    endloop
  endfacet
  facet normal -1 0 0
    outer loop
      vertex 261.4 84 1
      vertex 261.4 121.4 5
      vertex 261.4 121.4 1
    endloop
  endfacet
  facet normal -1 -0 0
    outer loop
      vertex 261.4 121.4 5
      vertex 261.4 84 1
      vertex 261.4 84 5
    endloop
  endfacet
  facet normal 0 1 -0
    outer loop
      vertex 261.4 84 1
      vertex 224 84 5
      vertex 261.4 84 5
    endloop
  endfacet
  facet normal 0 1 0
    outer loop
      vertex 224 84 5
      vertex 261.4 84 1
      vertex 224 84 1
    endloop
  endfacet
  facet normal 0 -1 0
    outer loop
      vertex 224 121.4 1
      vertex 261.4 121.4 5
      vertex 224 121.4 5
    endloop
  endfacet
  facet normal 0 -1 -0
    outer loop
      vertex 261.4 121.4 5
      vertex 224 121.4 1
      vertex 261.4 121.4 1
    endloop
  endfacet
endsolid OpenSCAD_Model
