solid OpenSCAD_Model
  facet normal 1 -0 0
    outer loop
      vertex 0.9 0.9 21
      vertex 0.9 40.9 1
      vertex 0.9 40.9 21
    endloop
  endfacet
  facet normal 1 0 0
    outer loop
      vertex 0.9 40.9 1
      vertex 0.9 0.9 21
      vertex 0.9 0.9 1
    endloop
  endfacet
  facet normal -0 0 1
    outer loop
      vertex 0.9 41.8 21
      vertex 40.9 40.9 21
      vertex 40.9 41.8 21
    endloop
  endfacet
  facet normal 0 0 1
    outer loop
      vertex 40.9 40.9 21
      vertex 0.9 41.8 21
      vertex 0.9 40.9 21
    endloop
  endfacet
  facet normal -0 0 1
    outer loop
      vertex 0.9 82.7 21
      vertex 40.9 81.8 21
      vertex 40.9 82.7 21
    endloop
  endfacet
  facet normal 0 0 1
    outer loop
      vertex 40.9 81.8 21
      vertex 0.9 82.7 21
      vertex 0.9 81.8 21
    endloop
  endfacet
  facet normal -0 0 1
    outer loop
      vertex 41.8 41.8 21
      vertex 81.8 40.9 21
      vertex 81.8 41.8 21
    endloop
  endfacet
  facet normal 0 0 1
    outer loop
      vertex 81.8 40.9 21
      vertex 41.8 41.8 21
      vertex 41.8 40.9 21
    endloop
  endfacet
  facet normal -0 0 1
    outer loop
      vertex 41.8 82.7 21
      vertex 81.8 81.8 21
      vertex 81.8 82.7 21
    endloop
  endfacet
  facet normal 0 0 1
    outer loop
      vertex 81.8 81.8 21
      vertex 41.8 82.7 21
      vertex 41.8 81.8 21
    endloop
  endfacet
  facet normal -0 0 1
    outer loop
      vertex 82.7 41.8 21
      vertex 122.7 40.9 21
      vertex 122.7 41.8 21
    endloop
  endfacet
  facet normal 0 0 1
    outer loop
      vertex 122.7 40.9 21
      vertex 82.7 41.8 21
      vertex 82.7 40.9 21
    endloop
  endfacet
  facet normal -0 0 1
    outer loop
      vertex 82.7 82.7 21
      vertex 122.7 81.8 21
      vertex 122.7 82.7 21
    endloop
  endfacet
  facet normal 0 0 1
    outer loop
      vertex 122.7 81.8 21
      vertex 82.7 82.7 21
      vertex 82.7 81.8 21
    endloop
  endfacet
  facet normal 0 0 1
    outer loop
      vertex 122.7 82.7 21
      vertex 123.6 123.6 21
      vertex 122.7 122.7 21
    endloop
  endfacet
  facet normal 0 0 1
    outer loop
      vertex 123.6 123.6 21
      vertex 82.7 122.7 21
      vertex 122.7 122.7 21
    endloop
  endfacet
  facet normal 0 0 1
    outer loop
      vertex 81.8 82.7 21
      vertex 82.7 82.7 21
      vertex 82.7 122.7 21
    endloop
  endfacet
  facet normal 0 0 1
    outer loop
      vertex 82.7 82.7 21
      vertex 81.8 82.7 21
      vertex 82.7 81.8 21
    endloop
  endfacet
  facet normal 0 0 1
    outer loop
      vertex 82.7 81.8 21
      vertex 81.8 81.8 21
      vertex 82.7 41.8 21
    endloop
  endfacet
  facet normal 0 0 1
    outer loop
      vertex 81.8 41.8 21
      vertex 82.7 41.8 21
      vertex 81.8 81.8 21
    endloop
  endfacet
  facet normal 0 0 1
    outer loop
      vertex 81.8 82.7 21
      vertex 82.7 122.7 21
      vertex 81.8 122.7 21
    endloop
  endfacet
  facet normal 0 0 1
    outer loop
      vertex 123.6 123.6 21
      vertex 81.8 122.7 21
      vertex 82.7 122.7 21
    endloop
  endfacet
  facet normal 0 0 1
    outer loop
      vertex 123.6 123.6 21
      vertex 41.8 122.7 21
      vertex 81.8 122.7 21
    endloop
  endfacet
  facet normal 0 0 1
    outer loop
      vertex 40.9 82.7 21
      vertex 41.8 82.7 21
      vertex 41.8 122.7 21
    endloop
  endfacet
  facet normal 0 0 1
    outer loop
      vertex 41.8 82.7 21
      vertex 40.9 82.7 21
      vertex 41.8 81.8 21
    endloop
  endfacet
  facet normal 0 0 1
    outer loop
      vertex 41.8 81.8 21
      vertex 40.9 81.8 21
      vertex 41.8 41.8 21
    endloop
  endfacet
  facet normal 0 0 1
    outer loop
      vertex 40.9 41.8 21
      vertex 41.8 41.8 21
      vertex 40.9 81.8 21
    endloop
  endfacet
  facet normal 0 0 1
    outer loop
      vertex 40.9 82.7 21
      vertex 41.8 122.7 21
      vertex 40.9 122.7 21
    endloop
  endfacet
  facet normal -0 0 1
    outer loop
      vertex 0 123.6 21
      vertex 41.8 122.7 21
      vertex 123.6 123.6 21
    endloop
  endfacet
  facet normal 0 0 1
    outer loop
      vertex 41.8 122.7 21
      vertex 0 123.6 21
      vertex 40.9 122.7 21
    endloop
  endfacet
  facet normal 0 0 1
    outer loop
      vertex 0 123.6 21
      vertex 0.9 82.7 21
      vertex 0.9 122.7 21
    endloop
  endfacet
  facet normal 0 0 1
    outer loop
      vertex 0.9 82.7 21
      vertex 0 123.6 21
      vertex 0.9 81.8 21
    endloop
  endfacet
  facet normal 0 0 1
    outer loop
      vertex 0.9 81.8 21
      vertex 0 123.6 21
      vertex 0.9 41.8 21
    endloop
  endfacet
  facet normal 0 0 1
    outer loop
      vertex 0 0 21
      vertex 0.9 41.8 21
      vertex 0 123.6 21
    endloop
  endfacet
  facet normal 0 0 1
    outer loop
      vertex 0.9 41.8 21
      vertex 0 0 21
      vertex 0.9 40.9 21
    endloop
  endfacet
  facet normal 0 0 1
    outer loop
      vertex 40.9 122.7 21
      vertex 0 123.6 21
      vertex 0.9 122.7 21
    endloop
  endfacet
  facet normal 0 0 1
    outer loop
      vertex 122.7 81.8 21
      vertex 123.6 123.6 21
      vertex 122.7 82.7 21
    endloop
  endfacet
  facet normal 0 0 1
    outer loop
      vertex 123.6 123.6 21
      vertex 122.7 81.8 21
      vertex 123.6 0 21
    endloop
  endfacet
  facet normal -0 0 1
    outer loop
      vertex 122.7 41.8 21
      vertex 123.6 0 21
      vertex 122.7 81.8 21
    endloop
  endfacet
  facet normal -0 0 1
    outer loop
      vertex 122.7 40.9 21
      vertex 123.6 0 21
      vertex 122.7 41.8 21
    endloop
  endfacet
  facet normal -0 0 1
    outer loop
      vertex 122.7 0.9 21
      vertex 123.6 0 21
      vertex 122.7 40.9 21
    endloop
  endfacet
  facet normal -0 0 1
    outer loop
      vertex 82.7 0.9 21
      vertex 123.6 0 21
      vertex 122.7 0.9 21
    endloop
  endfacet
  facet normal 0 0 1
    outer loop
      vertex 82.7 81.8 21
      vertex 81.8 82.7 21
      vertex 81.8 81.8 21
    endloop
  endfacet
  facet normal 0 0 1
    outer loop
      vertex 82.7 41.8 21
      vertex 81.8 41.8 21
      vertex 82.7 40.9 21
    endloop
  endfacet
  facet normal 0 0 1
    outer loop
      vertex 81.8 40.9 21
      vertex 82.7 40.9 21
      vertex 81.8 41.8 21
    endloop
  endfacet
  facet normal 0 0 1
    outer loop
      vertex 82.7 40.9 21
      vertex 81.8 40.9 21
      vertex 82.7 0.9 21
    endloop
  endfacet
  facet normal 0 0 1
    outer loop
      vertex 81.8 0.9 21
      vertex 82.7 0.9 21
      vertex 81.8 40.9 21
    endloop
  endfacet
  facet normal -0 0 1
    outer loop
      vertex 81.8 0.9 21
      vertex 123.6 0 21
      vertex 82.7 0.9 21
    endloop
  endfacet
  facet normal -0 0 1
    outer loop
      vertex 41.8 0.9 21
      vertex 123.6 0 21
      vertex 81.8 0.9 21
    endloop
  endfacet
  facet normal 0 0 1
    outer loop
      vertex 41.8 81.8 21
      vertex 40.9 82.7 21
      vertex 40.9 81.8 21
    endloop
  endfacet
  facet normal 0 0 1
    outer loop
      vertex 41.8 41.8 21
      vertex 40.9 41.8 21
      vertex 41.8 40.9 21
    endloop
  endfacet
  facet normal 0 0 1
    outer loop
      vertex 40.9 40.9 21
      vertex 41.8 40.9 21
      vertex 40.9 41.8 21
    endloop
  endfacet
  facet normal 0 0 1
    outer loop
      vertex 41.8 40.9 21
      vertex 40.9 40.9 21
      vertex 41.8 0.9 21
    endloop
  endfacet
  facet normal 0 0 1
    outer loop
      vertex 40.9 0.9 21
      vertex 41.8 0.9 21
      vertex 40.9 40.9 21
    endloop
  endfacet
  facet normal 0 0 1
    outer loop
      vertex 0 0 21
      vertex 41.8 0.9 21
      vertex 40.9 0.9 21
    endloop
  endfacet
  facet normal 0 0 1
    outer loop
      vertex 0 0 21
      vertex 40.9 0.9 21
      vertex 0.9 0.9 21
    endloop
  endfacet
  facet normal 0 0 1
    outer loop
      vertex 41.8 0.9 21
      vertex 0 0 21
      vertex 123.6 0 21
    endloop
  endfacet
  facet normal 0 0 1
    outer loop
      vertex 0.9 40.9 21
      vertex 0 0 21
      vertex 0.9 0.9 21
    endloop
  endfacet
  facet normal -1 0 0
    outer loop
      vertex 40.9 0.9 1
      vertex 40.9 40.9 21
      vertex 40.9 40.9 1
    endloop
  endfacet
  facet normal -1 -0 0
    outer loop
      vertex 40.9 40.9 21
      vertex 40.9 0.9 1
      vertex 40.9 0.9 21
    endloop
  endfacet
  facet normal 0 -1 0
    outer loop
      vertex 0.9 40.9 1
      vertex 40.9 40.9 21
      vertex 0.9 40.9 21
    endloop
  endfacet
  facet normal 0 -1 -0
    outer loop
      vertex 40.9 40.9 21
      vertex 0.9 40.9 1
      vertex 40.9 40.9 1
    endloop
  endfacet
  facet normal -0 0 1
    outer loop
      vertex 0.9 40.9 1
      vertex 40.9 0.9 1
      vertex 40.9 40.9 1
    endloop
  endfacet
  facet normal 0 0 1
    outer loop
      vertex 40.9 0.9 1
      vertex 0.9 40.9 1
      vertex 0.9 0.9 1
    endloop
  endfacet
  facet normal 0 1 -0
    outer loop
      vertex 40.9 0.9 1
      vertex 0.9 0.9 21
      vertex 40.9 0.9 21
    endloop
  endfacet
  facet normal 0 1 0
    outer loop
      vertex 0.9 0.9 21
      vertex 40.9 0.9 1
      vertex 0.9 0.9 1
    endloop
  endfacet
  facet normal 1 -0 0
    outer loop
      vertex 0.9 41.8 21
      vertex 0.9 81.8 1
      vertex 0.9 81.8 21
    endloop
  endfacet
  facet normal 1 0 0
    outer loop
      vertex 0.9 81.8 1
      vertex 0.9 41.8 21
      vertex 0.9 41.8 1
    endloop
  endfacet
  facet normal -1 0 0
    outer loop
      vertex 40.9 41.8 1
      vertex 40.9 81.8 21
      vertex 40.9 81.8 1
    endloop
  endfacet
  facet normal -1 -0 0
    outer loop
      vertex 40.9 81.8 21
      vertex 40.9 41.8 1
      vertex 40.9 41.8 21
    endloop
  endfacet
  facet normal -0 0 1
    outer loop
      vertex 0.9 81.8 1
      vertex 40.9 41.8 1
      vertex 40.9 81.8 1
    endloop
  endfacet
  facet normal 0 0 1
    outer loop
      vertex 40.9 41.8 1
      vertex 0.9 81.8 1
      vertex 0.9 41.8 1
    endloop
  endfacet
  facet normal 0 1 -0
    outer loop
      vertex 40.9 41.8 1
      vertex 0.9 41.8 21
      vertex 40.9 41.8 21
    endloop
  endfacet
  facet normal 0 1 0
    outer loop
      vertex 0.9 41.8 21
      vertex 40.9 41.8 1
      vertex 0.9 41.8 1
    endloop
  endfacet
  facet normal 0 -1 0
    outer loop
      vertex 0.9 81.8 1
      vertex 40.9 81.8 21
      vertex 0.9 81.8 21
    endloop
  endfacet
  facet normal 0 -1 -0
    outer loop
      vertex 40.9 81.8 21
      vertex 0.9 81.8 1
      vertex 40.9 81.8 1
    endloop
  endfacet
  facet normal 1 -0 0
    outer loop
      vertex 0.9 82.7 21
      vertex 0.9 122.7 1
      vertex 0.9 122.7 21
    endloop
  endfacet
  facet normal 1 0 0
    outer loop
      vertex 0.9 122.7 1
      vertex 0.9 82.7 21
      vertex 0.9 82.7 1
    endloop
  endfacet
  facet normal -1 0 0
    outer loop
      vertex 40.9 82.7 1
      vertex 40.9 122.7 21
      vertex 40.9 122.7 1
    endloop
  endfacet
  facet normal -1 -0 0
    outer loop
      vertex 40.9 122.7 21
      vertex 40.9 82.7 1
      vertex 40.9 82.7 21
    endloop
  endfacet
  facet normal 0 -1 0
    outer loop
      vertex 0.9 122.7 1
      vertex 40.9 122.7 21
      vertex 0.9 122.7 21
    endloop
  endfacet
  facet normal 0 -1 -0
    outer loop
      vertex 40.9 122.7 21
      vertex 0.9 122.7 1
      vertex 40.9 122.7 1
    endloop
  endfacet
  facet normal -0 0 1
    outer loop
      vertex 0.9 122.7 1
      vertex 40.9 82.7 1
      vertex 40.9 122.7 1
    endloop
  endfacet
  facet normal 0 0 1
    outer loop
      vertex 40.9 82.7 1
      vertex 0.9 122.7 1
      vertex 0.9 82.7 1
    endloop
  endfacet
  facet normal 0 1 -0
    outer loop
      vertex 40.9 82.7 1
      vertex 0.9 82.7 21
      vertex 40.9 82.7 21
    endloop
  endfacet
  facet normal 0 1 0
    outer loop
      vertex 0.9 82.7 21
      vertex 40.9 82.7 1
      vertex 0.9 82.7 1
    endloop
  endfacet
  facet normal 1 -0 0
    outer loop
      vertex 41.8 0.9 21
      vertex 41.8 40.9 1
      vertex 41.8 40.9 21
    endloop
  endfacet
  facet normal 1 0 0
    outer loop
      vertex 41.8 40.9 1
      vertex 41.8 0.9 21
      vertex 41.8 0.9 1
    endloop
  endfacet
  facet normal -1 0 0
    outer loop
      vertex 81.8 0.9 1
      vertex 81.8 40.9 21
      vertex 81.8 40.9 1
    endloop
  endfacet
  facet normal -1 -0 0
    outer loop
      vertex 81.8 40.9 21
      vertex 81.8 0.9 1
      vertex 81.8 0.9 21
    endloop
  endfacet
  facet normal 0 -1 0
    outer loop
      vertex 41.8 40.9 1
      vertex 81.8 40.9 21
      vertex 41.8 40.9 21
    endloop
  endfacet
  facet normal 0 -1 -0
    outer loop
      vertex 81.8 40.9 21
      vertex 41.8 40.9 1
      vertex 81.8 40.9 1
    endloop
  endfacet
  facet normal -0 0 1
    outer loop
      vertex 41.8 40.9 1
      vertex 81.8 0.9 1
      vertex 81.8 40.9 1
    endloop
  endfacet
  facet normal 0 0 1
    outer loop
      vertex 81.8 0.9 1
      vertex 41.8 40.9 1
      vertex 41.8 0.9 1
    endloop
  endfacet
  facet normal 0 1 -0
    outer loop
      vertex 81.8 0.9 1
      vertex 41.8 0.9 21
      vertex 81.8 0.9 21
    endloop
  endfacet
  facet normal 0 1 0
    outer loop
      vertex 41.8 0.9 21
      vertex 81.8 0.9 1
      vertex 41.8 0.9 1
    endloop
  endfacet
  facet normal 1 -0 0
    outer loop
      vertex 41.8 41.8 21
      vertex 41.8 81.8 1
      vertex 41.8 81.8 21
    endloop
  endfacet
  facet normal 1 0 0
    outer loop
      vertex 41.8 81.8 1
      vertex 41.8 41.8 21
      vertex 41.8 41.8 1
    endloop
  endfacet
  facet normal -1 0 0
    outer loop
      vertex 81.8 41.8 1
      vertex 81.8 81.8 21
      vertex 81.8 81.8 1
    endloop
  endfacet
  facet normal -1 -0 0
    outer loop
      vertex 81.8 81.8 21
      vertex 81.8 41.8 1
      vertex 81.8 41.8 21
    endloop
  endfacet
  facet normal 0 -1 0
    outer loop
      vertex 41.8 81.8 1
      vertex 81.8 81.8 21
      vertex 41.8 81.8 21
    endloop
  endfacet
  facet normal 0 -1 -0
    outer loop
      vertex 81.8 81.8 21
      vertex 41.8 81.8 1
      vertex 81.8 81.8 1
    endloop
  endfacet
  facet normal -0 0 1
    outer loop
      vertex 41.8 81.8 1
      vertex 81.8 41.8 1
      vertex 81.8 81.8 1
    endloop
  endfacet
  facet normal 0 0 1
    outer loop
      vertex 81.8 41.8 1
      vertex 41.8 81.8 1
      vertex 41.8 41.8 1
    endloop
  endfacet
  facet normal 0 1 -0
    outer loop
      vertex 81.8 41.8 1
      vertex 41.8 41.8 21
      vertex 81.8 41.8 21
    endloop
  endfacet
  facet normal 0 1 0
    outer loop
      vertex 41.8 41.8 21
      vertex 81.8 41.8 1
      vertex 41.8 41.8 1
    endloop
  endfacet
  facet normal 1 -0 0
    outer loop
      vertex 41.8 82.7 21
      vertex 41.8 122.7 1
      vertex 41.8 122.7 21
    endloop
  endfacet
  facet normal 1 0 0
    outer loop
      vertex 41.8 122.7 1
      vertex 41.8 82.7 21
      vertex 41.8 82.7 1
    endloop
  endfacet
  facet normal -1 0 0
    outer loop
      vertex 81.8 82.7 1
      vertex 81.8 122.7 21
      vertex 81.8 122.7 1
    endloop
  endfacet
  facet normal -1 -0 0
    outer loop
      vertex 81.8 122.7 21
      vertex 81.8 82.7 1
      vertex 81.8 82.7 21
    endloop
  endfacet
  facet normal -0 0 1
    outer loop
      vertex 41.8 122.7 1
      vertex 81.8 82.7 1
      vertex 81.8 122.7 1
    endloop
  endfacet
  facet normal 0 0 1
    outer loop
      vertex 81.8 82.7 1
      vertex 41.8 122.7 1
      vertex 41.8 82.7 1
    endloop
  endfacet
  facet normal 0 1 -0
    outer loop
      vertex 81.8 82.7 1
      vertex 41.8 82.7 21
      vertex 81.8 82.7 21
    endloop
  endfacet
  facet normal 0 1 0
    outer loop
      vertex 41.8 82.7 21
      vertex 81.8 82.7 1
      vertex 41.8 82.7 1
    endloop
  endfacet
  facet normal 0 -1 0
    outer loop
      vertex 41.8 122.7 1
      vertex 81.8 122.7 21
      vertex 41.8 122.7 21
    endloop
  endfacet
  facet normal 0 -1 -0
    outer loop
      vertex 81.8 122.7 21
      vertex 41.8 122.7 1
      vertex 81.8 122.7 1
    endloop
  endfacet
  facet normal 1 -0 0
    outer loop
      vertex 82.7 0.9 21
      vertex 82.7 40.9 1
      vertex 82.7 40.9 21
    endloop
  endfacet
  facet normal 1 0 0
    outer loop
      vertex 82.7 40.9 1
      vertex 82.7 0.9 21
      vertex 82.7 0.9 1
    endloop
  endfacet
  facet normal -1 0 0
    outer loop
      vertex 122.7 0.9 1
      vertex 122.7 40.9 21
      vertex 122.7 40.9 1
    endloop
  endfacet
  facet normal -1 -0 0
    outer loop
      vertex 122.7 40.9 21
      vertex 122.7 0.9 1
      vertex 122.7 0.9 21
    endloop
  endfacet
  facet normal -0 0 1
    outer loop
      vertex 82.7 40.9 1
      vertex 122.7 0.9 1
      vertex 122.7 40.9 1
    endloop
  endfacet
  facet normal 0 0 1
    outer loop
      vertex 122.7 0.9 1
      vertex 82.7 40.9 1
      vertex 82.7 0.9 1
    endloop
  endfacet
  facet normal 0 1 -0
    outer loop
      vertex 122.7 0.9 1
      vertex 82.7 0.9 21
      vertex 122.7 0.9 21
    endloop
  endfacet
  facet normal 0 1 0
    outer loop
      vertex 82.7 0.9 21
      vertex 122.7 0.9 1
      vertex 82.7 0.9 1
    endloop
  endfacet
  facet normal 0 -1 0
    outer loop
      vertex 82.7 40.9 1
      vertex 122.7 40.9 21
      vertex 82.7 40.9 21
    endloop
  endfacet
  facet normal 0 -1 -0
    outer loop
      vertex 122.7 40.9 21
      vertex 82.7 40.9 1
      vertex 122.7 40.9 1
    endloop
  endfacet
  facet normal 1 -0 0
    outer loop
      vertex 82.7 41.8 21
      vertex 82.7 81.8 1
      vertex 82.7 81.8 21
    endloop
  endfacet
  facet normal 1 0 0
    outer loop
      vertex 82.7 81.8 1
      vertex 82.7 41.8 21
      vertex 82.7 41.8 1
    endloop
  endfacet
  facet normal -1 0 0
    outer loop
      vertex 122.7 41.8 1
      vertex 122.7 81.8 21
      vertex 122.7 81.8 1
    endloop
  endfacet
  facet normal -1 -0 0
    outer loop
      vertex 122.7 81.8 21
      vertex 122.7 41.8 1
      vertex 122.7 41.8 21
    endloop
  endfacet
  facet normal 0 -1 0
    outer loop
      vertex 82.7 81.8 1
      vertex 122.7 81.8 21
      vertex 82.7 81.8 21
    endloop
  endfacet
  facet normal 0 -1 -0
    outer loop
      vertex 122.7 81.8 21
      vertex 82.7 81.8 1
      vertex 122.7 81.8 1
    endloop
  endfacet
  facet normal -0 0 1
    outer loop
      vertex 82.7 81.8 1
      vertex 122.7 41.8 1
      vertex 122.7 81.8 1
    endloop
  endfacet
  facet normal 0 0 1
    outer loop
      vertex 122.7 41.8 1
      vertex 82.7 81.8 1
      vertex 82.7 41.8 1
    endloop
  endfacet
  facet normal 0 1 -0
    outer loop
      vertex 122.7 41.8 1
      vertex 82.7 41.8 21
      vertex 122.7 41.8 21
    endloop
  endfacet
  facet normal 0 1 0
    outer loop
      vertex 82.7 41.8 21
      vertex 122.7 41.8 1
      vertex 82.7 41.8 1
    endloop
  endfacet
  facet normal 1 -0 0
    outer loop
      vertex 82.7 82.7 21
      vertex 82.7 122.7 1
      vertex 82.7 122.7 21
    endloop
  endfacet
  facet normal 1 0 0
    outer loop
      vertex 82.7 122.7 1
      vertex 82.7 82.7 21
      vertex 82.7 82.7 1
    endloop
  endfacet
  facet normal -1 0 0
    outer loop
      vertex 122.7 82.7 1
      vertex 122.7 122.7 21
      vertex 122.7 122.7 1
    endloop
  endfacet
  facet normal -1 -0 0
    outer loop
      vertex 122.7 122.7 21
      vertex 122.7 82.7 1
      vertex 122.7 82.7 21
    endloop
  endfacet
  facet normal 0 -1 0
    outer loop
      vertex 82.7 122.7 1
      vertex 122.7 122.7 21
      vertex 82.7 122.7 21
    endloop
  endfacet
  facet normal 0 -1 -0
    outer loop
      vertex 122.7 122.7 21
      vertex 82.7 122.7 1
      vertex 122.7 122.7 1
    endloop
  endfacet
  facet normal -0 0 1
    outer loop
      vertex 82.7 122.7 1
      vertex 122.7 82.7 1
      vertex 122.7 122.7 1
    endloop
  endfacet
  facet normal 0 0 1
    outer loop
      vertex 122.7 82.7 1
      vertex 82.7 122.7 1
      vertex 82.7 82.7 1
    endloop
  endfacet
  facet normal 0 1 -0
    outer loop
      vertex 122.7 82.7 1
      vertex 82.7 82.7 21
      vertex 122.7 82.7 21
    endloop
  endfacet
  facet normal 0 1 0
    outer loop
      vertex 82.7 82.7 21
      vertex 122.7 82.7 1
      vertex 82.7 82.7 1
    endloop
  endfacet
  facet normal -1 0 0
    outer loop
      vertex 0 0 0
      vertex 0 123.6 21
      vertex 0 123.6 0
    endloop
  endfacet
  facet normal -1 -0 0
    outer loop
      vertex 0 123.6 21
      vertex 0 0 0
      vertex 0 0 21
    endloop
  endfacet
  facet normal 1 -0 0
    outer loop
      vertex 123.6 0 21
      vertex 123.6 123.6 0
      vertex 123.6 123.6 21
    endloop
  endfacet
  facet normal 1 0 0
    outer loop
      vertex 123.6 123.6 0
      vertex 123.6 0 21
      vertex 123.6 0 0
    endloop
  endfacet
  facet normal 0 1 -0
    outer loop
      vertex 123.6 123.6 0
      vertex 0 123.6 21
      vertex 123.6 123.6 21
    endloop
  endfacet
  facet normal 0 1 0
    outer loop
      vertex 0 123.6 21
      vertex 123.6 123.6 0
      vertex 0 123.6 0
    endloop
  endfacet
  facet normal 0 0 -1
    outer loop
      vertex 0 0 0
      vertex 123.6 123.6 0
      vertex 123.6 0 0
    endloop
  endfacet
  facet normal -0 0 -1
    outer loop
      vertex 123.6 123.6 0
      vertex 0 0 0
      vertex 0 123.6 0
    endloop
  endfacet
  facet normal 0 -1 0
    outer loop
      vertex 0 0 0
      vertex 123.6 0 21
      vertex 0 0 21
    endloop
  endfacet
  facet normal 0 -1 -0
    outer loop
      vertex 123.6 0 21
      vertex 0 0 0
      vertex 123.6 0 0
    endloop
  endfacet
endsolid OpenSCAD_Model
