solid OpenSCAD_Model
  facet normal 0.997788 -0.0664767 0
    outer loop
      vertex 4.637 49.24 -1
      vertex 4.95 53.938 -1
      vertex 4.95 53.938 1
    endloop
  endfacet
  facet normal 0.997788 -0.0664767 0
    outer loop
      vertex 4.637 49.24 1
      vertex 4.637 49.24 -1
      vertex 4.95 53.938 1
    endloop
  endfacet
  facet normal 0 0 -1
    outer loop
      vertex 0.243 51.834 -1
      vertex 0.974 59.075 -1
      vertex -0.001 44.143 -1
    endloop
  endfacet
  facet normal 0 0 -1
    outer loop
      vertex -0.001 44.143 -1
      vertex 0.974 59.075 -1
      vertex 1.377 61.59 -1
    endloop
  endfacet
  facet normal 0 0 -1
    outer loop
      vertex -0.001 44.143 -1
      vertex 1.377 61.59 -1
      vertex 1.891 64.408 -1
    endloop
  endfacet
  facet normal 0 0 -1
    outer loop
      vertex -0.001 44.143 -1
      vertex 1.891 64.408 -1
      vertex 2.362 66.734 -1
    endloop
  endfacet
  facet normal 0 0 -1
    outer loop
      vertex -0.001 44.143 -1
      vertex 2.362 66.734 -1
      vertex 2.639 67.77 -1
    endloop
  endfacet
  facet normal 0 0 -1
    outer loop
      vertex -0.001 44.143 -1
      vertex 2.639 67.77 -1
      vertex 2.881 67.837 -1
    endloop
  endfacet
  facet normal 0 0 -1
    outer loop
      vertex -0.001 44.143 -1
      vertex 2.881 67.837 -1
      vertex 3.503 67.976 -1
    endloop
  endfacet
  facet normal 0 0 -1
    outer loop
      vertex -0.001 44.143 -1
      vertex 3.503 67.976 -1
      vertex 4.406 68.169 -1
    endloop
  endfacet
  facet normal 0 0 -1
    outer loop
      vertex -0.001 44.143 -1
      vertex 4.406 68.169 -1
      vertex 5.49 68.392 -1
    endloop
  endfacet
  facet normal 0 0 -1
    outer loop
      vertex 6.478 64.072 -1
      vertex 5.49 68.392 -1
      vertex 8.559 68.887 -1
    endloop
  endfacet
  facet normal 0 0 -1
    outer loop
      vertex 9.922 64.525 -1
      vertex 8.559 68.887 -1
      vertex 12.302 69.362 -1
    endloop
  endfacet
  facet normal 0 0 -1
    outer loop
      vertex 12.644 64.849 -1
      vertex 12.302 69.362 -1
      vertex 16.338 69.769 -1
    endloop
  endfacet
  facet normal 0 0 -1
    outer loop
      vertex 15.831 65.168 -1
      vertex 16.338 69.769 -1
      vertex 20.281 70.055 -1
    endloop
  endfacet
  facet normal 0 0 -1
    outer loop
      vertex 22.397 65.682 -1
      vertex 20.281 70.055 -1
      vertex 27.678 70.309 -1
    endloop
  endfacet
  facet normal 0 0 -1
    outer loop
      vertex 26.983 65.748 -1
      vertex 27.678 70.309 -1
      vertex 35.578 70.269 -1
    endloop
  endfacet
  facet normal 0 0 -1
    outer loop
      vertex 34.111 65.676 -1
      vertex 35.578 70.269 -1
      vertex 43.309 69.955 -1
    endloop
  endfacet
  facet normal 0 0 -1
    outer loop
      vertex 41.258 65.508 -1
      vertex 43.309 69.955 -1
      vertex 50.199 69.379 -1
    endloop
  endfacet
  facet normal 0 0 -1
    outer loop
      vertex 44.053 65.402 -1
      vertex 50.199 69.379 -1
      vertex 52.965 69.023 -1
    endloop
  endfacet
  facet normal 0 0 -1
    outer loop
      vertex 45.909 65.287 -1
      vertex 52.965 69.023 -1
      vertex 55.664 68.628 -1
    endloop
  endfacet
  facet normal 0 0 -1
    outer loop
      vertex 49.317 64.924 -1
      vertex 55.664 68.628 -1
      vertex 57.904 68.249 -1
    endloop
  endfacet
  facet normal 0 0 -1
    outer loop
      vertex 56.362 29.117 -1
      vertex 59.782 24.861 -1
      vertex 54.394 23.767 -1
    endloop
  endfacet
  facet normal 0 0 -1
    outer loop
      vertex 52.684 64.496 -1
      vertex 59.289 67.939 -1
      vertex 59.971 66.652 -1
    endloop
  endfacet
  facet normal 0 0 -1
    outer loop
      vertex 56.325 62.323 -1
      vertex 59.971 66.652 -1
      vertex 60.723 63.499 -1
    endloop
  endfacet
  facet normal 0 0 -1
    outer loop
      vertex 57.196 56.191 -1
      vertex 61.451 58.975 -1
      vertex 62.054 53.573 -1
    endloop
  endfacet
  facet normal 0 0 -1
    outer loop
      vertex 57.196 56.191 -1
      vertex 62.26 49.59 -1
      vertex 57.704 48.905 -1
    endloop
  endfacet
  facet normal 0 0 -1
    outer loop
      vertex 57.704 48.905 -1
      vertex 62.26 49.59 -1
      vertex 62.326 44.482 -1
    endloop
  endfacet
  facet normal 0 0 -1
    outer loop
      vertex 57.804 41.52 -1
      vertex 62.326 44.482 -1
      vertex 62.249 39.368 -1
    endloop
  endfacet
  facet normal 0 0 -1
    outer loop
      vertex 57.453 35.085 -1
      vertex 62.027 35.367 -1
      vertex 61.55 31.379 -1
    endloop
  endfacet
  facet normal 0 0 -1
    outer loop
      vertex 56.362 29.117 -1
      vertex 60.843 28.032 -1
      vertex 59.782 24.861 -1
    endloop
  endfacet
  facet normal 0 0 -1
    outer loop
      vertex 54.394 23.767 -1
      vertex 59.782 24.861 -1
      vertex 58.244 21.395 -1
    endloop
  endfacet
  facet normal 0 0 -1
    outer loop
      vertex 51.479 18.883 -1
      vertex 58.244 21.395 -1
      vertex 54.842 15.683 -1
    endloop
  endfacet
  facet normal 0 0 -1
    outer loop
      vertex 47.546 14.311 -1
      vertex 54.842 15.683 -1
      vertex 50.341 10.585 -1
    endloop
  endfacet
  facet normal 0 0 -1
    outer loop
      vertex 47.546 14.311 -1
      vertex 46.801 7.527 -1
      vertex 40.892 9.019 -1
    endloop
  endfacet
  facet normal 0 0 -1
    outer loop
      vertex 40.892 9.019 -1
      vertex 46.801 7.527 -1
      vertex 43.006 4.936 -1
    endloop
  endfacet
  facet normal 0 0 -1
    outer loop
      vertex 33.179 5.42 -1
      vertex 38.897 2.785 -1
      vertex 34.422 1.043 -1
    endloop
  endfacet
  facet normal 0 0 -1
    outer loop
      vertex 26.93 6.342 -1
      vertex 34.422 1.043 -1
      vertex 31.259 -0.001 -1
    endloop
  endfacet
  facet normal 0 0 -1
    outer loop
      vertex 24.146 7.649 -1
      vertex 31.259 -0.001 -1
      vertex 27.958 1.072 -1
    endloop
  endfacet
  facet normal 0 0 -1
    outer loop
      vertex 19.151 10.557 -1
      vertex 27.958 1.072 -1
      vertex 22.065 3.486 -1
    endloop
  endfacet
  facet normal 0 0 -1
    outer loop
      vertex 14.846 14.223 -1
      vertex 22.065 3.486 -1
      vertex 16.749 6.634 -1
    endloop
  endfacet
  facet normal 0 0 -1
    outer loop
      vertex 8.121 23.636 -1
      vertex 16.749 6.634 -1
      vertex 12.061 10.481 -1
    endloop
  endfacet
  facet normal 0 0 -1
    outer loop
      vertex -0.001 44.143 -1
      vertex 12.061 10.481 -1
      vertex 8.059 14.989 -1
    endloop
  endfacet
  facet normal 0 0 -1
    outer loop
      vertex -0.001 44.143 -1
      vertex 8.059 14.989 -1
      vertex 5.625 18.663 -1
    endloop
  endfacet
  facet normal 0 0 -1
    outer loop
      vertex -0.001 44.143 -1
      vertex 5.625 18.663 -1
      vertex 3.564 22.638 -1
    endloop
  endfacet
  facet normal 0 0 -1
    outer loop
      vertex -0.001 44.143 -1
      vertex 3.564 22.638 -1
      vertex 1.977 26.698 -1
    endloop
  endfacet
  facet normal 0 0 -1
    outer loop
      vertex -0.001 44.143 -1
      vertex 1.977 26.698 -1
      vertex 0.974 30.626 -1
    endloop
  endfacet
  facet normal 0 0 -1
    outer loop
      vertex -0.001 44.143 -1
      vertex 0.974 30.626 -1
      vertex 0.243 36.806 -1
    endloop
  endfacet
  facet normal 0 0 -1
    outer loop
      vertex 4.607 39.975 -1
      vertex -0.001 44.143 -1
      vertex 4.523 44.53 -1
    endloop
  endfacet
  facet normal 0 0 -1
    outer loop
      vertex 4.889 35.742 -1
      vertex -0.001 44.143 -1
      vertex 4.607 39.975 -1
    endloop
  endfacet
  facet normal 0 0 -1
    outer loop
      vertex 5.372 31.997 -1
      vertex -0.001 44.143 -1
      vertex 4.889 35.742 -1
    endloop
  endfacet
  facet normal 0 0 -1
    outer loop
      vertex 8.121 23.636 -1
      vertex 12.061 10.481 -1
      vertex 6.055 28.904 -1
    endloop
  endfacet
  facet normal 0 0 -1
    outer loop
      vertex -0.001 44.143 -1
      vertex 5.372 31.997 -1
      vertex 6.055 28.904 -1
    endloop
  endfacet
  facet normal 0 0 -1
    outer loop
      vertex -0.001 44.143 -1
      vertex 6.055 28.904 -1
      vertex 12.061 10.481 -1
    endloop
  endfacet
  facet normal 0 0 -1
    outer loop
      vertex 11.11 18.663 -1
      vertex 16.749 6.634 -1
      vertex 8.121 23.636 -1
    endloop
  endfacet
  facet normal 0 0 -1
    outer loop
      vertex 14.846 14.223 -1
      vertex 16.749 6.634 -1
      vertex 11.11 18.663 -1
    endloop
  endfacet
  facet normal 0 0 -1
    outer loop
      vertex 21.405 9.128 -1
      vertex 27.958 1.072 -1
      vertex 19.151 10.557 -1
    endloop
  endfacet
  facet normal 0 0 -1
    outer loop
      vertex 24.146 7.649 -1
      vertex 27.958 1.072 -1
      vertex 21.405 9.128 -1
    endloop
  endfacet
  facet normal 0 0 -1
    outer loop
      vertex 19.151 10.557 -1
      vertex 22.065 3.486 -1
      vertex 14.846 14.223 -1
    endloop
  endfacet
  facet normal 0 0 -1
    outer loop
      vertex 29.312 5.42 -1
      vertex 34.422 1.043 -1
      vertex 26.93 6.342 -1
    endloop
  endfacet
  facet normal 0 0 -1
    outer loop
      vertex 31.232 4.798 -1
      vertex 34.422 1.043 -1
      vertex 29.312 5.42 -1
    endloop
  endfacet
  facet normal 0 0 -1
    outer loop
      vertex 47.546 14.311 -1
      vertex 50.341 10.585 -1
      vertex 46.801 7.527 -1
    endloop
  endfacet
  facet normal 0 0 -1
    outer loop
      vertex 40.892 9.019 -1
      vertex 43.006 4.936 -1
      vertex 38.897 2.785 -1
    endloop
  endfacet
  facet normal 0 0 -1
    outer loop
      vertex 40.892 9.019 -1
      vertex 38.897 2.785 -1
      vertex 33.179 5.42 -1
    endloop
  endfacet
  facet normal 0 0 -1
    outer loop
      vertex 26.93 6.342 -1
      vertex 31.259 -0.001 -1
      vertex 24.146 7.649 -1
    endloop
  endfacet
  facet normal 0 0 -1
    outer loop
      vertex 33.179 5.42 -1
      vertex 34.422 1.043 -1
      vertex 31.232 4.798 -1
    endloop
  endfacet
  facet normal 0 0 -1
    outer loop
      vertex 57.196 56.191 -1
      vertex 62.054 53.573 -1
      vertex 62.26 49.59 -1
    endloop
  endfacet
  facet normal 0 0 -1
    outer loop
      vertex 57.704 48.905 -1
      vertex 62.326 44.482 -1
      vertex 57.804 41.52 -1
    endloop
  endfacet
  facet normal 0 0 -1
    outer loop
      vertex 55.986 64.017 -1
      vertex 59.971 66.652 -1
      vertex 56.325 62.323 -1
    endloop
  endfacet
  facet normal 0 0 -1
    outer loop
      vertex 57.804 41.52 -1
      vertex 62.249 39.368 -1
      vertex 62.027 35.367 -1
    endloop
  endfacet
  facet normal 0 0 -1
    outer loop
      vertex 57.804 41.52 -1
      vertex 62.027 35.367 -1
      vertex 57.453 35.085 -1
    endloop
  endfacet
  facet normal 0 0 -1
    outer loop
      vertex 57.453 35.085 -1
      vertex 60.843 28.032 -1
      vertex 56.362 29.117 -1
    endloop
  endfacet
  facet normal 0 0 -1
    outer loop
      vertex 57.453 35.085 -1
      vertex 61.55 31.379 -1
      vertex 60.843 28.032 -1
    endloop
  endfacet
  facet normal 0 0 -1
    outer loop
      vertex 54.394 23.767 -1
      vertex 58.244 21.395 -1
      vertex 51.479 18.883 -1
    endloop
  endfacet
  facet normal 0 0 -1
    outer loop
      vertex 51.479 18.883 -1
      vertex 54.842 15.683 -1
      vertex 47.546 14.311 -1
    endloop
  endfacet
  facet normal 0 0 -1
    outer loop
      vertex 37.84 65.602 -1
      vertex 43.309 69.955 -1
      vertex 41.258 65.508 -1
    endloop
  endfacet
  facet normal 0 0 -1
    outer loop
      vertex 30.387 65.727 -1
      vertex 35.578 70.269 -1
      vertex 34.111 65.676 -1
    endloop
  endfacet
  facet normal 0 0 -1
    outer loop
      vertex 24.215 65.735 -1
      vertex 27.678 70.309 -1
      vertex 26.983 65.748 -1
    endloop
  endfacet
  facet normal 0 0 -1
    outer loop
      vertex 19.181 65.454 -1
      vertex 20.281 70.055 -1
      vertex 22.397 65.682 -1
    endloop
  endfacet
  facet normal 0 0 -1
    outer loop
      vertex 4.637 49.24 -1
      vertex -0.001 44.143 -1
      vertex 4.95 53.938 -1
    endloop
  endfacet
  facet normal 0 0 -1
    outer loop
      vertex 12.644 64.849 -1
      vertex 16.338 69.769 -1
      vertex 15.831 65.168 -1
    endloop
  endfacet
  facet normal 0 0 -1
    outer loop
      vertex 9.922 64.525 -1
      vertex 12.302 69.362 -1
      vertex 12.644 64.849 -1
    endloop
  endfacet
  facet normal 0 0 -1
    outer loop
      vertex 6.478 64.072 -1
      vertex 8.559 68.887 -1
      vertex 9.922 64.525 -1
    endloop
  endfacet
  facet normal 0 0 -1
    outer loop
      vertex -0.001 44.143 -1
      vertex 5.49 68.392 -1
      vertex 6.478 64.072 -1
    endloop
  endfacet
  facet normal 0 0 -1
    outer loop
      vertex 4.95 53.938 -1
      vertex -0.001 44.143 -1
      vertex 5.46 58.458 -1
    endloop
  endfacet
  facet normal 0 0 -1
    outer loop
      vertex -0.001 44.143 -1
      vertex 6.478 64.072 -1
      vertex 6.167 62.632 -1
    endloop
  endfacet
  facet normal 0 0 -1
    outer loop
      vertex 5.46 58.458 -1
      vertex -0.001 44.143 -1
      vertex 6.167 62.632 -1
    endloop
  endfacet
  facet normal 0 0 -1
    outer loop
      vertex 4.523 44.53 -1
      vertex -0.001 44.143 -1
      vertex 4.637 49.24 -1
    endloop
  endfacet
  facet normal 0 0 -1
    outer loop
      vertex 15.831 65.168 -1
      vertex 20.281 70.055 -1
      vertex 19.181 65.454 -1
    endloop
  endfacet
  facet normal 0 0 -1
    outer loop
      vertex 22.397 65.682 -1
      vertex 27.678 70.309 -1
      vertex 24.215 65.735 -1
    endloop
  endfacet
  facet normal 0 0 -1
    outer loop
      vertex 26.983 65.748 -1
      vertex 35.578 70.269 -1
      vertex 30.387 65.727 -1
    endloop
  endfacet
  facet normal 0 0 -1
    outer loop
      vertex 34.111 65.676 -1
      vertex 43.309 69.955 -1
      vertex 37.84 65.602 -1
    endloop
  endfacet
  facet normal 0 0 -1
    outer loop
      vertex 41.258 65.508 -1
      vertex 50.199 69.379 -1
      vertex 44.053 65.402 -1
    endloop
  endfacet
  facet normal 0 0 -1
    outer loop
      vertex 44.053 65.402 -1
      vertex 52.965 69.023 -1
      vertex 45.909 65.287 -1
    endloop
  endfacet
  facet normal 0 0 -1
    outer loop
      vertex 49.317 64.924 -1
      vertex 57.904 68.249 -1
      vertex 59.289 67.939 -1
    endloop
  endfacet
  facet normal 0 0 -1
    outer loop
      vertex 45.909 65.287 -1
      vertex 55.664 68.628 -1
      vertex 49.317 64.924 -1
    endloop
  endfacet
  facet normal 0 0 -1
    outer loop
      vertex 49.317 64.924 -1
      vertex 59.289 67.939 -1
      vertex 52.684 64.496 -1
    endloop
  endfacet
  facet normal 0 0 -1
    outer loop
      vertex 56.325 62.323 -1
      vertex 60.723 63.499 -1
      vertex 61.451 58.975 -1
    endloop
  endfacet
  facet normal 0 0 -1
    outer loop
      vertex 52.684 64.496 -1
      vertex 59.971 66.652 -1
      vertex 55.986 64.017 -1
    endloop
  endfacet
  facet normal 0 0 -1
    outer loop
      vertex 56.325 62.323 -1
      vertex 61.451 58.975 -1
      vertex 57.196 56.191 -1
    endloop
  endfacet
  facet normal 0.999707 -0.0241967 0
    outer loop
      vertex 4.523 44.53 -1
      vertex 4.637 49.24 -1
      vertex 4.637 49.24 1
    endloop
  endfacet
  facet normal 0.999707 -0.0241967 0
    outer loop
      vertex 4.523 44.53 1
      vertex 4.523 44.53 -1
      vertex 4.637 49.24 1
    endloop
  endfacet
  facet normal 0 0 1
    outer loop
      vertex -0.001 44.143 1
      vertex 0.243 36.806 1
      vertex 0.974 30.626 1
    endloop
  endfacet
  facet normal 0 0 1
    outer loop
      vertex 3.564 22.638 1
      vertex -0.001 44.143 1
      vertex 1.977 26.698 1
    endloop
  endfacet
  facet normal 0 0 1
    outer loop
      vertex 1.977 26.698 1
      vertex -0.001 44.143 1
      vertex 0.974 30.626 1
    endloop
  endfacet
  facet normal 0 0 1
    outer loop
      vertex 5.625 18.663 1
      vertex -0.001 44.143 1
      vertex 3.564 22.638 1
    endloop
  endfacet
  facet normal 0 0 1
    outer loop
      vertex 8.059 14.989 1
      vertex -0.001 44.143 1
      vertex 5.625 18.663 1
    endloop
  endfacet
  facet normal 0 0 1
    outer loop
      vertex 12.061 10.481 1
      vertex -0.001 44.143 1
      vertex 8.059 14.989 1
    endloop
  endfacet
  facet normal 0 0 1
    outer loop
      vertex 8.121 23.636 1
      vertex -0.001 44.143 1
      vertex 12.061 10.481 1
    endloop
  endfacet
  facet normal 0 0 1
    outer loop
      vertex 5.372 31.997 1
      vertex 4.889 35.742 1
      vertex -0.001 44.143 1
    endloop
  endfacet
  facet normal 0 0 1
    outer loop
      vertex 19.151 10.557 1
      vertex 14.846 14.223 1
      vertex 22.065 3.486 1
    endloop
  endfacet
  facet normal 0 0 1
    outer loop
      vertex 24.146 7.649 1
      vertex 21.405 9.128 1
      vertex 27.958 1.072 1
    endloop
  endfacet
  facet normal 0 0 1
    outer loop
      vertex 26.93 6.342 1
      vertex 24.146 7.649 1
      vertex 31.259 -0.001 1
    endloop
  endfacet
  facet normal 0 0 1
    outer loop
      vertex 33.179 5.42 1
      vertex 31.232 4.798 1
      vertex 34.422 1.043 1
    endloop
  endfacet
  facet normal 0 0 1
    outer loop
      vertex 14.846 14.223 1
      vertex 11.11 18.663 1
      vertex 16.749 6.634 1
    endloop
  endfacet
  facet normal 0 0 1
    outer loop
      vertex 52.684 64.496 1
      vertex 55.986 64.017 1
      vertex 59.971 66.652 1
    endloop
  endfacet
  facet normal 0 0 1
    outer loop
      vertex 49.317 64.924 1
      vertex 59.289 67.939 1
      vertex 57.904 68.249 1
    endloop
  endfacet
  facet normal 0 0 1
    outer loop
      vertex 49.317 64.924 1
      vertex 52.684 64.496 1
      vertex 59.289 67.939 1
    endloop
  endfacet
  facet normal 0 0 1
    outer loop
      vertex 45.909 65.287 1
      vertex 49.317 64.924 1
      vertex 55.664 68.628 1
    endloop
  endfacet
  facet normal 0 0 1
    outer loop
      vertex 44.053 65.402 1
      vertex 45.909 65.287 1
      vertex 52.965 69.023 1
    endloop
  endfacet
  facet normal 0 0 1
    outer loop
      vertex 41.258 65.508 1
      vertex 44.053 65.402 1
      vertex 50.199 69.379 1
    endloop
  endfacet
  facet normal 0 0 1
    outer loop
      vertex 34.111 65.676 1
      vertex 37.84 65.602 1
      vertex 43.309 69.955 1
    endloop
  endfacet
  facet normal 0 0 1
    outer loop
      vertex 4.889 35.742 1
      vertex 4.607 39.975 1
      vertex -0.001 44.143 1
    endloop
  endfacet
  facet normal 0 0 1
    outer loop
      vertex 4.637 49.24 1
      vertex 4.95 53.938 1
      vertex -0.001 44.143 1
    endloop
  endfacet
  facet normal 0 0 1
    outer loop
      vertex 4.95 53.938 1
      vertex 5.46 58.458 1
      vertex -0.001 44.143 1
    endloop
  endfacet
  facet normal 0 0 1
    outer loop
      vertex 12.644 64.849 1
      vertex 15.831 65.168 1
      vertex 16.338 69.769 1
    endloop
  endfacet
  facet normal 0 0 1
    outer loop
      vertex 5.46 58.458 1
      vertex 6.167 62.632 1
      vertex -0.001 44.143 1
    endloop
  endfacet
  facet normal 0 0 1
    outer loop
      vertex 4.406 68.169 1
      vertex -0.001 44.143 1
      vertex 5.49 68.392 1
    endloop
  endfacet
  facet normal 0 0 1
    outer loop
      vertex 3.503 67.976 1
      vertex -0.001 44.143 1
      vertex 4.406 68.169 1
    endloop
  endfacet
  facet normal 0 0 1
    outer loop
      vertex 2.881 67.837 1
      vertex -0.001 44.143 1
      vertex 3.503 67.976 1
    endloop
  endfacet
  facet normal 0 0 1
    outer loop
      vertex 2.639 67.77 1
      vertex -0.001 44.143 1
      vertex 2.881 67.837 1
    endloop
  endfacet
  facet normal 0 0 1
    outer loop
      vertex 2.362 66.734 1
      vertex -0.001 44.143 1
      vertex 2.639 67.77 1
    endloop
  endfacet
  facet normal 0 0 1
    outer loop
      vertex 1.891 64.408 1
      vertex -0.001 44.143 1
      vertex 2.362 66.734 1
    endloop
  endfacet
  facet normal 0 0 1
    outer loop
      vertex 1.377 61.59 1
      vertex -0.001 44.143 1
      vertex 1.891 64.408 1
    endloop
  endfacet
  facet normal 0 0 1
    outer loop
      vertex 0.974 59.075 1
      vertex -0.001 44.143 1
      vertex 1.377 61.59 1
    endloop
  endfacet
  facet normal 0 0 1
    outer loop
      vertex 0.243 51.834 1
      vertex -0.001 44.143 1
      vertex 0.974 59.075 1
    endloop
  endfacet
  facet normal 0 0 1
    outer loop
      vertex 57.804 41.52 1
      vertex 62.027 35.367 1
      vertex 62.249 39.368 1
    endloop
  endfacet
  facet normal 0 0 1
    outer loop
      vertex 26.983 65.748 1
      vertex 30.387 65.727 1
      vertex 35.578 70.269 1
    endloop
  endfacet
  facet normal 0 0 1
    outer loop
      vertex 6.478 64.072 1
      vertex 9.922 64.525 1
      vertex 12.302 69.362 1
    endloop
  endfacet
  facet normal 0 0 1
    outer loop
      vertex 15.831 65.168 1
      vertex 19.181 65.454 1
      vertex 20.281 70.055 1
    endloop
  endfacet
  facet normal 0 0 1
    outer loop
      vertex 6.478 64.072 1
      vertex 12.302 69.362 1
      vertex 8.559 68.887 1
    endloop
  endfacet
  facet normal 0 0 1
    outer loop
      vertex 9.922 64.525 1
      vertex 12.644 64.849 1
      vertex 12.302 69.362 1
    endloop
  endfacet
  facet normal 0 0 1
    outer loop
      vertex 57.196 56.191 1
      vertex 57.704 48.905 1
      vertex 62.26 49.59 1
    endloop
  endfacet
  facet normal 0 0 1
    outer loop
      vertex 5.49 68.392 1
      vertex -0.001 44.143 1
      vertex 6.167 62.632 1
    endloop
  endfacet
  facet normal 0 0 1
    outer loop
      vertex 5.49 68.392 1
      vertex 6.478 64.072 1
      vertex 8.559 68.887 1
    endloop
  endfacet
  facet normal 0 0 1
    outer loop
      vertex 5.49 68.392 1
      vertex 6.167 62.632 1
      vertex 6.478 64.072 1
    endloop
  endfacet
  facet normal 0 0 1
    outer loop
      vertex 57.196 56.191 1
      vertex 62.26 49.59 1
      vertex 62.054 53.573 1
    endloop
  endfacet
  facet normal 0 0 1
    outer loop
      vertex 12.302 69.362 1
      vertex 12.644 64.849 1
      vertex 16.338 69.769 1
    endloop
  endfacet
  facet normal 0 0 1
    outer loop
      vertex 16.338 69.769 1
      vertex 15.831 65.168 1
      vertex 20.281 70.055 1
    endloop
  endfacet
  facet normal 0 0 1
    outer loop
      vertex 20.281 70.055 1
      vertex 19.181 65.454 1
      vertex 27.678 70.309 1
    endloop
  endfacet
  facet normal 0 0 1
    outer loop
      vertex 19.181 65.454 1
      vertex 22.397 65.682 1
      vertex 27.678 70.309 1
    endloop
  endfacet
  facet normal 0 0 1
    outer loop
      vertex 27.678 70.309 1
      vertex 24.215 65.735 1
      vertex 35.578 70.269 1
    endloop
  endfacet
  facet normal 0 0 1
    outer loop
      vertex 22.397 65.682 1
      vertex 24.215 65.735 1
      vertex 27.678 70.309 1
    endloop
  endfacet
  facet normal 0 0 1
    outer loop
      vertex 24.215 65.735 1
      vertex 26.983 65.748 1
      vertex 35.578 70.269 1
    endloop
  endfacet
  facet normal 0 0 1
    outer loop
      vertex 35.578 70.269 1
      vertex 30.387 65.727 1
      vertex 43.309 69.955 1
    endloop
  endfacet
  facet normal 0 0 1
    outer loop
      vertex 30.387 65.727 1
      vertex 34.111 65.676 1
      vertex 43.309 69.955 1
    endloop
  endfacet
  facet normal 0 0 1
    outer loop
      vertex 43.309 69.955 1
      vertex 37.84 65.602 1
      vertex 50.199 69.379 1
    endloop
  endfacet
  facet normal 0 0 1
    outer loop
      vertex 37.84 65.602 1
      vertex 41.258 65.508 1
      vertex 50.199 69.379 1
    endloop
  endfacet
  facet normal 0 0 1
    outer loop
      vertex 50.199 69.379 1
      vertex 44.053 65.402 1
      vertex 52.965 69.023 1
    endloop
  endfacet
  facet normal 0 0 1
    outer loop
      vertex 52.965 69.023 1
      vertex 45.909 65.287 1
      vertex 55.664 68.628 1
    endloop
  endfacet
  facet normal 0 0 1
    outer loop
      vertex 55.664 68.628 1
      vertex 49.317 64.924 1
      vertex 57.904 68.249 1
    endloop
  endfacet
  facet normal 0 0 1
    outer loop
      vertex 59.289 67.939 1
      vertex 52.684 64.496 1
      vertex 59.971 66.652 1
    endloop
  endfacet
  facet normal 0 0 1
    outer loop
      vertex 59.971 66.652 1
      vertex 55.986 64.017 1
      vertex 60.723 63.499 1
    endloop
  endfacet
  facet normal 0 0 1
    outer loop
      vertex 55.986 64.017 1
      vertex 56.325 62.323 1
      vertex 60.723 63.499 1
    endloop
  endfacet
  facet normal 0 0 1
    outer loop
      vertex 61.451 58.975 1
      vertex 57.196 56.191 1
      vertex 62.054 53.573 1
    endloop
  endfacet
  facet normal 0 0 1
    outer loop
      vertex 62.26 49.59 1
      vertex 57.704 48.905 1
      vertex 62.326 44.482 1
    endloop
  endfacet
  facet normal 0 0 1
    outer loop
      vertex 62.326 44.482 1
      vertex 57.804 41.52 1
      vertex 62.249 39.368 1
    endloop
  endfacet
  facet normal 0 0 1
    outer loop
      vertex 62.027 35.367 1
      vertex 57.453 35.085 1
      vertex 61.55 31.379 1
    endloop
  endfacet
  facet normal 0 0 1
    outer loop
      vertex 60.843 28.032 1
      vertex 56.362 29.117 1
      vertex 59.782 24.861 1
    endloop
  endfacet
  facet normal 0 0 1
    outer loop
      vertex 59.782 24.861 1
      vertex 54.394 23.767 1
      vertex 58.244 21.395 1
    endloop
  endfacet
  facet normal 0 0 1
    outer loop
      vertex 58.244 21.395 1
      vertex 51.479 18.883 1
      vertex 54.842 15.683 1
    endloop
  endfacet
  facet normal 0 0 1
    outer loop
      vertex 54.842 15.683 1
      vertex 47.546 14.311 1
      vertex 50.341 10.585 1
    endloop
  endfacet
  facet normal 0 0 1
    outer loop
      vertex 46.801 7.527 1
      vertex 40.892 9.019 1
      vertex 43.006 4.936 1
    endloop
  endfacet
  facet normal 0 0 1
    outer loop
      vertex 38.897 2.785 1
      vertex 33.179 5.42 1
      vertex 34.422 1.043 1
    endloop
  endfacet
  facet normal 0 0 1
    outer loop
      vertex 34.422 1.043 1
      vertex 31.232 4.798 1
      vertex 31.259 -0.001 1
    endloop
  endfacet
  facet normal 0 0 1
    outer loop
      vertex 31.232 4.798 1
      vertex 29.312 5.42 1
      vertex 31.259 -0.001 1
    endloop
  endfacet
  facet normal 0 0 1
    outer loop
      vertex 29.312 5.42 1
      vertex 26.93 6.342 1
      vertex 31.259 -0.001 1
    endloop
  endfacet
  facet normal 0 0 1
    outer loop
      vertex 31.259 -0.001 1
      vertex 24.146 7.649 1
      vertex 27.958 1.072 1
    endloop
  endfacet
  facet normal 0 0 1
    outer loop
      vertex 27.958 1.072 1
      vertex 21.405 9.128 1
      vertex 22.065 3.486 1
    endloop
  endfacet
  facet normal 0 0 1
    outer loop
      vertex 21.405 9.128 1
      vertex 19.151 10.557 1
      vertex 22.065 3.486 1
    endloop
  endfacet
  facet normal 0 0 1
    outer loop
      vertex 22.065 3.486 1
      vertex 14.846 14.223 1
      vertex 16.749 6.634 1
    endloop
  endfacet
  facet normal 0 0 1
    outer loop
      vertex 16.749 6.634 1
      vertex 11.11 18.663 1
      vertex 12.061 10.481 1
    endloop
  endfacet
  facet normal 0 0 1
    outer loop
      vertex 11.11 18.663 1
      vertex 8.121 23.636 1
      vertex 12.061 10.481 1
    endloop
  endfacet
  facet normal 0 0 1
    outer loop
      vertex 6.055 28.904 1
      vertex -0.001 44.143 1
      vertex 8.121 23.636 1
    endloop
  endfacet
  facet normal 0 0 1
    outer loop
      vertex 6.055 28.904 1
      vertex 5.372 31.997 1
      vertex -0.001 44.143 1
    endloop
  endfacet
  facet normal 0 0 1
    outer loop
      vertex 56.325 62.323 1
      vertex 57.196 56.191 1
      vertex 61.451 58.975 1
    endloop
  endfacet
  facet normal 0 0 1
    outer loop
      vertex 57.453 35.085 1
      vertex 56.362 29.117 1
      vertex 60.843 28.032 1
    endloop
  endfacet
  facet normal 0 0 1
    outer loop
      vertex 57.453 35.085 1
      vertex 60.843 28.032 1
      vertex 61.55 31.379 1
    endloop
  endfacet
  facet normal 0 0 1
    outer loop
      vertex 47.546 14.311 1
      vertex 40.892 9.019 1
      vertex 46.801 7.527 1
    endloop
  endfacet
  facet normal 0 0 1
    outer loop
      vertex 56.362 29.117 1
      vertex 54.394 23.767 1
      vertex 59.782 24.861 1
    endloop
  endfacet
  facet normal 0 0 1
    outer loop
      vertex 54.394 23.767 1
      vertex 51.479 18.883 1
      vertex 58.244 21.395 1
    endloop
  endfacet
  facet normal 0 0 1
    outer loop
      vertex 51.479 18.883 1
      vertex 47.546 14.311 1
      vertex 54.842 15.683 1
    endloop
  endfacet
  facet normal 0 0 1
    outer loop
      vertex 47.546 14.311 1
      vertex 46.801 7.527 1
      vertex 50.341 10.585 1
    endloop
  endfacet
  facet normal 0 0 1
    outer loop
      vertex 40.892 9.019 1
      vertex 38.897 2.785 1
      vertex 43.006 4.936 1
    endloop
  endfacet
  facet normal 0 0 1
    outer loop
      vertex 4.607 39.975 1
      vertex 4.523 44.53 1
      vertex -0.001 44.143 1
    endloop
  endfacet
  facet normal 0 0 1
    outer loop
      vertex 56.325 62.323 1
      vertex 61.451 58.975 1
      vertex 60.723 63.499 1
    endloop
  endfacet
  facet normal 0 0 1
    outer loop
      vertex 40.892 9.019 1
      vertex 33.179 5.42 1
      vertex 38.897 2.785 1
    endloop
  endfacet
  facet normal 0 0 1
    outer loop
      vertex 57.804 41.52 1
      vertex 57.453 35.085 1
      vertex 62.027 35.367 1
    endloop
  endfacet
  facet normal 0 0 1
    outer loop
      vertex 57.704 48.905 1
      vertex 57.804 41.52 1
      vertex 62.326 44.482 1
    endloop
  endfacet
  facet normal 0 0 1
    outer loop
      vertex 4.523 44.53 1
      vertex 4.637 49.24 1
      vertex -0.001 44.143 1
    endloop
  endfacet
  facet normal 0.993695 -0.11212 0
    outer loop
      vertex 4.95 53.938 -1
      vertex 5.46 58.458 -1
      vertex 5.46 58.458 1
    endloop
  endfacet
  facet normal 0.993695 -0.11212 0
    outer loop
      vertex 4.95 53.938 1
      vertex 4.95 53.938 -1
      vertex 5.46 58.458 1
    endloop
  endfacet
  facet normal -0.999447 -0.0332377 0
    outer loop
      vertex 0.243 36.806 -1
      vertex 0.243 36.806 1
      vertex -0.001 44.143 -1
    endloop
  endfacet
  facet normal -0.999447 -0.0332377 0
    outer loop
      vertex -0.001 44.143 -1
      vertex 0.243 36.806 1
      vertex -0.001 44.143 1
    endloop
  endfacet
  facet normal -0.999497 0.0317094 0
    outer loop
      vertex -0.001 44.143 1
      vertex 0.243 51.834 1
      vertex -0.001 44.143 -1
    endloop
  endfacet
  facet normal -0.999497 0.0317094 0
    outer loop
      vertex -0.001 44.143 -1
      vertex 0.243 51.834 1
      vertex 0.243 51.834 -1
    endloop
  endfacet
  facet normal -0.993077 -0.117466 0
    outer loop
      vertex 0.974 30.626 -1
      vertex 0.974 30.626 1
      vertex 0.243 36.806 -1
    endloop
  endfacet
  facet normal -0.993077 -0.117466 0
    outer loop
      vertex 0.243 36.806 -1
      vertex 0.974 30.626 1
      vertex 0.243 36.806 1
    endloop
  endfacet
  facet normal -0.968911 -0.247408 0
    outer loop
      vertex 1.977 26.698 -1
      vertex 1.977 26.698 1
      vertex 0.974 30.626 -1
    endloop
  endfacet
  facet normal -0.968911 -0.247408 0
    outer loop
      vertex 0.974 30.626 -1
      vertex 1.977 26.698 1
      vertex 0.974 30.626 1
    endloop
  endfacet
  facet normal -0.931375 -0.364062 0
    outer loop
      vertex 3.564 22.638 -1
      vertex 3.564 22.638 1
      vertex 1.977 26.698 -1
    endloop
  endfacet
  facet normal -0.931375 -0.364062 0
    outer loop
      vertex 1.977 26.698 -1
      vertex 3.564 22.638 1
      vertex 1.977 26.698 1
    endloop
  endfacet
  facet normal -0.887765 -0.460298 0
    outer loop
      vertex 5.625 18.663 -1
      vertex 5.625 18.663 1
      vertex 3.564 22.638 -1
    endloop
  endfacet
  facet normal -0.887765 -0.460298 0
    outer loop
      vertex 3.564 22.638 -1
      vertex 5.625 18.663 1
      vertex 3.564 22.638 1
    endloop
  endfacet
  facet normal -0.833653 -0.552289 0
    outer loop
      vertex 8.059 14.989 -1
      vertex 8.059 14.989 1
      vertex 5.625 18.663 -1
    endloop
  endfacet
  facet normal -0.833653 -0.552289 0
    outer loop
      vertex 5.625 18.663 -1
      vertex 8.059 14.989 1
      vertex 5.625 18.663 1
    endloop
  endfacet
  facet normal -0.74783 -0.66389 0
    outer loop
      vertex 12.061 10.481 -1
      vertex 12.061 10.481 1
      vertex 8.059 14.989 -1
    endloop
  endfacet
  facet normal -0.74783 -0.66389 0
    outer loop
      vertex 8.059 14.989 -1
      vertex 12.061 10.481 1
      vertex 8.059 14.989 1
    endloop
  endfacet
  facet normal -0.63436 -0.773038 0
    outer loop
      vertex 12.061 10.481 -1
      vertex 16.749 6.634 -1
      vertex 16.749 6.634 1
    endloop
  endfacet
  facet normal -0.63436 -0.773038 0
    outer loop
      vertex 12.061 10.481 1
      vertex 12.061 10.481 -1
      vertex 16.749 6.634 1
    endloop
  endfacet
  facet normal -0.509536 -0.860449 0
    outer loop
      vertex 16.749 6.634 -1
      vertex 22.065 3.486 -1
      vertex 22.065 3.486 1
    endloop
  endfacet
  facet normal -0.509536 -0.860449 0
    outer loop
      vertex 16.749 6.634 1
      vertex 16.749 6.634 -1
      vertex 22.065 3.486 1
    endloop
  endfacet
  facet normal -0.379067 -0.925369 0
    outer loop
      vertex 22.065 3.486 -1
      vertex 27.958 1.072 -1
      vertex 27.958 1.072 1
    endloop
  endfacet
  facet normal -0.379067 -0.925369 0
    outer loop
      vertex 22.065 3.486 1
      vertex 22.065 3.486 -1
      vertex 27.958 1.072 1
    endloop
  endfacet
  facet normal -0.309132 -0.951019 0
    outer loop
      vertex 27.958 1.072 -1
      vertex 31.259 -0.001 -1
      vertex 31.259 -0.001 1
    endloop
  endfacet
  facet normal -0.309132 -0.951019 0
    outer loop
      vertex 27.958 1.072 1
      vertex 27.958 1.072 -1
      vertex 31.259 -0.001 1
    endloop
  endfacet
  facet normal 0.313434 -0.94961 0
    outer loop
      vertex 31.259 -0.001 -1
      vertex 34.422 1.043 -1
      vertex 34.422 1.043 1
    endloop
  endfacet
  facet normal 0.313434 -0.94961 0
    outer loop
      vertex 31.259 -0.001 1
      vertex 31.259 -0.001 -1
      vertex 34.422 1.043 1
    endloop
  endfacet
  facet normal 0.362758 -0.931883 0
    outer loop
      vertex 34.422 1.043 -1
      vertex 38.897 2.785 -1
      vertex 38.897 2.785 1
    endloop
  endfacet
  facet normal 0.362758 -0.931883 0
    outer loop
      vertex 34.422 1.043 1
      vertex 34.422 1.043 -1
      vertex 38.897 2.785 1
    endloop
  endfacet
  facet normal 0.463781 -0.88595 0
    outer loop
      vertex 38.897 2.785 -1
      vertex 43.006 4.936 -1
      vertex 43.006 4.936 1
    endloop
  endfacet
  facet normal 0.463781 -0.88595 0
    outer loop
      vertex 38.897 2.785 1
      vertex 38.897 2.785 -1
      vertex 43.006 4.936 1
    endloop
  endfacet
  facet normal 0.563857 -0.825873 0
    outer loop
      vertex 43.006 4.936 -1
      vertex 46.801 7.527 -1
      vertex 46.801 7.527 1
    endloop
  endfacet
  facet normal 0.563857 -0.825873 0
    outer loop
      vertex 43.006 4.936 1
      vertex 43.006 4.936 -1
      vertex 46.801 7.527 1
    endloop
  endfacet
  facet normal 0.653709 -0.756746 0
    outer loop
      vertex 46.801 7.527 -1
      vertex 50.341 10.585 -1
      vertex 50.341 10.585 1
    endloop
  endfacet
  facet normal 0.653709 -0.756746 0
    outer loop
      vertex 46.801 7.527 1
      vertex 46.801 7.527 -1
      vertex 50.341 10.585 1
    endloop
  endfacet
  facet normal 0.749636 -0.66185 0
    outer loop
      vertex 50.341 10.585 -1
      vertex 54.842 15.683 -1
      vertex 54.842 15.683 1
    endloop
  endfacet
  facet normal 0.749636 -0.66185 0
    outer loop
      vertex 50.341 10.585 1
      vertex 50.341 10.585 -1
      vertex 54.842 15.683 1
    endloop
  endfacet
  facet normal 0.859161 -0.511706 0
    outer loop
      vertex 54.842 15.683 -1
      vertex 58.244 21.395 -1
      vertex 58.244 21.395 1
    endloop
  endfacet
  facet normal 0.859161 -0.511706 0
    outer loop
      vertex 54.842 15.683 1
      vertex 54.842 15.683 -1
      vertex 58.244 21.395 1
    endloop
  endfacet
  facet normal 0.914051 -0.4056 0
    outer loop
      vertex 58.244 21.395 -1
      vertex 59.782 24.861 -1
      vertex 59.782 24.861 1
    endloop
  endfacet
  facet normal 0.914051 -0.4056 0
    outer loop
      vertex 58.244 21.395 1
      vertex 58.244 21.395 -1
      vertex 59.782 24.861 1
    endloop
  endfacet
  facet normal 0.948324 -0.317304 0
    outer loop
      vertex 59.782 24.861 -1
      vertex 60.843 28.032 -1
      vertex 60.843 28.032 1
    endloop
  endfacet
  facet normal 0.948324 -0.317304 0
    outer loop
      vertex 59.782 24.861 1
      vertex 59.782 24.861 -1
      vertex 60.843 28.032 1
    endloop
  endfacet
  facet normal 0.97841 -0.206673 0
    outer loop
      vertex 60.843 28.032 -1
      vertex 61.55 31.379 -1
      vertex 61.55 31.379 1
    endloop
  endfacet
  facet normal 0.97841 -0.206673 0
    outer loop
      vertex 60.843 28.032 1
      vertex 60.843 28.032 -1
      vertex 61.55 31.379 1
    endloop
  endfacet
  facet normal 0.992923 -0.118762 0
    outer loop
      vertex 61.55 31.379 -1
      vertex 62.027 35.367 -1
      vertex 62.027 35.367 1
    endloop
  endfacet
  facet normal 0.992923 -0.118762 0
    outer loop
      vertex 61.55 31.379 1
      vertex 61.55 31.379 -1
      vertex 62.027 35.367 1
    endloop
  endfacet
  facet normal 0.998464 -0.0554009 0
    outer loop
      vertex 62.027 35.367 -1
      vertex 62.249 39.368 -1
      vertex 62.249 39.368 1
    endloop
  endfacet
  facet normal 0.998464 -0.0554009 0
    outer loop
      vertex 62.027 35.367 1
      vertex 62.027 35.367 -1
      vertex 62.249 39.368 1
    endloop
  endfacet
  facet normal 0.999887 -0.015055 0
    outer loop
      vertex 62.249 39.368 -1
      vertex 62.326 44.482 -1
      vertex 62.326 44.482 1
    endloop
  endfacet
  facet normal 0.999887 -0.015055 0
    outer loop
      vertex 62.249 39.368 1
      vertex 62.249 39.368 -1
      vertex 62.326 44.482 1
    endloop
  endfacet
  facet normal 0.999917 0.0129198 0
    outer loop
      vertex 62.26 49.59 -1
      vertex 62.26 49.59 1
      vertex 62.326 44.482 1
    endloop
  endfacet
  facet normal 0.999917 0.0129198 0
    outer loop
      vertex 62.326 44.482 -1
      vertex 62.26 49.59 -1
      vertex 62.326 44.482 1
    endloop
  endfacet
  facet normal 0.998665 0.0516508 0
    outer loop
      vertex 62.054 53.573 -1
      vertex 62.054 53.573 1
      vertex 62.26 49.59 1
    endloop
  endfacet
  facet normal 0.998665 0.0516508 0
    outer loop
      vertex 62.26 49.59 -1
      vertex 62.054 53.573 -1
      vertex 62.26 49.59 1
    endloop
  endfacet
  facet normal 0.993828 0.110936 0
    outer loop
      vertex 61.451 58.975 -1
      vertex 61.451 58.975 1
      vertex 62.054 53.573 1
    endloop
  endfacet
  facet normal 0.993828 0.110936 0
    outer loop
      vertex 62.054 53.573 -1
      vertex 61.451 58.975 -1
      vertex 62.054 53.573 1
    endloop
  endfacet
  facet normal 0.987299 0.158876 0
    outer loop
      vertex 60.723 63.499 -1
      vertex 60.723 63.499 1
      vertex 61.451 58.975 1
    endloop
  endfacet
  facet normal 0.987299 0.158876 0
    outer loop
      vertex 61.451 58.975 -1
      vertex 60.723 63.499 -1
      vertex 61.451 58.975 1
    endloop
  endfacet
  facet normal 0.972717 0.231996 0
    outer loop
      vertex 59.971 66.652 -1
      vertex 59.971 66.652 1
      vertex 60.723 63.499 1
    endloop
  endfacet
  facet normal 0.972717 0.231996 0
    outer loop
      vertex 60.723 63.499 -1
      vertex 59.971 66.652 -1
      vertex 60.723 63.499 1
    endloop
  endfacet
  facet normal 0.883604 0.468235 0
    outer loop
      vertex 59.289 67.939 -1
      vertex 59.289 67.939 1
      vertex 59.971 66.652 1
    endloop
  endfacet
  facet normal 0.883604 0.468235 0
    outer loop
      vertex 59.971 66.652 -1
      vertex 59.289 67.939 -1
      vertex 59.971 66.652 1
    endloop
  endfacet
  facet normal 0.218422 0.975854 0
    outer loop
      vertex 57.904 68.249 1
      vertex 59.289 67.939 1
      vertex 57.904 68.249 -1
    endloop
  endfacet
  facet normal 0.218422 0.975854 0
    outer loop
      vertex 57.904 68.249 -1
      vertex 59.289 67.939 1
      vertex 59.289 67.939 -1
    endloop
  endfacet
  facet normal 0.166825 0.985986 0
    outer loop
      vertex 55.664 68.628 1
      vertex 57.904 68.249 1
      vertex 55.664 68.628 -1
    endloop
  endfacet
  facet normal 0.166825 0.985986 0
    outer loop
      vertex 55.664 68.628 -1
      vertex 57.904 68.249 1
      vertex 57.904 68.249 -1
    endloop
  endfacet
  facet normal 0.144808 0.98946 0
    outer loop
      vertex 52.965 69.023 1
      vertex 55.664 68.628 1
      vertex 52.965 69.023 -1
    endloop
  endfacet
  facet normal 0.144808 0.98946 0
    outer loop
      vertex 52.965 69.023 -1
      vertex 55.664 68.628 1
      vertex 55.664 68.628 -1
    endloop
  endfacet
  facet normal 0.127653 0.991819 0
    outer loop
      vertex 50.199 69.379 1
      vertex 52.965 69.023 1
      vertex 50.199 69.379 -1
    endloop
  endfacet
  facet normal 0.127653 0.991819 0
    outer loop
      vertex 50.199 69.379 -1
      vertex 52.965 69.023 1
      vertex 52.965 69.023 -1
    endloop
  endfacet
  facet normal 0.0833088 0.996524 0
    outer loop
      vertex 43.309 69.955 1
      vertex 50.199 69.379 1
      vertex 43.309 69.955 -1
    endloop
  endfacet
  facet normal 0.0833088 0.996524 0
    outer loop
      vertex 43.309 69.955 -1
      vertex 50.199 69.379 1
      vertex 50.199 69.379 -1
    endloop
  endfacet
  facet normal 0.0405822 0.999176 0
    outer loop
      vertex 35.578 70.269 1
      vertex 43.309 69.955 1
      vertex 35.578 70.269 -1
    endloop
  endfacet
  facet normal 0.0405822 0.999176 0
    outer loop
      vertex 35.578 70.269 -1
      vertex 43.309 69.955 1
      vertex 43.309 69.955 -1
    endloop
  endfacet
  facet normal 0.00506323 0.999987 0
    outer loop
      vertex 27.678 70.309 1
      vertex 35.578 70.269 1
      vertex 27.678 70.309 -1
    endloop
  endfacet
  facet normal 0.00506323 0.999987 0
    outer loop
      vertex 27.678 70.309 -1
      vertex 35.578 70.269 1
      vertex 35.578 70.269 -1
    endloop
  endfacet
  facet normal -0.034318 0.999411 0
    outer loop
      vertex 20.281 70.055 1
      vertex 27.678 70.309 1
      vertex 20.281 70.055 -1
    endloop
  endfacet
  facet normal -0.034318 0.999411 0
    outer loop
      vertex 20.281 70.055 -1
      vertex 27.678 70.309 1
      vertex 27.678 70.309 -1
    endloop
  endfacet
  facet normal -0.0723435 0.99738 0
    outer loop
      vertex 16.338 69.769 1
      vertex 20.281 70.055 1
      vertex 16.338 69.769 -1
    endloop
  endfacet
  facet normal -0.0723435 0.99738 0
    outer loop
      vertex 16.338 69.769 -1
      vertex 20.281 70.055 1
      vertex 20.281 70.055 -1
    endloop
  endfacet
  facet normal -0.100334 0.994954 0
    outer loop
      vertex 12.302 69.362 1
      vertex 16.338 69.769 1
      vertex 12.302 69.362 -1
    endloop
  endfacet
  facet normal -0.100334 0.994954 0
    outer loop
      vertex 12.302 69.362 -1
      vertex 16.338 69.769 1
      vertex 16.338 69.769 -1
    endloop
  endfacet
  facet normal -0.125894 0.992044 0
    outer loop
      vertex 8.559 68.887 1
      vertex 12.302 69.362 1
      vertex 8.559 68.887 -1
    endloop
  endfacet
  facet normal -0.125894 0.992044 0
    outer loop
      vertex 8.559 68.887 -1
      vertex 12.302 69.362 1
      vertex 12.302 69.362 -1
    endloop
  endfacet
  facet normal -0.159232 0.987241 0
    outer loop
      vertex 5.49 68.392 1
      vertex 8.559 68.887 1
      vertex 5.49 68.392 -1
    endloop
  endfacet
  facet normal -0.159232 0.987241 0
    outer loop
      vertex 5.49 68.392 -1
      vertex 8.559 68.887 1
      vertex 8.559 68.887 -1
    endloop
  endfacet
  facet normal -0.2015 0.979489 0
    outer loop
      vertex 4.406 68.169 1
      vertex 5.49 68.392 1
      vertex 4.406 68.169 -1
    endloop
  endfacet
  facet normal -0.2015 0.979489 0
    outer loop
      vertex 4.406 68.169 -1
      vertex 5.49 68.392 1
      vertex 5.49 68.392 -1
    endloop
  endfacet
  facet normal -0.209011 0.977913 0
    outer loop
      vertex 3.503 67.976 1
      vertex 4.406 68.169 1
      vertex 3.503 67.976 -1
    endloop
  endfacet
  facet normal -0.209011 0.977913 0
    outer loop
      vertex 3.503 67.976 -1
      vertex 4.406 68.169 1
      vertex 4.406 68.169 -1
    endloop
  endfacet
  facet normal -0.218093 0.975928 0
    outer loop
      vertex 2.881 67.837 1
      vertex 3.503 67.976 1
      vertex 2.881 67.837 -1
    endloop
  endfacet
  facet normal -0.218093 0.975928 0
    outer loop
      vertex 2.881 67.837 -1
      vertex 3.503 67.976 1
      vertex 3.503 67.976 -1
    endloop
  endfacet
  facet normal -0.266822 0.963746 0
    outer loop
      vertex 2.639 67.77 1
      vertex 2.881 67.837 1
      vertex 2.639 67.77 -1
    endloop
  endfacet
  facet normal -0.266822 0.963746 0
    outer loop
      vertex 2.639 67.77 -1
      vertex 2.881 67.837 1
      vertex 2.881 67.837 -1
    endloop
  endfacet
  facet normal -0.966064 0.258301 0
    outer loop
      vertex 2.362 66.734 1
      vertex 2.639 67.77 1
      vertex 2.362 66.734 -1
    endloop
  endfacet
  facet normal -0.966064 0.258301 0
    outer loop
      vertex 2.362 66.734 -1
      vertex 2.639 67.77 1
      vertex 2.639 67.77 -1
    endloop
  endfacet
  facet normal -0.980108 0.198466 0
    outer loop
      vertex 1.891 64.408 1
      vertex 2.362 66.734 1
      vertex 1.891 64.408 -1
    endloop
  endfacet
  facet normal -0.980108 0.198466 0
    outer loop
      vertex 1.891 64.408 -1
      vertex 2.362 66.734 1
      vertex 2.362 66.734 -1
    endloop
  endfacet
  facet normal -0.983769 0.179438 0
    outer loop
      vertex 1.377 61.59 1
      vertex 1.891 64.408 1
      vertex 1.377 61.59 -1
    endloop
  endfacet
  facet normal -0.983769 0.179438 0
    outer loop
      vertex 1.377 61.59 -1
      vertex 1.891 64.408 1
      vertex 1.891 64.408 -1
    endloop
  endfacet
  facet normal -0.987404 0.15822 0
    outer loop
      vertex 0.974 59.075 1
      vertex 1.377 61.59 1
      vertex 0.974 59.075 -1
    endloop
  endfacet
  facet normal -0.987404 0.15822 0
    outer loop
      vertex 0.974 59.075 -1
      vertex 1.377 61.59 1
      vertex 1.377 61.59 -1
    endloop
  endfacet
  facet normal -0.994943 0.100442 0
    outer loop
      vertex 0.243 51.834 1
      vertex 0.974 59.075 1
      vertex 0.243 51.834 -1
    endloop
  endfacet
  facet normal -0.994943 0.100442 0
    outer loop
      vertex 0.243 51.834 -1
      vertex 0.974 59.075 1
      vertex 0.974 59.075 -1
    endloop
  endfacet
  facet normal 0.99983 0.0184381 0
    outer loop
      vertex 4.523 44.53 -1
      vertex 4.523 44.53 1
      vertex 4.607 39.975 1
    endloop
  endfacet
  facet normal 0.99983 0.0184381 0
    outer loop
      vertex 4.607 39.975 -1
      vertex 4.523 44.53 -1
      vertex 4.607 39.975 1
    endloop
  endfacet
  facet normal 0.985956 -0.167003 0
    outer loop
      vertex 5.46 58.458 -1
      vertex 6.167 62.632 -1
      vertex 6.167 62.632 1
    endloop
  endfacet
  facet normal 0.985956 -0.167003 0
    outer loop
      vertex 5.46 58.458 1
      vertex 5.46 58.458 -1
      vertex 6.167 62.632 1
    endloop
  endfacet
  facet normal 0.977463 -0.211105 0
    outer loop
      vertex 6.167 62.632 -1
      vertex 6.478 64.072 -1
      vertex 6.478 64.072 1
    endloop
  endfacet
  facet normal 0.977463 -0.211105 0
    outer loop
      vertex 6.167 62.632 1
      vertex 6.167 62.632 -1
      vertex 6.478 64.072 1
    endloop
  endfacet
  facet normal 0.13041 -0.99146 0
    outer loop
      vertex 6.478 64.072 -1
      vertex 9.922 64.525 -1
      vertex 9.922 64.525 1
    endloop
  endfacet
  facet normal 0.13041 -0.99146 0
    outer loop
      vertex 6.478 64.072 1
      vertex 6.478 64.072 -1
      vertex 9.922 64.525 1
    endloop
  endfacet
  facet normal 0.118196 -0.99299 0
    outer loop
      vertex 9.922 64.525 -1
      vertex 12.644 64.849 -1
      vertex 12.644 64.849 1
    endloop
  endfacet
  facet normal 0.118196 -0.99299 0
    outer loop
      vertex 9.922 64.525 1
      vertex 9.922 64.525 -1
      vertex 12.644 64.849 1
    endloop
  endfacet
  facet normal 0.0995965 -0.995028 0
    outer loop
      vertex 12.644 64.849 -1
      vertex 15.831 65.168 -1
      vertex 15.831 65.168 1
    endloop
  endfacet
  facet normal 0.0995965 -0.995028 0
    outer loop
      vertex 12.644 64.849 1
      vertex 12.644 64.849 -1
      vertex 15.831 65.168 1
    endloop
  endfacet
  facet normal 0.0850637 -0.996376 0
    outer loop
      vertex 15.831 65.168 -1
      vertex 19.181 65.454 -1
      vertex 19.181 65.454 1
    endloop
  endfacet
  facet normal 0.0850637 -0.996376 0
    outer loop
      vertex 15.831 65.168 1
      vertex 15.831 65.168 -1
      vertex 19.181 65.454 1
    endloop
  endfacet
  facet normal 0.070718 -0.997496 0
    outer loop
      vertex 19.181 65.454 -1
      vertex 22.397 65.682 -1
      vertex 22.397 65.682 1
    endloop
  endfacet
  facet normal 0.070718 -0.997496 0
    outer loop
      vertex 19.181 65.454 1
      vertex 19.181 65.454 -1
      vertex 22.397 65.682 1
    endloop
  endfacet
  facet normal 0.0291405 -0.999575 0
    outer loop
      vertex 22.397 65.682 -1
      vertex 24.215 65.735 -1
      vertex 24.215 65.735 1
    endloop
  endfacet
  facet normal 0.0291405 -0.999575 0
    outer loop
      vertex 22.397 65.682 1
      vertex 22.397 65.682 -1
      vertex 24.215 65.735 1
    endloop
  endfacet
  facet normal 0.00469648 -0.999989 0
    outer loop
      vertex 24.215 65.735 -1
      vertex 26.983 65.748 -1
      vertex 26.983 65.748 1
    endloop
  endfacet
  facet normal 0.00469648 -0.999989 0
    outer loop
      vertex 24.215 65.735 1
      vertex 24.215 65.735 -1
      vertex 26.983 65.748 1
    endloop
  endfacet
  facet normal -0.0061691 -0.999981 0
    outer loop
      vertex 26.983 65.748 -1
      vertex 30.387 65.727 -1
      vertex 30.387 65.727 1
    endloop
  endfacet
  facet normal -0.0061691 -0.999981 0
    outer loop
      vertex 26.983 65.748 1
      vertex 26.983 65.748 -1
      vertex 30.387 65.727 1
    endloop
  endfacet
  facet normal -0.0136937 -0.999906 0
    outer loop
      vertex 30.387 65.727 -1
      vertex 34.111 65.676 -1
      vertex 34.111 65.676 1
    endloop
  endfacet
  facet normal -0.0136937 -0.999906 0
    outer loop
      vertex 30.387 65.727 1
      vertex 30.387 65.727 -1
      vertex 34.111 65.676 1
    endloop
  endfacet
  facet normal -0.0198406 -0.999803 0
    outer loop
      vertex 34.111 65.676 -1
      vertex 37.84 65.602 -1
      vertex 37.84 65.602 1
    endloop
  endfacet
  facet normal -0.0198406 -0.999803 0
    outer loop
      vertex 34.111 65.676 1
      vertex 34.111 65.676 -1
      vertex 37.84 65.602 1
    endloop
  endfacet
  facet normal -0.0274911 -0.999622 0
    outer loop
      vertex 37.84 65.602 -1
      vertex 41.258 65.508 -1
      vertex 41.258 65.508 1
    endloop
  endfacet
  facet normal -0.0274911 -0.999622 0
    outer loop
      vertex 37.84 65.602 1
      vertex 37.84 65.602 -1
      vertex 41.258 65.508 1
    endloop
  endfacet
  facet normal -0.0378976 -0.999282 0
    outer loop
      vertex 41.258 65.508 -1
      vertex 44.053 65.402 -1
      vertex 44.053 65.402 1
    endloop
  endfacet
  facet normal -0.0378976 -0.999282 0
    outer loop
      vertex 41.258 65.508 1
      vertex 41.258 65.508 -1
      vertex 44.053 65.402 1
    endloop
  endfacet
  facet normal -0.0618426 -0.998086 0
    outer loop
      vertex 44.053 65.402 -1
      vertex 45.909 65.287 -1
      vertex 45.909 65.287 1
    endloop
  endfacet
  facet normal -0.0618426 -0.998086 0
    outer loop
      vertex 44.053 65.402 1
      vertex 44.053 65.402 -1
      vertex 45.909 65.287 1
    endloop
  endfacet
  facet normal -0.105915 -0.994375 0
    outer loop
      vertex 45.909 65.287 -1
      vertex 49.317 64.924 -1
      vertex 49.317 64.924 1
    endloop
  endfacet
  facet normal -0.105915 -0.994375 0
    outer loop
      vertex 45.909 65.287 1
      vertex 45.909 65.287 -1
      vertex 49.317 64.924 1
    endloop
  endfacet
  facet normal -0.126101 -0.992017 0
    outer loop
      vertex 49.317 64.924 -1
      vertex 52.684 64.496 -1
      vertex 52.684 64.496 1
    endloop
  endfacet
  facet normal -0.126101 -0.992017 0
    outer loop
      vertex 49.317 64.924 1
      vertex 49.317 64.924 -1
      vertex 52.684 64.496 1
    endloop
  endfacet
  facet normal -0.143561 -0.989641 0
    outer loop
      vertex 52.684 64.496 -1
      vertex 55.986 64.017 -1
      vertex 55.986 64.017 1
    endloop
  endfacet
  facet normal -0.143561 -0.989641 0
    outer loop
      vertex 52.684 64.496 1
      vertex 52.684 64.496 -1
      vertex 55.986 64.017 1
    endloop
  endfacet
  facet normal -0.980558 -0.196227 0
    outer loop
      vertex 56.325 62.323 -1
      vertex 56.325 62.323 1
      vertex 55.986 64.017 -1
    endloop
  endfacet
  facet normal -0.980558 -0.196227 0
    outer loop
      vertex 55.986 64.017 -1
      vertex 56.325 62.323 1
      vertex 55.986 64.017 1
    endloop
  endfacet
  facet normal -0.990062 -0.14063 0
    outer loop
      vertex 57.196 56.191 -1
      vertex 57.196 56.191 1
      vertex 56.325 62.323 -1
    endloop
  endfacet
  facet normal -0.990062 -0.14063 0
    outer loop
      vertex 56.325 62.323 -1
      vertex 57.196 56.191 1
      vertex 56.325 62.323 1
    endloop
  endfacet
  facet normal -0.997578 -0.0695539 0
    outer loop
      vertex 57.704 48.905 -1
      vertex 57.704 48.905 1
      vertex 57.196 56.191 -1
    endloop
  endfacet
  facet normal -0.997578 -0.0695539 0
    outer loop
      vertex 57.196 56.191 -1
      vertex 57.704 48.905 1
      vertex 57.196 56.191 1
    endloop
  endfacet
  facet normal -0.999908 -0.0135397 0
    outer loop
      vertex 57.804 41.52 -1
      vertex 57.804 41.52 1
      vertex 57.704 48.905 -1
    endloop
  endfacet
  facet normal -0.999908 -0.0135397 0
    outer loop
      vertex 57.704 48.905 -1
      vertex 57.804 41.52 1
      vertex 57.704 48.905 1
    endloop
  endfacet
  facet normal -0.998516 0.0544645 0
    outer loop
      vertex 57.453 35.085 1
      vertex 57.804 41.52 1
      vertex 57.453 35.085 -1
    endloop
  endfacet
  facet normal -0.998516 0.0544645 0
    outer loop
      vertex 57.453 35.085 -1
      vertex 57.804 41.52 1
      vertex 57.804 41.52 -1
    endloop
  endfacet
  facet normal -0.983698 0.179828 0
    outer loop
      vertex 56.362 29.117 1
      vertex 57.453 35.085 1
      vertex 56.362 29.117 -1
    endloop
  endfacet
  facet normal -0.983698 0.179828 0
    outer loop
      vertex 56.362 29.117 -1
      vertex 57.453 35.085 1
      vertex 57.453 35.085 -1
    endloop
  endfacet
  facet normal -0.938517 0.345234 0
    outer loop
      vertex 54.394 23.767 1
      vertex 56.362 29.117 1
      vertex 54.394 23.767 -1
    endloop
  endfacet
  facet normal -0.938517 0.345234 0
    outer loop
      vertex 54.394 23.767 -1
      vertex 56.362 29.117 1
      vertex 56.362 29.117 -1
    endloop
  endfacet
  facet normal -0.858685 0.512504 0
    outer loop
      vertex 51.479 18.883 1
      vertex 54.394 23.767 1
      vertex 51.479 18.883 -1
    endloop
  endfacet
  facet normal -0.858685 0.512504 0
    outer loop
      vertex 51.479 18.883 -1
      vertex 54.394 23.767 1
      vertex 54.394 23.767 -1
    endloop
  endfacet
  facet normal -0.758097 0.652142 0
    outer loop
      vertex 47.546 14.311 1
      vertex 51.479 18.883 1
      vertex 47.546 14.311 -1
    endloop
  endfacet
  facet normal -0.758097 0.652142 0
    outer loop
      vertex 47.546 14.311 -1
      vertex 51.479 18.883 1
      vertex 51.479 18.883 -1
    endloop
  endfacet
  facet normal -0.622455 0.782656 0
    outer loop
      vertex 40.892 9.019 1
      vertex 47.546 14.311 1
      vertex 40.892 9.019 -1
    endloop
  endfacet
  facet normal -0.622455 0.782656 0
    outer loop
      vertex 40.892 9.019 -1
      vertex 47.546 14.311 1
      vertex 47.546 14.311 -1
    endloop
  endfacet
  facet normal -0.422847 0.906201 0
    outer loop
      vertex 33.179 5.42 1
      vertex 40.892 9.019 1
      vertex 33.179 5.42 -1
    endloop
  endfacet
  facet normal -0.422847 0.906201 0
    outer loop
      vertex 33.179 5.42 -1
      vertex 40.892 9.019 1
      vertex 40.892 9.019 -1
    endloop
  endfacet
  facet normal -0.304314 0.952572 0
    outer loop
      vertex 31.232 4.798 1
      vertex 33.179 5.42 1
      vertex 31.232 4.798 -1
    endloop
  endfacet
  facet normal -0.304314 0.952572 0
    outer loop
      vertex 31.232 4.798 -1
      vertex 33.179 5.42 1
      vertex 33.179 5.42 -1
    endloop
  endfacet
  facet normal 0.30819 0.951325 0
    outer loop
      vertex 29.312 5.42 1
      vertex 31.232 4.798 1
      vertex 29.312 5.42 -1
    endloop
  endfacet
  facet normal 0.30819 0.951325 0
    outer loop
      vertex 29.312 5.42 -1
      vertex 31.232 4.798 1
      vertex 31.232 4.798 -1
    endloop
  endfacet
  facet normal 0.360972 0.932577 0
    outer loop
      vertex 26.93 6.342 1
      vertex 29.312 5.42 1
      vertex 26.93 6.342 -1
    endloop
  endfacet
  facet normal 0.360972 0.932577 0
    outer loop
      vertex 26.93 6.342 -1
      vertex 29.312 5.42 1
      vertex 29.312 5.42 -1
    endloop
  endfacet
  facet normal 0.424967 0.905209 0
    outer loop
      vertex 24.146 7.649 1
      vertex 26.93 6.342 1
      vertex 24.146 7.649 -1
    endloop
  endfacet
  facet normal 0.424967 0.905209 0
    outer loop
      vertex 24.146 7.649 -1
      vertex 26.93 6.342 1
      vertex 26.93 6.342 -1
    endloop
  endfacet
  facet normal 0.474866 0.880058 0
    outer loop
      vertex 21.405 9.128 1
      vertex 24.146 7.649 1
      vertex 21.405 9.128 -1
    endloop
  endfacet
  facet normal 0.474866 0.880058 0
    outer loop
      vertex 21.405 9.128 -1
      vertex 24.146 7.649 1
      vertex 24.146 7.649 -1
    endloop
  endfacet
  facet normal 0.535444 0.844571 0
    outer loop
      vertex 19.151 10.557 1
      vertex 21.405 9.128 1
      vertex 19.151 10.557 -1
    endloop
  endfacet
  facet normal 0.535444 0.844571 0
    outer loop
      vertex 19.151 10.557 -1
      vertex 21.405 9.128 1
      vertex 21.405 9.128 -1
    endloop
  endfacet
  facet normal 0.648341 0.76135 0
    outer loop
      vertex 14.846 14.223 1
      vertex 19.151 10.557 1
      vertex 14.846 14.223 -1
    endloop
  endfacet
  facet normal 0.648341 0.76135 0
    outer loop
      vertex 14.846 14.223 -1
      vertex 19.151 10.557 1
      vertex 19.151 10.557 -1
    endloop
  endfacet
  facet normal 0.765161 0.643839 0
    outer loop
      vertex 11.11 18.663 -1
      vertex 11.11 18.663 1
      vertex 14.846 14.223 1
    endloop
  endfacet
  facet normal 0.765161 0.643839 0
    outer loop
      vertex 14.846 14.223 -1
      vertex 11.11 18.663 -1
      vertex 14.846 14.223 1
    endloop
  endfacet
  facet normal 0.857097 0.515155 0
    outer loop
      vertex 8.121 23.636 -1
      vertex 8.121 23.636 1
      vertex 11.11 18.663 1
    endloop
  endfacet
  facet normal 0.857097 0.515155 0
    outer loop
      vertex 11.11 18.663 -1
      vertex 8.121 23.636 -1
      vertex 11.11 18.663 1
    endloop
  endfacet
  facet normal 0.930966 0.365106 0
    outer loop
      vertex 6.055 28.904 -1
      vertex 6.055 28.904 1
      vertex 8.121 23.636 1
    endloop
  endfacet
  facet normal 0.930966 0.365106 0
    outer loop
      vertex 8.121 23.636 -1
      vertex 6.055 28.904 -1
      vertex 8.121 23.636 1
    endloop
  endfacet
  facet normal 0.976476 0.215627 0
    outer loop
      vertex 5.372 31.997 -1
      vertex 5.372 31.997 1
      vertex 6.055 28.904 1
    endloop
  endfacet
  facet normal 0.976476 0.215627 0
    outer loop
      vertex 6.055 28.904 -1
      vertex 5.372 31.997 -1
      vertex 6.055 28.904 1
    endloop
  endfacet
  facet normal 0.991785 0.127913 0
    outer loop
      vertex 4.889 35.742 -1
      vertex 4.889 35.742 1
      vertex 5.372 31.997 1
    endloop
  endfacet
  facet normal 0.991785 0.127913 0
    outer loop
      vertex 5.372 31.997 -1
      vertex 4.889 35.742 -1
      vertex 5.372 31.997 1
    endloop
  endfacet
  facet normal 0.997788 0.0664721 0
    outer loop
      vertex 4.607 39.975 -1
      vertex 4.607 39.975 1
      vertex 4.889 35.742 1
    endloop
  endfacet
  facet normal 0.997788 0.0664721 0
    outer loop
      vertex 4.889 35.742 -1
      vertex 4.607 39.975 -1
      vertex 4.889 35.742 1
    endloop
  endfacet
endsolid OpenSCAD_Model
