solid OpenSCAD_Model
  facet normal 0.992784 -0.119919 0
    outer loop
      vertex 2.29 54.023 -5
      vertex 2.785 58.121 -5
      vertex 2.785 58.121 5
    endloop
  endfacet
  facet normal 0.992784 -0.119919 0
    outer loop
      vertex 2.29 54.023 5
      vertex 2.29 54.023 -5
      vertex 2.785 58.121 5
    endloop
  endfacet
  facet normal 0 0 -1
    outer loop
      vertex 0.535 53.484 -5
      vertex 1.681 61.815 -5
      vertex 0.026 44.724 -5
    endloop
  endfacet
  facet normal 0 0 -1
    outer loop
      vertex 0.026 44.724 -5
      vertex 1.681 61.815 -5
      vertex 2.013 63.481 -5
    endloop
  endfacet
  facet normal 0 0 -1
    outer loop
      vertex 0.026 44.724 -5
      vertex 2.013 63.481 -5
      vertex 2.288 64.49 -5
    endloop
  endfacet
  facet normal 0 0 -1
    outer loop
      vertex 0.026 44.724 -5
      vertex 2.288 64.49 -5
      vertex 2.562 65.023 -5
    endloop
  endfacet
  facet normal 0 0 -1
    outer loop
      vertex 0.026 44.724 -5
      vertex 2.562 65.023 -5
      vertex 2.895 65.258 -5
    endloop
  endfacet
  facet normal 0 0 -1
    outer loop
      vertex 4.616 63.903 -5
      vertex 2.895 65.258 -5
      vertex 5.165 65.749 -5
    endloop
  endfacet
  facet normal 0 0 -1
    outer loop
      vertex 6.808 64.274 -5
      vertex 5.165 65.749 -5
      vertex 9.136 66.307 -5
    endloop
  endfacet
  facet normal 0 0 -1
    outer loop
      vertex 12.733 64.995 -5
      vertex 9.136 66.307 -5
      vertex 13.98 66.827 -5
    endloop
  endfacet
  facet normal 0 0 -1
    outer loop
      vertex 16.869 65.404 -5
      vertex 13.98 66.827 -5
      vertex 18.871 67.206 -5
    endloop
  endfacet
  facet normal 0 0 -1
    outer loop
      vertex 24.016 65.687 -5
      vertex 18.871 67.206 -5
      vertex 26.316 67.469 -5
    endloop
  endfacet
  facet normal 0 0 -1
    outer loop
      vertex 27.685 65.699 -5
      vertex 26.316 67.469 -5
      vertex 34.254 67.425 -5
    endloop
  endfacet
  facet normal 0 0 -1
    outer loop
      vertex 35.535 65.617 -5
      vertex 34.254 67.425 -5
      vertex 41.979 67.095 -5
    endloop
  endfacet
  facet normal 0 0 -1
    outer loop
      vertex 44.415 65.258 -5
      vertex 41.979 67.095 -5
      vertex 48.789 66.5 -5
    endloop
  endfacet
  facet normal 0 0 -1
    outer loop
      vertex 47.549 64.925 -5
      vertex 48.789 66.5 -5
      vertex 51.703 66.131 -5
    endloop
  endfacet
  facet normal 0 0 -1
    outer loop
      vertex 49.407 64.698 -5
      vertex 51.703 66.131 -5
      vertex 54.357 65.742 -5
    endloop
  endfacet
  facet normal 0 0 -1
    outer loop
      vertex 52.972 64.216 -5
      vertex 54.357 65.742 -5
      vertex 56.323 65.402 -5
    endloop
  endfacet
  facet normal 0 0 -1
    outer loop
      vertex 55.762 63.734 -5
      vertex 57.173 65.173 -5
      vertex 57.437 64.16 -5
    endloop
  endfacet
  facet normal 0 0 -1
    outer loop
      vertex 56.107 62.194 -5
      vertex 57.437 64.16 -5
      vertex 57.886 61.871 -5
    endloop
  endfacet
  facet normal 0 0 -1
    outer loop
      vertex 56.643 58.794 -5
      vertex 57.886 61.871 -5
      vertex 58.388 58.99 -5
    endloop
  endfacet
  facet normal 0 0 -1
    outer loop
      vertex 56.927 56.794 -5
      vertex 58.388 58.99 -5
      vertex 58.81 56.198 -5
    endloop
  endfacet
  facet normal 0 0 -1
    outer loop
      vertex 57.41 52.98 -5
      vertex 58.81 56.198 -5
      vertex 59.136 53.207 -5
    endloop
  endfacet
  facet normal 0 0 -1
    outer loop
      vertex 57.568 51.484 -5
      vertex 59.136 53.207 -5
      vertex 59.353 49.685 -5
    endloop
  endfacet
  facet normal 0 0 -1
    outer loop
      vertex 57.746 46.875 -5
      vertex 59.353 49.685 -5
      vertex 59.464 45.835 -5
    endloop
  endfacet
  facet normal 0 0 -1
    outer loop
      vertex 57.765 43.991 -5
      vertex 59.464 45.835 -5
      vertex 59.473 41.859 -5
    endloop
  endfacet
  facet normal 0 0 -1
    outer loop
      vertex 57.741 40.973 -5
      vertex 59.473 41.859 -5
      vertex 59.381 37.964 -5
    endloop
  endfacet
  facet normal 0 0 -1
    outer loop
      vertex 57.572 35.31 -5
      vertex 59.381 37.964 -5
      vertex 59.191 34.352 -5
    endloop
  endfacet
  facet normal 0 0 -1
    outer loop
      vertex 57.431 33.045 -5
      vertex 59.191 34.352 -5
      vertex 58.906 31.225 -5
    endloop
  endfacet
  facet normal 0 0 -1
    outer loop
      vertex 57.258 31.415 -5
      vertex 58.906 31.225 -5
      vertex 58.528 28.79 -5
    endloop
  endfacet
  facet normal 0 0 -1
    outer loop
      vertex 56.129 26.607 -5
      vertex 58.528 28.79 -5
      vertex 57.016 23.7 -5
    endloop
  endfacet
  facet normal 0 0 -1
    outer loop
      vertex 54.322 21.903 -5
      vertex 57.016 23.7 -5
      vertex 54.696 18.802 -5
    endloop
  endfacet
  facet normal 0 0 -1
    outer loop
      vertex 51.27 16.71 -5
      vertex 54.696 18.802 -5
      vertex 51.645 14.228 -5
    endloop
  endfacet
  facet normal 0 0 -1
    outer loop
      vertex 47.333 12.025 -5
      vertex 51.645 14.228 -5
      vertex 47.943 10.105 -5
    endloop
  endfacet
  facet normal 0 0 -1
    outer loop
      vertex 42.648 7.995 -5
      vertex 44.529 7.184 -5
      vertex 40.851 4.7 -5
    endloop
  endfacet
  facet normal 0 0 -1
    outer loop
      vertex 37.359 4.769 -5
      vertex 40.851 4.7 -5
      vertex 36.844 2.62 -5
    endloop
  endfacet
  facet normal 0 0 -1
    outer loop
      vertex 33.008 2.957 -5
      vertex 36.844 2.62 -5
      vertex 32.447 0.903 -5
    endloop
  endfacet
  facet normal 0 0 -1
    outer loop
      vertex 28.645 2.243 -5
      vertex 32.447 0.903 -5
      vertex 29.795 0 -5
    endloop
  endfacet
  facet normal 0 0 -1
    outer loop
      vertex 26.91 2.808 -5
      vertex 29.795 0 -5
      vertex 26.802 1.045 -5
    endloop
  endfacet
  facet normal 0 0 -1
    outer loop
      vertex 22.625 4.6 -5
      vertex 26.802 1.045 -5
      vertex 21.058 3.437 -5
    endloop
  endfacet
  facet normal 0 0 -1
    outer loop
      vertex 15.481 9.099 -5
      vertex 21.058 3.437 -5
      vertex 15.998 6.44 -5
    endloop
  endfacet
  facet normal 0 0 -1
    outer loop
      vertex 12.345 11.928 -5
      vertex 15.998 6.44 -5
      vertex 11.582 10.083 -5
    endloop
  endfacet
  facet normal 0 0 -1
    outer loop
      vertex 7.145 18.491 -5
      vertex 11.582 10.083 -5
      vertex 7.778 14.395 -5
    endloop
  endfacet
  facet normal 0 0 -1
    outer loop
      vertex 5.164 22.118 -5
      vertex 7.778 14.395 -5
      vertex 5.428 17.924 -5
    endloop
  endfacet
  facet normal 0 0 -1
    outer loop
      vertex 2.64 29.806 -5
      vertex 5.428 17.924 -5
      vertex 3.466 21.681 -5
    endloop
  endfacet
  facet normal 0 0 -1
    outer loop
      vertex 0.026 44.724 -5
      vertex 3.466 21.681 -5
      vertex 1.958 25.53 -5
    endloop
  endfacet
  facet normal 0 0 -1
    outer loop
      vertex 0.026 44.724 -5
      vertex 1.958 25.53 -5
      vertex 0.976 29.326 -5
    endloop
  endfacet
  facet normal 0 0 -1
    outer loop
      vertex 0.026 44.724 -5
      vertex 0.976 29.326 -5
      vertex 0.168 36.387 -5
    endloop
  endfacet
  facet normal 0 0 -1
    outer loop
      vertex 1.874 36.817 -5
      vertex 0.026 44.724 -5
      vertex 1.739 40.943 -5
    endloop
  endfacet
  facet normal 0 0 -1
    outer loop
      vertex 2.173 33.055 -5
      vertex 0.026 44.724 -5
      vertex 1.874 36.817 -5
    endloop
  endfacet
  facet normal 0 0 -1
    outer loop
      vertex 5.164 22.118 -5
      vertex 5.428 17.924 -5
      vertex 3.648 25.907 -5
    endloop
  endfacet
  facet normal 0 0 -1
    outer loop
      vertex 0.026 44.724 -5
      vertex 2.173 33.055 -5
      vertex 3.466 21.681 -5
    endloop
  endfacet
  facet normal 0 0 -1
    outer loop
      vertex 3.648 25.907 -5
      vertex 5.428 17.924 -5
      vertex 2.64 29.806 -5
    endloop
  endfacet
  facet normal 0 0 -1
    outer loop
      vertex 2.173 33.055 -5
      vertex 2.64 29.806 -5
      vertex 3.466 21.681 -5
    endloop
  endfacet
  facet normal 0 0 -1
    outer loop
      vertex 7.145 18.491 -5
      vertex 7.778 14.395 -5
      vertex 5.164 22.118 -5
    endloop
  endfacet
  facet normal 0 0 -1
    outer loop
      vertex 9.553 15.076 -5
      vertex 11.582 10.083 -5
      vertex 7.145 18.491 -5
    endloop
  endfacet
  facet normal 0 0 -1
    outer loop
      vertex 18.921 6.639 -5
      vertex 21.058 3.437 -5
      vertex 15.481 9.099 -5
    endloop
  endfacet
  facet normal 0 0 -1
    outer loop
      vertex 22.625 4.6 -5
      vertex 21.058 3.437 -5
      vertex 18.921 6.639 -5
    endloop
  endfacet
  facet normal 0 0 -1
    outer loop
      vertex 24.812 3.628 -5
      vertex 26.802 1.045 -5
      vertex 22.625 4.6 -5
    endloop
  endfacet
  facet normal 0 0 -1
    outer loop
      vertex 15.481 9.099 -5
      vertex 15.998 6.44 -5
      vertex 12.345 11.928 -5
    endloop
  endfacet
  facet normal 0 0 -1
    outer loop
      vertex 12.345 11.928 -5
      vertex 11.582 10.083 -5
      vertex 9.553 15.076 -5
    endloop
  endfacet
  facet normal 0 0 -1
    outer loop
      vertex 29.738 2.033 -5
      vertex 32.447 0.903 -5
      vertex 28.645 2.243 -5
    endloop
  endfacet
  facet normal 0 0 -1
    outer loop
      vertex 30.988 2.294 -5
      vertex 32.447 0.903 -5
      vertex 29.738 2.033 -5
    endloop
  endfacet
  facet normal 0 0 -1
    outer loop
      vertex 35.297 3.842 -5
      vertex 36.844 2.62 -5
      vertex 33.008 2.957 -5
    endloop
  endfacet
  facet normal 0 0 -1
    outer loop
      vertex 57.675 38.016 -5
      vertex 59.381 37.964 -5
      vertex 57.572 35.31 -5
    endloop
  endfacet
  facet normal 0 0 -1
    outer loop
      vertex 57.681 49.437 -5
      vertex 59.353 49.685 -5
      vertex 57.746 46.875 -5
    endloop
  endfacet
  facet normal 0 0 -1
    outer loop
      vertex 57.19 54.803 -5
      vertex 58.81 56.198 -5
      vertex 57.41 52.98 -5
    endloop
  endfacet
  facet normal 0 0 -1
    outer loop
      vertex 56.363 60.647 -5
      vertex 57.886 61.871 -5
      vertex 56.643 58.794 -5
    endloop
  endfacet
  facet normal 0 0 -1
    outer loop
      vertex 55.899 63.275 -5
      vertex 57.437 64.16 -5
      vertex 56.107 62.194 -5
    endloop
  endfacet
  facet normal 0 0 -1
    outer loop
      vertex 52.972 64.216 -5
      vertex 57.173 65.173 -5
      vertex 54.39 64.004 -5
    endloop
  endfacet
  facet normal 0 0 -1
    outer loop
      vertex 55.368 63.838 -5
      vertex 57.173 65.173 -5
      vertex 55.762 63.734 -5
    endloop
  endfacet
  facet normal 0 0 -1
    outer loop
      vertex 52.972 64.216 -5
      vertex 56.323 65.402 -5
      vertex 57.173 65.173 -5
    endloop
  endfacet
  facet normal 0 0 -1
    outer loop
      vertex 54.39 64.004 -5
      vertex 57.173 65.173 -5
      vertex 55.368 63.838 -5
    endloop
  endfacet
  facet normal 0 0 -1
    outer loop
      vertex 51.263 64.454 -5
      vertex 54.357 65.742 -5
      vertex 52.972 64.216 -5
    endloop
  endfacet
  facet normal 0 0 -1
    outer loop
      vertex 49.407 64.698 -5
      vertex 54.357 65.742 -5
      vertex 51.263 64.454 -5
    endloop
  endfacet
  facet normal 0 0 -1
    outer loop
      vertex 47.549 64.925 -5
      vertex 51.703 66.131 -5
      vertex 49.407 64.698 -5
    endloop
  endfacet
  facet normal 0 0 -1
    outer loop
      vertex 45.836 65.119 -5
      vertex 48.789 66.5 -5
      vertex 47.549 64.925 -5
    endloop
  endfacet
  facet normal 0 0 -1
    outer loop
      vertex 44.415 65.258 -5
      vertex 48.789 66.5 -5
      vertex 45.836 65.119 -5
    endloop
  endfacet
  facet normal 0 0 -1
    outer loop
      vertex 42.213 65.406 -5
      vertex 41.979 67.095 -5
      vertex 44.415 65.258 -5
    endloop
  endfacet
  facet normal 0 0 -1
    outer loop
      vertex 35.535 65.617 -5
      vertex 41.979 67.095 -5
      vertex 39.161 65.526 -5
    endloop
  endfacet
  facet normal 0 0 -1
    outer loop
      vertex 39.161 65.526 -5
      vertex 41.979 67.095 -5
      vertex 42.213 65.406 -5
    endloop
  endfacet
  facet normal 0 0 -1
    outer loop
      vertex 31.618 65.675 -5
      vertex 34.254 67.425 -5
      vertex 35.535 65.617 -5
    endloop
  endfacet
  facet normal 0 0 -1
    outer loop
      vertex 27.685 65.699 -5
      vertex 34.254 67.425 -5
      vertex 31.618 65.675 -5
    endloop
  endfacet
  facet normal 0 0 -1
    outer loop
      vertex 24.016 65.687 -5
      vertex 26.316 67.469 -5
      vertex 27.685 65.699 -5
    endloop
  endfacet
  facet normal 0 0 -1
    outer loop
      vertex 20.891 65.635 -5
      vertex 18.871 67.206 -5
      vertex 24.016 65.687 -5
    endloop
  endfacet
  facet normal 0 0 -1
    outer loop
      vertex 16.869 65.404 -5
      vertex 18.871 67.206 -5
      vertex 18.588 65.539 -5
    endloop
  endfacet
  facet normal 0 0 -1
    outer loop
      vertex 18.588 65.539 -5
      vertex 18.871 67.206 -5
      vertex 20.891 65.635 -5
    endloop
  endfacet
  facet normal 0 0 -1
    outer loop
      vertex 14.873 65.217 -5
      vertex 13.98 66.827 -5
      vertex 16.869 65.404 -5
    endloop
  endfacet
  facet normal 0 0 -1
    outer loop
      vertex 12.733 64.995 -5
      vertex 13.98 66.827 -5
      vertex 14.873 65.217 -5
    endloop
  endfacet
  facet normal 0 0 -1
    outer loop
      vertex 10.586 64.754 -5
      vertex 9.136 66.307 -5
      vertex 12.733 64.995 -5
    endloop
  endfacet
  facet normal 0 0 -1
    outer loop
      vertex 6.808 64.274 -5
      vertex 9.136 66.307 -5
      vertex 8.566 64.509 -5
    endloop
  endfacet
  facet normal 0 0 -1
    outer loop
      vertex 8.566 64.509 -5
      vertex 9.136 66.307 -5
      vertex 10.586 64.754 -5
    endloop
  endfacet
  facet normal 0 0 -1
    outer loop
      vertex 5.446 64.068 -5
      vertex 5.165 65.749 -5
      vertex 6.808 64.274 -5
    endloop
  endfacet
  facet normal 0 0 -1
    outer loop
      vertex 4.616 63.903 -5
      vertex 5.165 65.749 -5
      vertex 5.446 64.068 -5
    endloop
  endfacet
  facet normal 0 0 -1
    outer loop
      vertex 4.152 63.721 -5
      vertex 2.895 65.258 -5
      vertex 4.616 63.903 -5
    endloop
  endfacet
  facet normal 0 0 -1
    outer loop
      vertex 2.785 58.121 -5
      vertex 0.026 44.724 -5
      vertex 3.431 61.842 -5
    endloop
  endfacet
  facet normal 0 0 -1
    outer loop
      vertex 3.854 63.413 -5
      vertex 2.895 65.258 -5
      vertex 4.152 63.721 -5
    endloop
  endfacet
  facet normal 0 0 -1
    outer loop
      vertex 3.639 62.836 -5
      vertex 2.895 65.258 -5
      vertex 3.854 63.413 -5
    endloop
  endfacet
  facet normal 0 0 -1
    outer loop
      vertex 3.431 61.842 -5
      vertex 2.895 65.258 -5
      vertex 3.639 62.836 -5
    endloop
  endfacet
  facet normal 0 0 -1
    outer loop
      vertex 0.026 44.724 -5
      vertex 2.895 65.258 -5
      vertex 3.431 61.842 -5
    endloop
  endfacet
  facet normal 0 0 -1
    outer loop
      vertex 2.29 54.023 -5
      vertex 0.026 44.724 -5
      vertex 2.785 58.121 -5
    endloop
  endfacet
  facet normal 0 0 -1
    outer loop
      vertex 1.95 49.695 -5
      vertex 0.026 44.724 -5
      vertex 2.29 54.023 -5
    endloop
  endfacet
  facet normal 0 0 -1
    outer loop
      vertex 1.765 45.285 -5
      vertex 0.026 44.724 -5
      vertex 1.95 49.695 -5
    endloop
  endfacet
  facet normal 0 0 -1
    outer loop
      vertex 1.739 40.943 -5
      vertex 0.026 44.724 -5
      vertex 1.765 45.285 -5
    endloop
  endfacet
  facet normal 0 0 -1
    outer loop
      vertex 55.762 63.734 -5
      vertex 57.437 64.16 -5
      vertex 55.899 63.275 -5
    endloop
  endfacet
  facet normal 0 0 -1
    outer loop
      vertex 56.107 62.194 -5
      vertex 57.886 61.871 -5
      vertex 56.363 60.647 -5
    endloop
  endfacet
  facet normal 0 0 -1
    outer loop
      vertex 56.643 58.794 -5
      vertex 58.388 58.99 -5
      vertex 56.927 56.794 -5
    endloop
  endfacet
  facet normal 0 0 -1
    outer loop
      vertex 56.927 56.794 -5
      vertex 58.81 56.198 -5
      vertex 57.19 54.803 -5
    endloop
  endfacet
  facet normal 0 0 -1
    outer loop
      vertex 57.41 52.98 -5
      vertex 59.136 53.207 -5
      vertex 57.568 51.484 -5
    endloop
  endfacet
  facet normal 0 0 -1
    outer loop
      vertex 57.568 51.484 -5
      vertex 59.353 49.685 -5
      vertex 57.681 49.437 -5
    endloop
  endfacet
  facet normal 0 0 -1
    outer loop
      vertex 57.746 46.875 -5
      vertex 59.464 45.835 -5
      vertex 57.765 43.991 -5
    endloop
  endfacet
  facet normal 0 0 -1
    outer loop
      vertex 57.765 43.991 -5
      vertex 59.473 41.859 -5
      vertex 57.741 40.973 -5
    endloop
  endfacet
  facet normal 0 0 -1
    outer loop
      vertex 57.741 40.973 -5
      vertex 59.381 37.964 -5
      vertex 57.675 38.016 -5
    endloop
  endfacet
  facet normal 0 0 -1
    outer loop
      vertex 57.572 35.31 -5
      vertex 59.191 34.352 -5
      vertex 57.431 33.045 -5
    endloop
  endfacet
  facet normal 0 0 -1
    outer loop
      vertex 57.431 33.045 -5
      vertex 58.906 31.225 -5
      vertex 57.258 31.415 -5
    endloop
  endfacet
  facet normal 0 0 -1
    outer loop
      vertex 57.258 31.415 -5
      vertex 58.528 28.79 -5
      vertex 56.129 26.607 -5
    endloop
  endfacet
  facet normal 0 0 -1
    outer loop
      vertex 56.129 26.607 -5
      vertex 57.016 23.7 -5
      vertex 54.322 21.903 -5
    endloop
  endfacet
  facet normal 0 0 -1
    outer loop
      vertex 54.322 21.903 -5
      vertex 54.696 18.802 -5
      vertex 51.27 16.71 -5
    endloop
  endfacet
  facet normal 0 0 -1
    outer loop
      vertex 51.27 16.71 -5
      vertex 51.645 14.228 -5
      vertex 47.333 12.025 -5
    endloop
  endfacet
  facet normal 0 0 -1
    outer loop
      vertex 47.333 12.025 -5
      vertex 47.943 10.105 -5
      vertex 44.529 7.184 -5
    endloop
  endfacet
  facet normal 0 0 -1
    outer loop
      vertex 47.333 12.025 -5
      vertex 44.529 7.184 -5
      vertex 42.648 7.995 -5
    endloop
  endfacet
  facet normal 0 0 -1
    outer loop
      vertex 42.648 7.995 -5
      vertex 40.851 4.7 -5
      vertex 37.359 4.769 -5
    endloop
  endfacet
  facet normal 0 0 -1
    outer loop
      vertex 37.359 4.769 -5
      vertex 36.844 2.62 -5
      vertex 35.297 3.842 -5
    endloop
  endfacet
  facet normal 0 0 -1
    outer loop
      vertex 33.008 2.957 -5
      vertex 32.447 0.903 -5
      vertex 30.988 2.294 -5
    endloop
  endfacet
  facet normal 0 0 -1
    outer loop
      vertex 28.645 2.243 -5
      vertex 29.795 0 -5
      vertex 26.91 2.808 -5
    endloop
  endfacet
  facet normal 0 0 -1
    outer loop
      vertex 26.91 2.808 -5
      vertex 26.802 1.045 -5
      vertex 24.812 3.628 -5
    endloop
  endfacet
  facet normal 0.996929 -0.0783169 0
    outer loop
      vertex 1.95 49.695 -5
      vertex 2.29 54.023 -5
      vertex 2.29 54.023 5
    endloop
  endfacet
  facet normal 0.996929 -0.0783169 0
    outer loop
      vertex 1.95 49.695 5
      vertex 1.95 49.695 -5
      vertex 2.29 54.023 5
    endloop
  endfacet
  facet normal 0 0 1
    outer loop
      vertex 0.026 44.724 5
      vertex 0.168 36.387 5
      vertex 0.976 29.326 5
    endloop
  endfacet
  facet normal 0 0 1
    outer loop
      vertex 3.466 21.681 5
      vertex 0.026 44.724 5
      vertex 1.958 25.53 5
    endloop
  endfacet
  facet normal 0 0 1
    outer loop
      vertex 1.958 25.53 5
      vertex 0.026 44.724 5
      vertex 0.976 29.326 5
    endloop
  endfacet
  facet normal 0 0 1
    outer loop
      vertex 2.64 29.806 5
      vertex 0.026 44.724 5
      vertex 3.466 21.681 5
    endloop
  endfacet
  facet normal 0 0 1
    outer loop
      vertex 56.927 56.794 5
      vertex 57.19 54.803 5
      vertex 58.81 56.198 5
    endloop
  endfacet
  facet normal 0 0 1
    outer loop
      vertex 56.107 62.194 5
      vertex 56.363 60.647 5
      vertex 57.886 61.871 5
    endloop
  endfacet
  facet normal 0 0 1
    outer loop
      vertex 47.333 12.025 5
      vertex 42.648 7.995 5
      vertex 44.529 7.184 5
    endloop
  endfacet
  facet normal 0 0 1
    outer loop
      vertex 52.972 64.216 5
      vertex 54.39 64.004 5
      vertex 57.173 65.173 5
    endloop
  endfacet
  facet normal 0 0 1
    outer loop
      vertex 49.407 64.698 5
      vertex 51.263 64.454 5
      vertex 54.357 65.742 5
    endloop
  endfacet
  facet normal 0 0 1
    outer loop
      vertex 44.415 65.258 5
      vertex 45.836 65.119 5
      vertex 48.789 66.5 5
    endloop
  endfacet
  facet normal 0 0 1
    outer loop
      vertex 24.016 65.687 5
      vertex 27.685 65.699 5
      vertex 26.316 67.469 5
    endloop
  endfacet
  facet normal 0 0 1
    outer loop
      vertex 12.733 64.995 5
      vertex 14.873 65.217 5
      vertex 13.98 66.827 5
    endloop
  endfacet
  facet normal 0 0 1
    outer loop
      vertex 6.808 64.274 5
      vertex 8.566 64.509 5
      vertex 9.136 66.307 5
    endloop
  endfacet
  facet normal 0 0 1
    outer loop
      vertex 2.562 65.023 5
      vertex 0.026 44.724 5
      vertex 2.895 65.258 5
    endloop
  endfacet
  facet normal 0 0 1
    outer loop
      vertex 2.288 64.49 5
      vertex 0.026 44.724 5
      vertex 2.562 65.023 5
    endloop
  endfacet
  facet normal 0 0 1
    outer loop
      vertex 2.013 63.481 5
      vertex 0.026 44.724 5
      vertex 2.288 64.49 5
    endloop
  endfacet
  facet normal 0 0 1
    outer loop
      vertex 1.681 61.815 5
      vertex 0.026 44.724 5
      vertex 2.013 63.481 5
    endloop
  endfacet
  facet normal 0 0 1
    outer loop
      vertex 0.535 53.484 5
      vertex 0.026 44.724 5
      vertex 1.681 61.815 5
    endloop
  endfacet
  facet normal 0 0 1
    outer loop
      vertex 12.345 11.928 5
      vertex 9.553 15.076 5
      vertex 11.582 10.083 5
    endloop
  endfacet
  facet normal 0 0 1
    outer loop
      vertex 56.643 58.794 5
      vertex 56.927 56.794 5
      vertex 58.388 58.99 5
    endloop
  endfacet
  facet normal 0 0 1
    outer loop
      vertex 16.869 65.404 5
      vertex 18.588 65.539 5
      vertex 18.871 67.206 5
    endloop
  endfacet
  facet normal 0 0 1
    outer loop
      vertex 3.854 63.413 5
      vertex 4.152 63.721 5
      vertex 5.165 65.749 5
    endloop
  endfacet
  facet normal 0 0 1
    outer loop
      vertex 55.762 63.734 5
      vertex 55.899 63.275 5
      vertex 57.437 64.16 5
    endloop
  endfacet
  facet normal 0 0 1
    outer loop
      vertex 2.895 65.258 5
      vertex 0.026 44.724 5
      vertex 2.29 54.023 5
    endloop
  endfacet
  facet normal 0 0 1
    outer loop
      vertex 2.895 65.258 5
      vertex 2.29 54.023 5
      vertex 2.785 58.121 5
    endloop
  endfacet
  facet normal 0 0 1
    outer loop
      vertex 4.616 63.903 5
      vertex 5.446 64.068 5
      vertex 5.165 65.749 5
    endloop
  endfacet
  facet normal 0 0 1
    outer loop
      vertex 2.895 65.258 5
      vertex 2.785 58.121 5
      vertex 3.431 61.842 5
    endloop
  endfacet
  facet normal 0 0 1
    outer loop
      vertex 2.895 65.258 5
      vertex 3.431 61.842 5
      vertex 3.639 62.836 5
    endloop
  endfacet
  facet normal 0 0 1
    outer loop
      vertex 2.895 65.258 5
      vertex 3.854 63.413 5
      vertex 5.165 65.749 5
    endloop
  endfacet
  facet normal 0 0 1
    outer loop
      vertex 2.895 65.258 5
      vertex 3.639 62.836 5
      vertex 3.854 63.413 5
    endloop
  endfacet
  facet normal 0 0 1
    outer loop
      vertex 5.165 65.749 5
      vertex 5.446 64.068 5
      vertex 9.136 66.307 5
    endloop
  endfacet
  facet normal 0 0 1
    outer loop
      vertex 5.446 64.068 5
      vertex 6.808 64.274 5
      vertex 9.136 66.307 5
    endloop
  endfacet
  facet normal 0 0 1
    outer loop
      vertex 9.136 66.307 5
      vertex 8.566 64.509 5
      vertex 13.98 66.827 5
    endloop
  endfacet
  facet normal 0 0 1
    outer loop
      vertex 1.95 49.695 5
      vertex 2.29 54.023 5
      vertex 0.026 44.724 5
    endloop
  endfacet
  facet normal 0 0 1
    outer loop
      vertex 8.566 64.509 5
      vertex 10.586 64.754 5
      vertex 13.98 66.827 5
    endloop
  endfacet
  facet normal 0 0 1
    outer loop
      vertex 4.152 63.721 5
      vertex 4.616 63.903 5
      vertex 5.165 65.749 5
    endloop
  endfacet
  facet normal 0 0 1
    outer loop
      vertex 10.586 64.754 5
      vertex 12.733 64.995 5
      vertex 13.98 66.827 5
    endloop
  endfacet
  facet normal 0 0 1
    outer loop
      vertex 13.98 66.827 5
      vertex 14.873 65.217 5
      vertex 18.871 67.206 5
    endloop
  endfacet
  facet normal 0 0 1
    outer loop
      vertex 14.873 65.217 5
      vertex 16.869 65.404 5
      vertex 18.871 67.206 5
    endloop
  endfacet
  facet normal 0 0 1
    outer loop
      vertex 18.871 67.206 5
      vertex 18.588 65.539 5
      vertex 26.316 67.469 5
    endloop
  endfacet
  facet normal 0 0 1
    outer loop
      vertex 18.588 65.539 5
      vertex 20.891 65.635 5
      vertex 26.316 67.469 5
    endloop
  endfacet
  facet normal 0 0 1
    outer loop
      vertex 20.891 65.635 5
      vertex 24.016 65.687 5
      vertex 26.316 67.469 5
    endloop
  endfacet
  facet normal 0 0 1
    outer loop
      vertex 26.316 67.469 5
      vertex 27.685 65.699 5
      vertex 34.254 67.425 5
    endloop
  endfacet
  facet normal 0 0 1
    outer loop
      vertex 34.254 67.425 5
      vertex 31.618 65.675 5
      vertex 41.979 67.095 5
    endloop
  endfacet
  facet normal 0 0 1
    outer loop
      vertex 31.618 65.675 5
      vertex 35.535 65.617 5
      vertex 41.979 67.095 5
    endloop
  endfacet
  facet normal 0 0 1
    outer loop
      vertex 41.979 67.095 5
      vertex 39.161 65.526 5
      vertex 48.789 66.5 5
    endloop
  endfacet
  facet normal 0 0 1
    outer loop
      vertex 39.161 65.526 5
      vertex 42.213 65.406 5
      vertex 48.789 66.5 5
    endloop
  endfacet
  facet normal 0 0 1
    outer loop
      vertex 42.213 65.406 5
      vertex 44.415 65.258 5
      vertex 48.789 66.5 5
    endloop
  endfacet
  facet normal 0 0 1
    outer loop
      vertex 48.789 66.5 5
      vertex 45.836 65.119 5
      vertex 51.703 66.131 5
    endloop
  endfacet
  facet normal 0 0 1
    outer loop
      vertex 45.836 65.119 5
      vertex 47.549 64.925 5
      vertex 51.703 66.131 5
    endloop
  endfacet
  facet normal 0 0 1
    outer loop
      vertex 51.703 66.131 5
      vertex 49.407 64.698 5
      vertex 54.357 65.742 5
    endloop
  endfacet
  facet normal 0 0 1
    outer loop
      vertex 54.357 65.742 5
      vertex 51.263 64.454 5
      vertex 56.323 65.402 5
    endloop
  endfacet
  facet normal 0 0 1
    outer loop
      vertex 51.263 64.454 5
      vertex 52.972 64.216 5
      vertex 56.323 65.402 5
    endloop
  endfacet
  facet normal 0 0 1
    outer loop
      vertex 57.173 65.173 5
      vertex 54.39 64.004 5
      vertex 57.437 64.16 5
    endloop
  endfacet
  facet normal 0 0 1
    outer loop
      vertex 54.39 64.004 5
      vertex 55.368 63.838 5
      vertex 57.437 64.16 5
    endloop
  endfacet
  facet normal 0 0 1
    outer loop
      vertex 55.368 63.838 5
      vertex 55.762 63.734 5
      vertex 57.437 64.16 5
    endloop
  endfacet
  facet normal 0 0 1
    outer loop
      vertex 57.437 64.16 5
      vertex 55.899 63.275 5
      vertex 57.886 61.871 5
    endloop
  endfacet
  facet normal 0 0 1
    outer loop
      vertex 55.899 63.275 5
      vertex 56.107 62.194 5
      vertex 57.886 61.871 5
    endloop
  endfacet
  facet normal 0 0 1
    outer loop
      vertex 57.886 61.871 5
      vertex 56.363 60.647 5
      vertex 58.388 58.99 5
    endloop
  endfacet
  facet normal 0 0 1
    outer loop
      vertex 56.363 60.647 5
      vertex 56.643 58.794 5
      vertex 58.388 58.99 5
    endloop
  endfacet
  facet normal 0 0 1
    outer loop
      vertex 58.388 58.99 5
      vertex 56.927 56.794 5
      vertex 58.81 56.198 5
    endloop
  endfacet
  facet normal 0 0 1
    outer loop
      vertex 58.81 56.198 5
      vertex 57.19 54.803 5
      vertex 59.136 53.207 5
    endloop
  endfacet
  facet normal 0 0 1
    outer loop
      vertex 27.685 65.699 5
      vertex 31.618 65.675 5
      vertex 34.254 67.425 5
    endloop
  endfacet
  facet normal 0 0 1
    outer loop
      vertex 57.19 54.803 5
      vertex 57.41 52.98 5
      vertex 59.136 53.207 5
    endloop
  endfacet
  facet normal 0 0 1
    outer loop
      vertex 59.136 53.207 5
      vertex 57.568 51.484 5
      vertex 59.353 49.685 5
    endloop
  endfacet
  facet normal 0 0 1
    outer loop
      vertex 59.353 49.685 5
      vertex 57.681 49.437 5
      vertex 59.464 45.835 5
    endloop
  endfacet
  facet normal 0 0 1
    outer loop
      vertex 57.681 49.437 5
      vertex 57.746 46.875 5
      vertex 59.464 45.835 5
    endloop
  endfacet
  facet normal 0 0 1
    outer loop
      vertex 35.535 65.617 5
      vertex 39.161 65.526 5
      vertex 41.979 67.095 5
    endloop
  endfacet
  facet normal 0 0 1
    outer loop
      vertex 59.464 45.835 5
      vertex 57.765 43.991 5
      vertex 59.473 41.859 5
    endloop
  endfacet
  facet normal 0 0 1
    outer loop
      vertex 59.473 41.859 5
      vertex 57.741 40.973 5
      vertex 59.381 37.964 5
    endloop
  endfacet
  facet normal 0 0 1
    outer loop
      vertex 59.381 37.964 5
      vertex 57.675 38.016 5
      vertex 59.191 34.352 5
    endloop
  endfacet
  facet normal 0 0 1
    outer loop
      vertex 57.675 38.016 5
      vertex 57.572 35.31 5
      vertex 59.191 34.352 5
    endloop
  endfacet
  facet normal 0 0 1
    outer loop
      vertex 47.549 64.925 5
      vertex 49.407 64.698 5
      vertex 51.703 66.131 5
    endloop
  endfacet
  facet normal 0 0 1
    outer loop
      vertex 59.191 34.352 5
      vertex 57.431 33.045 5
      vertex 58.906 31.225 5
    endloop
  endfacet
  facet normal 0 0 1
    outer loop
      vertex 58.906 31.225 5
      vertex 57.258 31.415 5
      vertex 58.528 28.79 5
    endloop
  endfacet
  facet normal 0 0 1
    outer loop
      vertex 58.528 28.79 5
      vertex 56.129 26.607 5
      vertex 57.016 23.7 5
    endloop
  endfacet
  facet normal 0 0 1
    outer loop
      vertex 57.016 23.7 5
      vertex 54.322 21.903 5
      vertex 54.696 18.802 5
    endloop
  endfacet
  facet normal 0 0 1
    outer loop
      vertex 52.972 64.216 5
      vertex 57.173 65.173 5
      vertex 56.323 65.402 5
    endloop
  endfacet
  facet normal 0 0 1
    outer loop
      vertex 54.696 18.802 5
      vertex 51.27 16.71 5
      vertex 51.645 14.228 5
    endloop
  endfacet
  facet normal 0 0 1
    outer loop
      vertex 51.645 14.228 5
      vertex 47.333 12.025 5
      vertex 47.943 10.105 5
    endloop
  endfacet
  facet normal 0 0 1
    outer loop
      vertex 44.529 7.184 5
      vertex 42.648 7.995 5
      vertex 40.851 4.7 5
    endloop
  endfacet
  facet normal 0 0 1
    outer loop
      vertex 1.765 45.285 5
      vertex 1.95 49.695 5
      vertex 0.026 44.724 5
    endloop
  endfacet
  facet normal 0 0 1
    outer loop
      vertex 40.851 4.7 5
      vertex 37.359 4.769 5
      vertex 36.844 2.62 5
    endloop
  endfacet
  facet normal 0 0 1
    outer loop
      vertex 36.844 2.62 5
      vertex 35.297 3.842 5
      vertex 32.447 0.903 5
    endloop
  endfacet
  facet normal 0 0 1
    outer loop
      vertex 35.297 3.842 5
      vertex 33.008 2.957 5
      vertex 32.447 0.903 5
    endloop
  endfacet
  facet normal 0 0 1
    outer loop
      vertex 32.447 0.903 5
      vertex 30.988 2.294 5
      vertex 29.795 0 5
    endloop
  endfacet
  facet normal 0 0 1
    outer loop
      vertex 30.988 2.294 5
      vertex 29.738 2.033 5
      vertex 29.795 0 5
    endloop
  endfacet
  facet normal 0 0 1
    outer loop
      vertex 29.738 2.033 5
      vertex 28.645 2.243 5
      vertex 29.795 0 5
    endloop
  endfacet
  facet normal 0 0 1
    outer loop
      vertex 29.795 0 5
      vertex 26.91 2.808 5
      vertex 26.802 1.045 5
    endloop
  endfacet
  facet normal 0 0 1
    outer loop
      vertex 26.802 1.045 5
      vertex 24.812 3.628 5
      vertex 21.058 3.437 5
    endloop
  endfacet
  facet normal 0 0 1
    outer loop
      vertex 24.812 3.628 5
      vertex 22.625 4.6 5
      vertex 21.058 3.437 5
    endloop
  endfacet
  facet normal 0 0 1
    outer loop
      vertex 21.058 3.437 5
      vertex 18.921 6.639 5
      vertex 15.998 6.44 5
    endloop
  endfacet
  facet normal 0 0 1
    outer loop
      vertex 18.921 6.639 5
      vertex 15.481 9.099 5
      vertex 15.998 6.44 5
    endloop
  endfacet
  facet normal 0 0 1
    outer loop
      vertex 15.998 6.44 5
      vertex 12.345 11.928 5
      vertex 11.582 10.083 5
    endloop
  endfacet
  facet normal 0 0 1
    outer loop
      vertex 11.582 10.083 5
      vertex 9.553 15.076 5
      vertex 7.778 14.395 5
    endloop
  endfacet
  facet normal 0 0 1
    outer loop
      vertex 9.553 15.076 5
      vertex 7.145 18.491 5
      vertex 7.778 14.395 5
    endloop
  endfacet
  facet normal 0 0 1
    outer loop
      vertex 57.41 52.98 5
      vertex 57.568 51.484 5
      vertex 59.136 53.207 5
    endloop
  endfacet
  facet normal 0 0 1
    outer loop
      vertex 7.778 14.395 5
      vertex 5.164 22.118 5
      vertex 5.428 17.924 5
    endloop
  endfacet
  facet normal 0 0 1
    outer loop
      vertex 5.428 17.924 5
      vertex 3.648 25.907 5
      vertex 3.466 21.681 5
    endloop
  endfacet
  facet normal 0 0 1
    outer loop
      vertex 3.648 25.907 5
      vertex 2.64 29.806 5
      vertex 3.466 21.681 5
    endloop
  endfacet
  facet normal 0 0 1
    outer loop
      vertex 2.173 33.055 5
      vertex 0.026 44.724 5
      vertex 2.64 29.806 5
    endloop
  endfacet
  facet normal 0 0 1
    outer loop
      vertex 2.173 33.055 5
      vertex 1.874 36.817 5
      vertex 0.026 44.724 5
    endloop
  endfacet
  facet normal 0 0 1
    outer loop
      vertex 5.164 22.118 5
      vertex 3.648 25.907 5
      vertex 5.428 17.924 5
    endloop
  endfacet
  facet normal 0 0 1
    outer loop
      vertex 1.874 36.817 5
      vertex 1.739 40.943 5
      vertex 0.026 44.724 5
    endloop
  endfacet
  facet normal 0 0 1
    outer loop
      vertex 57.568 51.484 5
      vertex 57.681 49.437 5
      vertex 59.353 49.685 5
    endloop
  endfacet
  facet normal 0 0 1
    outer loop
      vertex 57.746 46.875 5
      vertex 57.765 43.991 5
      vertex 59.464 45.835 5
    endloop
  endfacet
  facet normal 0 0 1
    outer loop
      vertex 57.765 43.991 5
      vertex 57.741 40.973 5
      vertex 59.473 41.859 5
    endloop
  endfacet
  facet normal 0 0 1
    outer loop
      vertex 57.741 40.973 5
      vertex 57.675 38.016 5
      vertex 59.381 37.964 5
    endloop
  endfacet
  facet normal 0 0 1
    outer loop
      vertex 57.572 35.31 5
      vertex 57.431 33.045 5
      vertex 59.191 34.352 5
    endloop
  endfacet
  facet normal 0 0 1
    outer loop
      vertex 57.431 33.045 5
      vertex 57.258 31.415 5
      vertex 58.906 31.225 5
    endloop
  endfacet
  facet normal 0 0 1
    outer loop
      vertex 57.258 31.415 5
      vertex 56.129 26.607 5
      vertex 58.528 28.79 5
    endloop
  endfacet
  facet normal 0 0 1
    outer loop
      vertex 56.129 26.607 5
      vertex 54.322 21.903 5
      vertex 57.016 23.7 5
    endloop
  endfacet
  facet normal 0 0 1
    outer loop
      vertex 54.322 21.903 5
      vertex 51.27 16.71 5
      vertex 54.696 18.802 5
    endloop
  endfacet
  facet normal 0 0 1
    outer loop
      vertex 51.27 16.71 5
      vertex 47.333 12.025 5
      vertex 51.645 14.228 5
    endloop
  endfacet
  facet normal 0 0 1
    outer loop
      vertex 47.333 12.025 5
      vertex 44.529 7.184 5
      vertex 47.943 10.105 5
    endloop
  endfacet
  facet normal 0 0 1
    outer loop
      vertex 22.625 4.6 5
      vertex 18.921 6.639 5
      vertex 21.058 3.437 5
    endloop
  endfacet
  facet normal 0 0 1
    outer loop
      vertex 42.648 7.995 5
      vertex 37.359 4.769 5
      vertex 40.851 4.7 5
    endloop
  endfacet
  facet normal 0 0 1
    outer loop
      vertex 37.359 4.769 5
      vertex 35.297 3.842 5
      vertex 36.844 2.62 5
    endloop
  endfacet
  facet normal 0 0 1
    outer loop
      vertex 33.008 2.957 5
      vertex 30.988 2.294 5
      vertex 32.447 0.903 5
    endloop
  endfacet
  facet normal 0 0 1
    outer loop
      vertex 28.645 2.243 5
      vertex 26.91 2.808 5
      vertex 29.795 0 5
    endloop
  endfacet
  facet normal 0 0 1
    outer loop
      vertex 26.91 2.808 5
      vertex 24.812 3.628 5
      vertex 26.802 1.045 5
    endloop
  endfacet
  facet normal 0 0 1
    outer loop
      vertex 7.145 18.491 5
      vertex 5.164 22.118 5
      vertex 7.778 14.395 5
    endloop
  endfacet
  facet normal 0 0 1
    outer loop
      vertex 15.481 9.099 5
      vertex 12.345 11.928 5
      vertex 15.998 6.44 5
    endloop
  endfacet
  facet normal 0 0 1
    outer loop
      vertex 1.739 40.943 5
      vertex 1.765 45.285 5
      vertex 0.026 44.724 5
    endloop
  endfacet
  facet normal 0.985262 -0.171051 0
    outer loop
      vertex 2.785 58.121 -5
      vertex 3.431 61.842 -5
      vertex 3.431 61.842 5
    endloop
  endfacet
  facet normal 0.985262 -0.171051 0
    outer loop
      vertex 2.785 58.121 5
      vertex 2.785 58.121 -5
      vertex 3.431 61.842 5
    endloop
  endfacet
  facet normal -0.999855 -0.01703 0
    outer loop
      vertex 0.168 36.387 -5
      vertex 0.168 36.387 5
      vertex 0.026 44.724 -5
    endloop
  endfacet
  facet normal -0.999855 -0.01703 0
    outer loop
      vertex 0.026 44.724 -5
      vertex 0.168 36.387 5
      vertex 0.026 44.724 5
    endloop
  endfacet
  facet normal -0.998316 0.0580072 0
    outer loop
      vertex 0.026 44.724 5
      vertex 0.535 53.484 5
      vertex 0.026 44.724 -5
    endloop
  endfacet
  facet normal -0.998316 0.0580072 0
    outer loop
      vertex 0.026 44.724 -5
      vertex 0.535 53.484 5
      vertex 0.535 53.484 -5
    endloop
  endfacet
  facet normal -0.993516 -0.113689 0
    outer loop
      vertex 0.976 29.326 -5
      vertex 0.976 29.326 5
      vertex 0.168 36.387 -5
    endloop
  endfacet
  facet normal -0.993516 -0.113689 0
    outer loop
      vertex 0.168 36.387 -5
      vertex 0.976 29.326 5
      vertex 0.168 36.387 5
    endloop
  endfacet
  facet normal -0.96813 -0.250449 0
    outer loop
      vertex 1.958 25.53 -5
      vertex 1.958 25.53 5
      vertex 0.976 29.326 -5
    endloop
  endfacet
  facet normal -0.96813 -0.250449 0
    outer loop
      vertex 0.976 29.326 -5
      vertex 1.958 25.53 5
      vertex 0.976 29.326 5
    endloop
  endfacet
  facet normal -0.931089 -0.364792 0
    outer loop
      vertex 3.466 21.681 -5
      vertex 3.466 21.681 5
      vertex 1.958 25.53 -5
    endloop
  endfacet
  facet normal -0.931089 -0.364792 0
    outer loop
      vertex 1.958 25.53 -5
      vertex 3.466 21.681 5
      vertex 1.958 25.53 5
    endloop
  endfacet
  facet normal -0.886408 -0.462905 0
    outer loop
      vertex 5.428 17.924 -5
      vertex 5.428 17.924 5
      vertex 3.466 21.681 -5
    endloop
  endfacet
  facet normal -0.886408 -0.462905 0
    outer loop
      vertex 3.466 21.681 -5
      vertex 5.428 17.924 5
      vertex 3.466 21.681 5
    endloop
  endfacet
  facet normal -0.83234 -0.554265 0
    outer loop
      vertex 7.778 14.395 -5
      vertex 7.778 14.395 5
      vertex 5.428 17.924 -5
    endloop
  endfacet
  facet normal -0.83234 -0.554265 0
    outer loop
      vertex 5.428 17.924 -5
      vertex 7.778 14.395 5
      vertex 5.428 17.924 5
    endloop
  endfacet
  facet normal -0.749899 -0.661553 0
    outer loop
      vertex 11.582 10.083 -5
      vertex 11.582 10.083 5
      vertex 7.778 14.395 -5
    endloop
  endfacet
  facet normal -0.749899 -0.661553 0
    outer loop
      vertex 7.778 14.395 -5
      vertex 11.582 10.083 5
      vertex 7.778 14.395 5
    endloop
  endfacet
  facet normal -0.636362 -0.77139 0
    outer loop
      vertex 11.582 10.083 -5
      vertex 15.998 6.44 -5
      vertex 15.998 6.44 5
    endloop
  endfacet
  facet normal -0.636362 -0.77139 0
    outer loop
      vertex 11.582 10.083 5
      vertex 11.582 10.083 -5
      vertex 15.998 6.44 5
    endloop
  endfacet
  facet normal -0.510366 -0.859957 0
    outer loop
      vertex 15.998 6.44 -5
      vertex 21.058 3.437 -5
      vertex 21.058 3.437 5
    endloop
  endfacet
  facet normal -0.510366 -0.859957 0
    outer loop
      vertex 15.998 6.44 5
      vertex 15.998 6.44 -5
      vertex 21.058 3.437 5
    endloop
  endfacet
  facet normal -0.384433 -0.923153 0
    outer loop
      vertex 21.058 3.437 -5
      vertex 26.802 1.045 -5
      vertex 26.802 1.045 5
    endloop
  endfacet
  facet normal -0.384433 -0.923153 0
    outer loop
      vertex 21.058 3.437 5
      vertex 21.058 3.437 -5
      vertex 26.802 1.045 5
    endloop
  endfacet
  facet normal -0.329634 -0.944109 0
    outer loop
      vertex 26.802 1.045 -5
      vertex 29.795 0 -5
      vertex 29.795 0 5
    endloop
  endfacet
  facet normal -0.329634 -0.944109 0
    outer loop
      vertex 26.802 1.045 5
      vertex 26.802 1.045 -5
      vertex 29.795 0 5
    endloop
  endfacet
  facet normal 0.322325 -0.946629 0
    outer loop
      vertex 29.795 0 -5
      vertex 32.447 0.903 -5
      vertex 32.447 0.903 5
    endloop
  endfacet
  facet normal 0.322325 -0.946629 0
    outer loop
      vertex 29.795 0 5
      vertex 29.795 0 -5
      vertex 32.447 0.903 5
    endloop
  endfacet
  facet normal 0.363744 -0.931499 0
    outer loop
      vertex 32.447 0.903 -5
      vertex 36.844 2.62 -5
      vertex 36.844 2.62 5
    endloop
  endfacet
  facet normal 0.363744 -0.931499 0
    outer loop
      vertex 32.447 0.903 5
      vertex 32.447 0.903 -5
      vertex 36.844 2.62 5
    endloop
  endfacet
  facet normal 0.460718 -0.887547 0
    outer loop
      vertex 36.844 2.62 -5
      vertex 40.851 4.7 -5
      vertex 40.851 4.7 5
    endloop
  endfacet
  facet normal 0.460718 -0.887547 0
    outer loop
      vertex 36.844 2.62 5
      vertex 36.844 2.62 -5
      vertex 40.851 4.7 5
    endloop
  endfacet
  facet normal 0.559682 -0.828708 0
    outer loop
      vertex 40.851 4.7 -5
      vertex 44.529 7.184 -5
      vertex 44.529 7.184 5
    endloop
  endfacet
  facet normal 0.559682 -0.828708 0
    outer loop
      vertex 40.851 4.7 5
      vertex 40.851 4.7 -5
      vertex 44.529 7.184 5
    endloop
  endfacet
  facet normal 0.650113 -0.759838 0
    outer loop
      vertex 44.529 7.184 -5
      vertex 47.943 10.105 -5
      vertex 47.943 10.105 5
    endloop
  endfacet
  facet normal 0.650113 -0.759838 0
    outer loop
      vertex 44.529 7.184 5
      vertex 44.529 7.184 -5
      vertex 47.943 10.105 5
    endloop
  endfacet
  facet normal 0.744074 -0.668097 0
    outer loop
      vertex 47.943 10.105 -5
      vertex 51.645 14.228 -5
      vertex 51.645 14.228 5
    endloop
  endfacet
  facet normal 0.744074 -0.668097 0
    outer loop
      vertex 47.943 10.105 5
      vertex 47.943 10.105 -5
      vertex 51.645 14.228 5
    endloop
  endfacet
  facet normal 0.83191 -0.55491 0
    outer loop
      vertex 51.645 14.228 -5
      vertex 54.696 18.802 -5
      vertex 54.696 18.802 5
    endloop
  endfacet
  facet normal 0.83191 -0.55491 0
    outer loop
      vertex 51.645 14.228 5
      vertex 51.645 14.228 -5
      vertex 54.696 18.802 5
    endloop
  endfacet
  facet normal 0.903745 -0.42807 0
    outer loop
      vertex 54.696 18.802 -5
      vertex 57.016 23.7 -5
      vertex 57.016 23.7 5
    endloop
  endfacet
  facet normal 0.903745 -0.42807 0
    outer loop
      vertex 54.696 18.802 5
      vertex 54.696 18.802 -5
      vertex 57.016 23.7 5
    endloop
  endfacet
  facet normal 0.9586 -0.284755 0
    outer loop
      vertex 57.016 23.7 -5
      vertex 58.528 28.79 -5
      vertex 58.528 28.79 5
    endloop
  endfacet
  facet normal 0.9586 -0.284755 0
    outer loop
      vertex 57.016 23.7 5
      vertex 57.016 23.7 -5
      vertex 58.528 28.79 5
    endloop
  endfacet
  facet normal 0.988164 -0.153399 0
    outer loop
      vertex 58.528 28.79 -5
      vertex 58.906 31.225 -5
      vertex 58.906 31.225 5
    endloop
  endfacet
  facet normal 0.988164 -0.153399 0
    outer loop
      vertex 58.528 28.79 5
      vertex 58.528 28.79 -5
      vertex 58.906 31.225 5
    endloop
  endfacet
  facet normal 0.995872 -0.0907655 0
    outer loop
      vertex 58.906 31.225 -5
      vertex 59.191 34.352 -5
      vertex 59.191 34.352 5
    endloop
  endfacet
  facet normal 0.995872 -0.0907655 0
    outer loop
      vertex 58.906 31.225 5
      vertex 58.906 31.225 -5
      vertex 59.191 34.352 5
    endloop
  endfacet
  facet normal 0.998619 -0.0525298 0
    outer loop
      vertex 59.191 34.352 -5
      vertex 59.381 37.964 -5
      vertex 59.381 37.964 5
    endloop
  endfacet
  facet normal 0.998619 -0.0525298 0
    outer loop
      vertex 59.191 34.352 5
      vertex 59.191 34.352 -5
      vertex 59.381 37.964 5
    endloop
  endfacet
  facet normal 0.999721 -0.0236134 0
    outer loop
      vertex 59.381 37.964 -5
      vertex 59.473 41.859 -5
      vertex 59.473 41.859 5
    endloop
  endfacet
  facet normal 0.999721 -0.0236134 0
    outer loop
      vertex 59.381 37.964 5
      vertex 59.381 37.964 -5
      vertex 59.473 41.859 5
    endloop
  endfacet
  facet normal 0.999997 0.00226358 0
    outer loop
      vertex 59.464 45.835 -5
      vertex 59.464 45.835 5
      vertex 59.473 41.859 5
    endloop
  endfacet
  facet normal 0.999997 0.00226358 0
    outer loop
      vertex 59.473 41.859 -5
      vertex 59.464 45.835 -5
      vertex 59.473 41.859 5
    endloop
  endfacet
  facet normal 0.999585 0.0288192 0
    outer loop
      vertex 59.353 49.685 -5
      vertex 59.353 49.685 5
      vertex 59.464 45.835 5
    endloop
  endfacet
  facet normal 0.999585 0.0288192 0
    outer loop
      vertex 59.464 45.835 -5
      vertex 59.353 49.685 -5
      vertex 59.464 45.835 5
    endloop
  endfacet
  facet normal 0.998107 0.0614961 0
    outer loop
      vertex 59.136 53.207 -5
      vertex 59.136 53.207 5
      vertex 59.353 49.685 5
    endloop
  endfacet
  facet normal 0.998107 0.0614961 0
    outer loop
      vertex 59.353 49.685 -5
      vertex 59.136 53.207 -5
      vertex 59.353 49.685 5
    endloop
  endfacet
  facet normal 0.994113 0.108352 0
    outer loop
      vertex 58.81 56.198 -5
      vertex 58.81 56.198 5
      vertex 59.136 53.207 5
    endloop
  endfacet
  facet normal 0.994113 0.108352 0
    outer loop
      vertex 59.136 53.207 -5
      vertex 58.81 56.198 -5
      vertex 59.136 53.207 5
    endloop
  endfacet
  facet normal 0.988769 0.149449 0
    outer loop
      vertex 58.388 58.99 -5
      vertex 58.388 58.99 5
      vertex 58.81 56.198 5
    endloop
  endfacet
  facet normal 0.988769 0.149449 0
    outer loop
      vertex 58.81 56.198 -5
      vertex 58.388 58.99 -5
      vertex 58.81 56.198 5
    endloop
  endfacet
  facet normal 0.985156 0.171659 0
    outer loop
      vertex 57.886 61.871 -5
      vertex 57.886 61.871 5
      vertex 58.388 58.99 5
    endloop
  endfacet
  facet normal 0.985156 0.171659 0
    outer loop
      vertex 58.388 58.99 -5
      vertex 57.886 61.871 -5
      vertex 58.388 58.99 5
    endloop
  endfacet
  facet normal 0.981299 0.192487 0
    outer loop
      vertex 57.437 64.16 -5
      vertex 57.437 64.16 5
      vertex 57.886 61.871 5
    endloop
  endfacet
  facet normal 0.981299 0.192487 0
    outer loop
      vertex 57.886 61.871 -5
      vertex 57.437 64.16 -5
      vertex 57.886 61.871 5
    endloop
  endfacet
  facet normal 0.967678 0.252189 0
    outer loop
      vertex 57.173 65.173 -5
      vertex 57.173 65.173 5
      vertex 57.437 64.16 5
    endloop
  endfacet
  facet normal 0.967678 0.252189 0
    outer loop
      vertex 57.437 64.16 -5
      vertex 57.173 65.173 -5
      vertex 57.437 64.16 5
    endloop
  endfacet
  facet normal 0.260136 0.965572 0
    outer loop
      vertex 56.323 65.402 5
      vertex 57.173 65.173 5
      vertex 56.323 65.402 -5
    endloop
  endfacet
  facet normal 0.260136 0.965572 0
    outer loop
      vertex 56.323 65.402 -5
      vertex 57.173 65.173 5
      vertex 57.173 65.173 -5
    endloop
  endfacet
  facet normal 0.17041 0.985373 0
    outer loop
      vertex 54.357 65.742 5
      vertex 56.323 65.402 5
      vertex 54.357 65.742 -5
    endloop
  endfacet
  facet normal 0.17041 0.985373 0
    outer loop
      vertex 54.357 65.742 -5
      vertex 56.323 65.402 5
      vertex 56.323 65.402 -5
    endloop
  endfacet
  facet normal 0.145022 0.989428 0
    outer loop
      vertex 51.703 66.131 5
      vertex 54.357 65.742 5
      vertex 51.703 66.131 -5
    endloop
  endfacet
  facet normal 0.145022 0.989428 0
    outer loop
      vertex 51.703 66.131 -5
      vertex 54.357 65.742 5
      vertex 54.357 65.742 -5
    endloop
  endfacet
  facet normal 0.125627 0.992078 0
    outer loop
      vertex 48.789 66.5 5
      vertex 51.703 66.131 5
      vertex 48.789 66.5 -5
    endloop
  endfacet
  facet normal 0.125627 0.992078 0
    outer loop
      vertex 48.789 66.5 -5
      vertex 51.703 66.131 5
      vertex 51.703 66.131 -5
    endloop
  endfacet
  facet normal 0.0870399 0.996205 0
    outer loop
      vertex 41.979 67.095 5
      vertex 48.789 66.5 5
      vertex 41.979 67.095 -5
    endloop
  endfacet
  facet normal 0.0870399 0.996205 0
    outer loop
      vertex 41.979 67.095 -5
      vertex 48.789 66.5 5
      vertex 48.789 66.5 -5
    endloop
  endfacet
  facet normal 0.0426795 0.999089 0
    outer loop
      vertex 34.254 67.425 5
      vertex 41.979 67.095 5
      vertex 34.254 67.425 -5
    endloop
  endfacet
  facet normal 0.0426795 0.999089 0
    outer loop
      vertex 34.254 67.425 -5
      vertex 41.979 67.095 5
      vertex 41.979 67.095 -5
    endloop
  endfacet
  facet normal 0.00554287 0.999985 0
    outer loop
      vertex 26.316 67.469 5
      vertex 34.254 67.425 5
      vertex 26.316 67.469 -5
    endloop
  endfacet
  facet normal 0.00554287 0.999985 0
    outer loop
      vertex 26.316 67.469 -5
      vertex 34.254 67.425 5
      vertex 34.254 67.425 -5
    endloop
  endfacet
  facet normal -0.0353037 0.999377 0
    outer loop
      vertex 18.871 67.206 5
      vertex 26.316 67.469 5
      vertex 18.871 67.206 -5
    endloop
  endfacet
  facet normal -0.0353037 0.999377 0
    outer loop
      vertex 18.871 67.206 -5
      vertex 26.316 67.469 5
      vertex 26.316 67.469 -5
    endloop
  endfacet
  facet normal -0.0772577 0.997011 0
    outer loop
      vertex 13.98 66.827 5
      vertex 18.871 67.206 5
      vertex 13.98 66.827 -5
    endloop
  endfacet
  facet normal -0.0772577 0.997011 0
    outer loop
      vertex 13.98 66.827 -5
      vertex 18.871 67.206 5
      vertex 18.871 67.206 -5
    endloop
  endfacet
  facet normal -0.106736 0.994287 0
    outer loop
      vertex 9.136 66.307 5
      vertex 13.98 66.827 5
      vertex 9.136 66.307 -5
    endloop
  endfacet
  facet normal -0.106736 0.994287 0
    outer loop
      vertex 9.136 66.307 -5
      vertex 13.98 66.827 5
      vertex 13.98 66.827 -5
    endloop
  endfacet
  facet normal -0.139152 0.990271 0
    outer loop
      vertex 5.165 65.749 5
      vertex 9.136 66.307 5
      vertex 5.165 65.749 -5
    endloop
  endfacet
  facet normal -0.139152 0.990271 0
    outer loop
      vertex 5.165 65.749 -5
      vertex 9.136 66.307 5
      vertex 9.136 66.307 -5
    endloop
  endfacet
  facet normal -0.211411 0.977397 0
    outer loop
      vertex 2.895 65.258 5
      vertex 5.165 65.749 5
      vertex 2.895 65.258 -5
    endloop
  endfacet
  facet normal -0.211411 0.977397 0
    outer loop
      vertex 2.895 65.258 -5
      vertex 5.165 65.749 5
      vertex 5.165 65.749 -5
    endloop
  endfacet
  facet normal -0.576587 0.817036 0
    outer loop
      vertex 2.562 65.023 5
      vertex 2.895 65.258 5
      vertex 2.562 65.023 -5
    endloop
  endfacet
  facet normal -0.576587 0.817036 0
    outer loop
      vertex 2.562 65.023 -5
      vertex 2.895 65.258 5
      vertex 2.895 65.258 -5
    endloop
  endfacet
  facet normal -0.889365 0.457197 0
    outer loop
      vertex 2.288 64.49 5
      vertex 2.562 65.023 5
      vertex 2.288 64.49 -5
    endloop
  endfacet
  facet normal -0.889365 0.457197 0
    outer loop
      vertex 2.288 64.49 -5
      vertex 2.562 65.023 5
      vertex 2.562 65.023 -5
    endloop
  endfacet
  facet normal -0.964808 0.262956 0
    outer loop
      vertex 2.013 63.481 5
      vertex 2.288 64.49 5
      vertex 2.013 63.481 -5
    endloop
  endfacet
  facet normal -0.964808 0.262956 0
    outer loop
      vertex 2.013 63.481 -5
      vertex 2.288 64.49 5
      vertex 2.288 64.49 -5
    endloop
  endfacet
  facet normal -0.980716 0.195437 0
    outer loop
      vertex 1.681 61.815 5
      vertex 2.013 63.481 5
      vertex 1.681 61.815 -5
    endloop
  endfacet
  facet normal -0.980716 0.195437 0
    outer loop
      vertex 1.681 61.815 -5
      vertex 2.013 63.481 5
      vertex 2.013 63.481 -5
    endloop
  endfacet
  facet normal -0.990671 0.136275 0
    outer loop
      vertex 0.535 53.484 5
      vertex 1.681 61.815 5
      vertex 0.535 53.484 -5
    endloop
  endfacet
  facet normal -0.990671 0.136275 0
    outer loop
      vertex 0.535 53.484 -5
      vertex 1.681 61.815 5
      vertex 1.681 61.815 -5
    endloop
  endfacet
  facet normal 0.999465 0.0327018 0
    outer loop
      vertex 1.739 40.943 -5
      vertex 1.739 40.943 5
      vertex 1.874 36.817 5
    endloop
  endfacet
  facet normal 0.999465 0.0327018 0
    outer loop
      vertex 1.874 36.817 -5
      vertex 1.739 40.943 -5
      vertex 1.874 36.817 5
    endloop
  endfacet
  facet normal 0.999982 -0.00598792 0
    outer loop
      vertex 1.739 40.943 -5
      vertex 1.765 45.285 -5
      vertex 1.765 45.285 5
    endloop
  endfacet
  facet normal 0.999982 -0.00598792 0
    outer loop
      vertex 1.739 40.943 5
      vertex 1.739 40.943 -5
      vertex 1.765 45.285 5
    endloop
  endfacet
  facet normal 0.999121 -0.0419132 0
    outer loop
      vertex 1.765 45.285 -5
      vertex 1.95 49.695 -5
      vertex 1.95 49.695 5
    endloop
  endfacet
  facet normal 0.999121 -0.0419132 0
    outer loop
      vertex 1.765 45.285 5
      vertex 1.765 45.285 -5
      vertex 1.95 49.695 5
    endloop
  endfacet
  facet normal 0.9788 -0.204819 0
    outer loop
      vertex 3.431 61.842 -5
      vertex 3.639 62.836 -5
      vertex 3.639 62.836 5
    endloop
  endfacet
  facet normal 0.9788 -0.204819 0
    outer loop
      vertex 3.431 61.842 5
      vertex 3.431 61.842 -5
      vertex 3.639 62.836 5
    endloop
  endfacet
  facet normal 0.937061 -0.349165 0
    outer loop
      vertex 3.639 62.836 -5
      vertex 3.854 63.413 -5
      vertex 3.854 63.413 5
    endloop
  endfacet
  facet normal 0.937061 -0.349165 0
    outer loop
      vertex 3.639 62.836 5
      vertex 3.639 62.836 -5
      vertex 3.854 63.413 5
    endloop
  endfacet
  facet normal 0.718677 -0.695344 0
    outer loop
      vertex 3.854 63.413 -5
      vertex 4.152 63.721 -5
      vertex 4.152 63.721 5
    endloop
  endfacet
  facet normal 0.718677 -0.695344 0
    outer loop
      vertex 3.854 63.413 5
      vertex 3.854 63.413 -5
      vertex 4.152 63.721 5
    endloop
  endfacet
  facet normal 0.365156 -0.930946 0
    outer loop
      vertex 4.152 63.721 -5
      vertex 4.616 63.903 -5
      vertex 4.616 63.903 5
    endloop
  endfacet
  facet normal 0.365156 -0.930946 0
    outer loop
      vertex 4.152 63.721 5
      vertex 4.152 63.721 -5
      vertex 4.616 63.903 5
    endloop
  endfacet
  facet normal 0.19498 -0.980807 0
    outer loop
      vertex 4.616 63.903 -5
      vertex 5.446 64.068 -5
      vertex 5.446 64.068 5
    endloop
  endfacet
  facet normal 0.19498 -0.980807 0
    outer loop
      vertex 4.616 63.903 5
      vertex 4.616 63.903 -5
      vertex 5.446 64.068 5
    endloop
  endfacet
  facet normal 0.149547 -0.988755 0
    outer loop
      vertex 5.446 64.068 -5
      vertex 6.808 64.274 -5
      vertex 6.808 64.274 5
    endloop
  endfacet
  facet normal 0.149547 -0.988755 0
    outer loop
      vertex 5.446 64.068 5
      vertex 5.446 64.068 -5
      vertex 6.808 64.274 5
    endloop
  endfacet
  facet normal 0.132496 -0.991184 0
    outer loop
      vertex 6.808 64.274 -5
      vertex 8.566 64.509 -5
      vertex 8.566 64.509 5
    endloop
  endfacet
  facet normal 0.132496 -0.991184 0
    outer loop
      vertex 6.808 64.274 5
      vertex 6.808 64.274 -5
      vertex 8.566 64.509 5
    endloop
  endfacet
  facet normal 0.120405 -0.992725 0
    outer loop
      vertex 8.566 64.509 -5
      vertex 10.586 64.754 -5
      vertex 10.586 64.754 5
    endloop
  endfacet
  facet normal 0.120405 -0.992725 0
    outer loop
      vertex 8.566 64.509 5
      vertex 8.566 64.509 -5
      vertex 10.586 64.754 5
    endloop
  endfacet
  facet normal 0.111549 -0.993759 0
    outer loop
      vertex 10.586 64.754 -5
      vertex 12.733 64.995 -5
      vertex 12.733 64.995 5
    endloop
  endfacet
  facet normal 0.111549 -0.993759 0
    outer loop
      vertex 10.586 64.754 5
      vertex 10.586 64.754 -5
      vertex 12.733 64.995 5
    endloop
  endfacet
  facet normal 0.103185 -0.994662 0
    outer loop
      vertex 12.733 64.995 -5
      vertex 14.873 65.217 -5
      vertex 14.873 65.217 5
    endloop
  endfacet
  facet normal 0.103185 -0.994662 0
    outer loop
      vertex 12.733 64.995 5
      vertex 12.733 64.995 -5
      vertex 14.873 65.217 5
    endloop
  endfacet
  facet normal 0.0932789 -0.99564 0
    outer loop
      vertex 14.873 65.217 -5
      vertex 16.869 65.404 -5
      vertex 16.869 65.404 5
    endloop
  endfacet
  facet normal 0.0932789 -0.99564 0
    outer loop
      vertex 14.873 65.217 5
      vertex 14.873 65.217 -5
      vertex 16.869 65.404 5
    endloop
  endfacet
  facet normal 0.078293 -0.99693 0
    outer loop
      vertex 16.869 65.404 -5
      vertex 18.588 65.539 -5
      vertex 18.588 65.539 5
    endloop
  endfacet
  facet normal 0.078293 -0.99693 0
    outer loop
      vertex 16.869 65.404 5
      vertex 16.869 65.404 -5
      vertex 18.588 65.539 5
    endloop
  endfacet
  facet normal 0.0416486 -0.999132 0
    outer loop
      vertex 18.588 65.539 -5
      vertex 20.891 65.635 -5
      vertex 20.891 65.635 5
    endloop
  endfacet
  facet normal 0.0416486 -0.999132 0
    outer loop
      vertex 18.588 65.539 5
      vertex 18.588 65.539 -5
      vertex 20.891 65.635 5
    endloop
  endfacet
  facet normal 0.0166377 -0.999862 0
    outer loop
      vertex 20.891 65.635 -5
      vertex 24.016 65.687 -5
      vertex 24.016 65.687 5
    endloop
  endfacet
  facet normal 0.0166377 -0.999862 0
    outer loop
      vertex 20.891 65.635 5
      vertex 20.891 65.635 -5
      vertex 24.016 65.687 5
    endloop
  endfacet
  facet normal 0.00327063 -0.999995 0
    outer loop
      vertex 24.016 65.687 -5
      vertex 27.685 65.699 -5
      vertex 27.685 65.699 5
    endloop
  endfacet
  facet normal 0.00327063 -0.999995 0
    outer loop
      vertex 24.016 65.687 5
      vertex 24.016 65.687 -5
      vertex 27.685 65.699 5
    endloop
  endfacet
  facet normal -0.0061021 -0.999981 0
    outer loop
      vertex 27.685 65.699 -5
      vertex 31.618 65.675 -5
      vertex 31.618 65.675 5
    endloop
  endfacet
  facet normal -0.0061021 -0.999981 0
    outer loop
      vertex 27.685 65.699 5
      vertex 27.685 65.699 -5
      vertex 31.618 65.675 5
    endloop
  endfacet
  facet normal -0.0148056 -0.99989 0
    outer loop
      vertex 31.618 65.675 -5
      vertex 35.535 65.617 -5
      vertex 35.535 65.617 5
    endloop
  endfacet
  facet normal -0.0148056 -0.99989 0
    outer loop
      vertex 31.618 65.675 5
      vertex 31.618 65.675 -5
      vertex 35.535 65.617 5
    endloop
  endfacet
  facet normal -0.0250886 -0.999685 0
    outer loop
      vertex 35.535 65.617 -5
      vertex 39.161 65.526 -5
      vertex 39.161 65.526 5
    endloop
  endfacet
  facet normal -0.0250886 -0.999685 0
    outer loop
      vertex 35.535 65.617 5
      vertex 35.535 65.617 -5
      vertex 39.161 65.526 5
    endloop
  endfacet
  facet normal -0.0392881 -0.999228 0
    outer loop
      vertex 39.161 65.526 -5
      vertex 42.213 65.406 -5
      vertex 42.213 65.406 5
    endloop
  endfacet
  facet normal -0.0392881 -0.999228 0
    outer loop
      vertex 39.161 65.526 5
      vertex 39.161 65.526 -5
      vertex 42.213 65.406 5
    endloop
  endfacet
  facet normal -0.0670603 -0.997749 0
    outer loop
      vertex 42.213 65.406 -5
      vertex 44.415 65.258 -5
      vertex 44.415 65.258 5
    endloop
  endfacet
  facet normal -0.0670603 -0.997749 0
    outer loop
      vertex 42.213 65.406 5
      vertex 42.213 65.406 -5
      vertex 44.415 65.258 5
    endloop
  endfacet
  facet normal -0.0973538 -0.99525 0
    outer loop
      vertex 44.415 65.258 -5
      vertex 45.836 65.119 -5
      vertex 45.836 65.119 5
    endloop
  endfacet
  facet normal -0.0973538 -0.99525 0
    outer loop
      vertex 44.415 65.258 5
      vertex 44.415 65.258 -5
      vertex 45.836 65.119 5
    endloop
  endfacet
  facet normal -0.112532 -0.993648 0
    outer loop
      vertex 45.836 65.119 -5
      vertex 47.549 64.925 -5
      vertex 47.549 64.925 5
    endloop
  endfacet
  facet normal -0.112532 -0.993648 0
    outer loop
      vertex 45.836 65.119 5
      vertex 45.836 65.119 -5
      vertex 47.549 64.925 5
    endloop
  endfacet
  facet normal -0.121273 -0.992619 0
    outer loop
      vertex 47.549 64.925 -5
      vertex 49.407 64.698 -5
      vertex 49.407 64.698 5
    endloop
  endfacet
  facet normal -0.121273 -0.992619 0
    outer loop
      vertex 47.549 64.925 5
      vertex 47.549 64.925 -5
      vertex 49.407 64.698 5
    endloop
  endfacet
  facet normal -0.130344 -0.991469 0
    outer loop
      vertex 49.407 64.698 -5
      vertex 51.263 64.454 -5
      vertex 51.263 64.454 5
    endloop
  endfacet
  facet normal -0.130344 -0.991469 0
    outer loop
      vertex 49.407 64.698 5
      vertex 49.407 64.698 -5
      vertex 51.263 64.454 5
    endloop
  endfacet
  facet normal -0.137932 -0.990442 0
    outer loop
      vertex 51.263 64.454 -5
      vertex 52.972 64.216 -5
      vertex 52.972 64.216 5
    endloop
  endfacet
  facet normal -0.137932 -0.990442 0
    outer loop
      vertex 51.263 64.454 5
      vertex 51.263 64.454 -5
      vertex 52.972 64.216 5
    endloop
  endfacet
  facet normal -0.147863 -0.989008 0
    outer loop
      vertex 52.972 64.216 -5
      vertex 54.39 64.004 -5
      vertex 54.39 64.004 5
    endloop
  endfacet
  facet normal -0.147863 -0.989008 0
    outer loop
      vertex 52.972 64.216 5
      vertex 52.972 64.216 -5
      vertex 54.39 64.004 5
    endloop
  endfacet
  facet normal -0.167341 -0.985899 0
    outer loop
      vertex 54.39 64.004 -5
      vertex 55.368 63.838 -5
      vertex 55.368 63.838 5
    endloop
  endfacet
  facet normal -0.167341 -0.985899 0
    outer loop
      vertex 54.39 64.004 5
      vertex 54.39 64.004 -5
      vertex 55.368 63.838 5
    endloop
  endfacet
  facet normal -0.255218 -0.966884 0
    outer loop
      vertex 55.368 63.838 -5
      vertex 55.762 63.734 -5
      vertex 55.762 63.734 5
    endloop
  endfacet
  facet normal -0.255218 -0.966884 0
    outer loop
      vertex 55.368 63.838 5
      vertex 55.368 63.838 -5
      vertex 55.762 63.734 5
    endloop
  endfacet
  facet normal -0.958228 -0.286007 0
    outer loop
      vertex 55.899 63.275 -5
      vertex 55.899 63.275 5
      vertex 55.762 63.734 -5
    endloop
  endfacet
  facet normal -0.958228 -0.286007 0
    outer loop
      vertex 55.762 63.734 -5
      vertex 55.899 63.275 5
      vertex 55.762 63.734 5
    endloop
  endfacet
  facet normal -0.981987 -0.188948 0
    outer loop
      vertex 56.107 62.194 -5
      vertex 56.107 62.194 5
      vertex 55.899 63.275 -5
    endloop
  endfacet
  facet normal -0.981987 -0.188948 0
    outer loop
      vertex 55.899 63.275 -5
      vertex 56.107 62.194 5
      vertex 55.899 63.275 5
    endloop
  endfacet
  facet normal -0.986583 -0.163261 0
    outer loop
      vertex 56.363 60.647 -5
      vertex 56.363 60.647 5
      vertex 56.107 62.194 -5
    endloop
  endfacet
  facet normal -0.986583 -0.163261 0
    outer loop
      vertex 56.107 62.194 -5
      vertex 56.363 60.647 5
      vertex 56.107 62.194 5
    endloop
  endfacet
  facet normal -0.988775 -0.14941 0
    outer loop
      vertex 56.643 58.794 -5
      vertex 56.643 58.794 5
      vertex 56.363 60.647 -5
    endloop
  endfacet
  facet normal -0.988775 -0.14941 0
    outer loop
      vertex 56.363 60.647 -5
      vertex 56.643 58.794 5
      vertex 56.363 60.647 5
    endloop
  endfacet
  facet normal -0.990068 -0.14059 0
    outer loop
      vertex 56.927 56.794 -5
      vertex 56.927 56.794 5
      vertex 56.643 58.794 -5
    endloop
  endfacet
  facet normal -0.990068 -0.14059 0
    outer loop
      vertex 56.643 58.794 -5
      vertex 56.927 56.794 5
      vertex 56.643 58.794 5
    endloop
  endfacet
  facet normal -0.991388 -0.130957 0
    outer loop
      vertex 57.19 54.803 -5
      vertex 57.19 54.803 5
      vertex 56.927 56.794 -5
    endloop
  endfacet
  facet normal -0.991388 -0.130957 0
    outer loop
      vertex 56.927 56.794 -5
      vertex 57.19 54.803 5
      vertex 56.927 56.794 5
    endloop
  endfacet
  facet normal -0.992797 -0.119811 0
    outer loop
      vertex 57.41 52.98 -5
      vertex 57.41 52.98 5
      vertex 57.19 54.803 -5
    endloop
  endfacet
  facet normal -0.992797 -0.119811 0
    outer loop
      vertex 57.19 54.803 -5
      vertex 57.41 52.98 5
      vertex 57.19 54.803 5
    endloop
  endfacet
  facet normal -0.994469 -0.105031 0
    outer loop
      vertex 57.568 51.484 -5
      vertex 57.568 51.484 5
      vertex 57.41 52.98 -5
    endloop
  endfacet
  facet normal -0.994469 -0.105031 0
    outer loop
      vertex 57.41 52.98 -5
      vertex 57.568 51.484 5
      vertex 57.41 52.98 5
    endloop
  endfacet
  facet normal -0.99848 -0.0551188 0
    outer loop
      vertex 57.681 49.437 -5
      vertex 57.681 49.437 5
      vertex 57.568 51.484 -5
    endloop
  endfacet
  facet normal -0.99848 -0.0551188 0
    outer loop
      vertex 57.568 51.484 -5
      vertex 57.681 49.437 5
      vertex 57.568 51.484 5
    endloop
  endfacet
  facet normal -0.999678 -0.0253626 0
    outer loop
      vertex 57.746 46.875 -5
      vertex 57.746 46.875 5
      vertex 57.681 49.437 -5
    endloop
  endfacet
  facet normal -0.999678 -0.0253626 0
    outer loop
      vertex 57.681 49.437 -5
      vertex 57.746 46.875 5
      vertex 57.681 49.437 5
    endloop
  endfacet
  facet normal -0.999978 -0.00658793 0
    outer loop
      vertex 57.765 43.991 -5
      vertex 57.765 43.991 5
      vertex 57.746 46.875 -5
    endloop
  endfacet
  facet normal -0.999978 -0.00658793 0
    outer loop
      vertex 57.746 46.875 -5
      vertex 57.765 43.991 5
      vertex 57.746 46.875 5
    endloop
  endfacet
  facet normal -0.999968 0.00795203 0
    outer loop
      vertex 57.741 40.973 5
      vertex 57.765 43.991 5
      vertex 57.741 40.973 -5
    endloop
  endfacet
  facet normal -0.999968 0.00795203 0
    outer loop
      vertex 57.741 40.973 -5
      vertex 57.765 43.991 5
      vertex 57.765 43.991 -5
    endloop
  endfacet
  facet normal -0.999751 0.0223144 0
    outer loop
      vertex 57.675 38.016 5
      vertex 57.741 40.973 5
      vertex 57.675 38.016 -5
    endloop
  endfacet
  facet normal -0.999751 0.0223144 0
    outer loop
      vertex 57.675 38.016 -5
      vertex 57.741 40.973 5
      vertex 57.741 40.973 -5
    endloop
  endfacet
  facet normal -0.999276 0.038036 0
    outer loop
      vertex 57.572 35.31 5
      vertex 57.675 38.016 5
      vertex 57.572 35.31 -5
    endloop
  endfacet
  facet normal -0.999276 0.038036 0
    outer loop
      vertex 57.572 35.31 -5
      vertex 57.675 38.016 5
      vertex 57.675 38.016 -5
    endloop
  endfacet
  facet normal -0.998068 0.0621314 0
    outer loop
      vertex 57.431 33.045 5
      vertex 57.572 35.31 5
      vertex 57.431 33.045 -5
    endloop
  endfacet
  facet normal -0.998068 0.0621314 0
    outer loop
      vertex 57.431 33.045 -5
      vertex 57.572 35.31 5
      vertex 57.572 35.31 -5
    endloop
  endfacet
  facet normal -0.994415 0.105542 0
    outer loop
      vertex 57.258 31.415 5
      vertex 57.431 33.045 5
      vertex 57.258 31.415 -5
    endloop
  endfacet
  facet normal -0.994415 0.105542 0
    outer loop
      vertex 57.258 31.415 -5
      vertex 57.431 33.045 5
      vertex 57.431 33.045 -5
    endloop
  endfacet
  facet normal -0.973521 0.228599 0
    outer loop
      vertex 56.129 26.607 5
      vertex 57.258 31.415 5
      vertex 56.129 26.607 -5
    endloop
  endfacet
  facet normal -0.973521 0.228599 0
    outer loop
      vertex 56.129 26.607 -5
      vertex 57.258 31.415 5
      vertex 57.258 31.415 -5
    endloop
  endfacet
  facet normal -0.933494 0.358593 0
    outer loop
      vertex 54.322 21.903 5
      vertex 56.129 26.607 5
      vertex 54.322 21.903 -5
    endloop
  endfacet
  facet normal -0.933494 0.358593 0
    outer loop
      vertex 54.322 21.903 -5
      vertex 56.129 26.607 5
      vertex 56.129 26.607 -5
    endloop
  endfacet
  facet normal -0.86213 0.506686 0
    outer loop
      vertex 51.27 16.71 5
      vertex 54.322 21.903 5
      vertex 51.27 16.71 -5
    endloop
  endfacet
  facet normal -0.86213 0.506686 0
    outer loop
      vertex 51.27 16.71 -5
      vertex 54.322 21.903 5
      vertex 54.322 21.903 -5
    endloop
  endfacet
  facet normal -0.765576 0.643345 0
    outer loop
      vertex 47.333 12.025 5
      vertex 51.27 16.71 5
      vertex 47.333 12.025 -5
    endloop
  endfacet
  facet normal -0.765576 0.643345 0
    outer loop
      vertex 47.333 12.025 -5
      vertex 51.27 16.71 5
      vertex 51.27 16.71 -5
    endloop
  endfacet
  facet normal -0.652123 0.758113 0
    outer loop
      vertex 42.648 7.995 5
      vertex 47.333 12.025 5
      vertex 42.648 7.995 -5
    endloop
  endfacet
  facet normal -0.652123 0.758113 0
    outer loop
      vertex 42.648 7.995 -5
      vertex 47.333 12.025 5
      vertex 47.333 12.025 -5
    endloop
  endfacet
  facet normal -0.520725 0.853724 0
    outer loop
      vertex 37.359 4.769 5
      vertex 42.648 7.995 5
      vertex 37.359 4.769 -5
    endloop
  endfacet
  facet normal -0.520725 0.853724 0
    outer loop
      vertex 37.359 4.769 -5
      vertex 42.648 7.995 5
      vertex 42.648 7.995 -5
    endloop
  endfacet
  facet normal -0.410034 0.91207 0
    outer loop
      vertex 35.297 3.842 5
      vertex 37.359 4.769 5
      vertex 35.297 3.842 -5
    endloop
  endfacet
  facet normal -0.410034 0.91207 0
    outer loop
      vertex 35.297 3.842 -5
      vertex 37.359 4.769 5
      vertex 37.359 4.769 -5
    endloop
  endfacet
  facet normal -0.360617 0.932714 0
    outer loop
      vertex 33.008 2.957 5
      vertex 35.297 3.842 5
      vertex 33.008 2.957 -5
    endloop
  endfacet
  facet normal -0.360617 0.932714 0
    outer loop
      vertex 33.008 2.957 -5
      vertex 35.297 3.842 5
      vertex 35.297 3.842 -5
    endloop
  endfacet
  facet normal -0.31185 0.950131 0
    outer loop
      vertex 30.988 2.294 5
      vertex 33.008 2.957 5
      vertex 30.988 2.294 -5
    endloop
  endfacet
  facet normal -0.31185 0.950131 0
    outer loop
      vertex 30.988 2.294 -5
      vertex 33.008 2.957 5
      vertex 33.008 2.957 -5
    endloop
  endfacet
  facet normal -0.204392 0.978889 0
    outer loop
      vertex 29.738 2.033 5
      vertex 30.988 2.294 5
      vertex 29.738 2.033 -5
    endloop
  endfacet
  facet normal -0.204392 0.978889 0
    outer loop
      vertex 29.738 2.033 -5
      vertex 30.988 2.294 5
      vertex 30.988 2.294 -5
    endloop
  endfacet
  facet normal 0.188681 0.982038 0
    outer loop
      vertex 28.645 2.243 5
      vertex 29.738 2.033 5
      vertex 28.645 2.243 -5
    endloop
  endfacet
  facet normal 0.188681 0.982038 0
    outer loop
      vertex 28.645 2.243 -5
      vertex 29.738 2.033 5
      vertex 29.738 2.033 -5
    endloop
  endfacet
  facet normal 0.309644 0.950853 0
    outer loop
      vertex 26.91 2.808 5
      vertex 28.645 2.243 5
      vertex 26.91 2.808 -5
    endloop
  endfacet
  facet normal 0.309644 0.950853 0
    outer loop
      vertex 26.91 2.808 -5
      vertex 28.645 2.243 5
      vertex 28.645 2.243 -5
    endloop
  endfacet
  facet normal 0.364031 0.931387 0
    outer loop
      vertex 24.812 3.628 5
      vertex 26.91 2.808 5
      vertex 24.812 3.628 -5
    endloop
  endfacet
  facet normal 0.364031 0.931387 0
    outer loop
      vertex 24.812 3.628 -5
      vertex 26.91 2.808 5
      vertex 26.91 2.808 -5
    endloop
  endfacet
  facet normal 0.406138 0.913812 0
    outer loop
      vertex 22.625 4.6 5
      vertex 24.812 3.628 5
      vertex 22.625 4.6 -5
    endloop
  endfacet
  facet normal 0.406138 0.913812 0
    outer loop
      vertex 22.625 4.6 -5
      vertex 24.812 3.628 5
      vertex 24.812 3.628 -5
    endloop
  endfacet
  facet normal 0.482246 0.876036 0
    outer loop
      vertex 18.921 6.639 5
      vertex 22.625 4.6 5
      vertex 18.921 6.639 -5
    endloop
  endfacet
  facet normal 0.482246 0.876036 0
    outer loop
      vertex 18.921 6.639 -5
      vertex 22.625 4.6 5
      vertex 22.625 4.6 -5
    endloop
  endfacet
  facet normal 0.581685 0.813414 0
    outer loop
      vertex 15.481 9.099 5
      vertex 18.921 6.639 5
      vertex 15.481 9.099 -5
    endloop
  endfacet
  facet normal 0.581685 0.813414 0
    outer loop
      vertex 15.481 9.099 -5
      vertex 18.921 6.639 5
      vertex 18.921 6.639 -5
    endloop
  endfacet
  facet normal 0.669828 0.742517 0
    outer loop
      vertex 12.345 11.928 5
      vertex 15.481 9.099 5
      vertex 12.345 11.928 -5
    endloop
  endfacet
  facet normal 0.669828 0.742517 0
    outer loop
      vertex 12.345 11.928 -5
      vertex 15.481 9.099 5
      vertex 15.481 9.099 -5
    endloop
  endfacet
  facet normal 0.748143 0.663537 0
    outer loop
      vertex 9.553 15.076 -5
      vertex 9.553 15.076 5
      vertex 12.345 11.928 5
    endloop
  endfacet
  facet normal 0.748143 0.663537 0
    outer loop
      vertex 12.345 11.928 -5
      vertex 9.553 15.076 -5
      vertex 12.345 11.928 5
    endloop
  endfacet
  facet normal 0.81726 0.57627 0
    outer loop
      vertex 7.145 18.491 -5
      vertex 7.145 18.491 5
      vertex 9.553 15.076 5
    endloop
  endfacet
  facet normal 0.81726 0.57627 0
    outer loop
      vertex 9.553 15.076 -5
      vertex 7.145 18.491 -5
      vertex 9.553 15.076 5
    endloop
  endfacet
  facet normal 0.877627 0.479344 0
    outer loop
      vertex 5.164 22.118 -5
      vertex 5.164 22.118 5
      vertex 7.145 18.491 5
    endloop
  endfacet
  facet normal 0.877627 0.479344 0
    outer loop
      vertex 7.145 18.491 -5
      vertex 5.164 22.118 -5
      vertex 7.145 18.491 5
    endloop
  endfacet
  facet normal 0.928443 0.371475 0
    outer loop
      vertex 3.648 25.907 -5
      vertex 3.648 25.907 5
      vertex 5.164 22.118 5
    endloop
  endfacet
  facet normal 0.928443 0.371475 0
    outer loop
      vertex 5.164 22.118 -5
      vertex 3.648 25.907 -5
      vertex 5.164 22.118 5
    endloop
  endfacet
  facet normal 0.968169 0.250299 0
    outer loop
      vertex 2.64 29.806 -5
      vertex 2.64 29.806 5
      vertex 3.648 25.907 5
    endloop
  endfacet
  facet normal 0.968169 0.250299 0
    outer loop
      vertex 3.648 25.907 -5
      vertex 2.64 29.806 -5
      vertex 3.648 25.907 5
    endloop
  endfacet
  facet normal 0.989827 0.142274 0
    outer loop
      vertex 2.173 33.055 -5
      vertex 2.173 33.055 5
      vertex 2.64 29.806 5
    endloop
  endfacet
  facet normal 0.989827 0.142274 0
    outer loop
      vertex 2.64 29.806 -5
      vertex 2.173 33.055 -5
      vertex 2.64 29.806 5
    endloop
  endfacet
  facet normal 0.996856 0.0792292 0
    outer loop
      vertex 1.874 36.817 -5
      vertex 1.874 36.817 5
      vertex 2.173 33.055 5
    endloop
  endfacet
  facet normal 0.996856 0.0792292 0
    outer loop
      vertex 2.173 33.055 -5
      vertex 1.874 36.817 -5
      vertex 2.173 33.055 5
    endloop
  endfacet
endsolid OpenSCAD_Model
