<?xml version="1.0" encoding="UTF-8" standalone="no"?>
<!-- Created with Inkscape (http://www.inkscape.org/) -->

<svg
   xmlns:dc="http://purl.org/dc/elements/1.1/"
   xmlns:cc="http://creativecommons.org/ns#"
   xmlns:rdf="http://www.w3.org/1999/02/22-rdf-syntax-ns#"
   xmlns:svg="http://www.w3.org/2000/svg"
   xmlns="http://www.w3.org/2000/svg"
   xmlns:sodipodi="http://sodipodi.sourceforge.net/DTD/sodipodi-0.dtd"
   xmlns:inkscape="http://www.inkscape.org/namespaces/inkscape"
   width="210mm"
   height="297mm"
   id="svg2"
   version="1.1"
   inkscape:version="0.48.2 r9819"
   sodipodi:docname="Neues Dokument 1">
  <defs
     id="defs4">
	
	
	
	
	
	
	
	
	
	
	
	
	
	
	
	
	
	
	
	
	
	
	
	
	
	
	
	
	
	
	
	
	
	
	
	
	

		
		
		
		
	</defs>
  <sodipodi:namedview
     id="base"
     pagecolor="#ffffff"
     bordercolor="#666666"
     borderopacity="1.0"
     inkscape:pageopacity="0.0"
     inkscape:pageshadow="2"
     inkscape:zoom="1.4"
     inkscape:cx="225.2787"
     inkscape:cy="369.90146"
     inkscape:document-units="px"
     inkscape:current-layer="layer1"
     showgrid="false"
     inkscape:window-width="1920"
     inkscape:window-height="1017"
     inkscape:window-x="-8"
     inkscape:window-y="-8"
     inkscape:window-maximized="1" />
  <metadata
     id="metadata7">
    <rdf:RDF>
      <cc:Work
         rdf:about="">
        <dc:format>image/svg+xml</dc:format>
        <dc:type
           rdf:resource="http://purl.org/dc/dcmitype/StillImage" />
        <dc:title></dc:title>
      </cc:Work>
    </rdf:RDF>
  </metadata>
  <g
     inkscape:label="Ebene 1"
     inkscape:groupmode="layer"
     id="layer1">
    <path
       style="fill:#ffffff;fill-rule:evenodd"
       inkscape:connector-curvature="0"
       id="path6323"
       d="m 499.00326,613.84075 c 2.3,-49.6 -6.1,-89.8 -6.1,-89.8 0,0 -32.2,-6.2 -81.3,-6.2 -49.2,0 -81.9,6.8 -81.9,6.8 0,0 -8.9,40.4 -6.5,89.1 h 175.8 z"
       class="st5" />
    <path
       class="st2"
       d="m 414.20326,728.04075 -91.1,-110.1 c -3.3,22.7 15.1,89.6 91.1,110.1 z"
       id="path6327"
       inkscape:connector-curvature="0"
       style="fill:#ffffff" />
    <path
       class="st2"
       d="m 350.30326,617.24075 84.3,101.7 c 8.5,-4.1 14.8,-8.1 20.8,-12.9 l -73.6,-88.8 h -31.5 z"
       id="path6329"
       inkscape:connector-curvature="0"
       style="fill:#ffffff" />
    <path
       class="st2"
       d="m 408.80326,617.34075 62.3,75.1 c 6.1,-6.9 11.3,-13.2 15,-19.8 l -45.8,-55.3 h -31.5 z"
       id="path6331"
       inkscape:connector-curvature="0"
       style="fill:#ffffff" />
    <path
       class="st2"
       d="m 500.10326,617.34075 -31.1,-0.1 26.1,31.5 c 4.5,-9.7 5,-26 5,-31.4 z"
       id="path6333"
       inkscape:connector-curvature="0"
       style="fill:#ffffff" />
    <path
       style="fill:#ffffff;stroke:none"
       inkscape:connector-curvature="0"
       id="path6335-4"
       d="m 451.8183,657.52328 c 0,0 0,0 0,0 -0.2187,-0.76126 -0.87482,-1.41376 -1.6403,-1.74002 l -5.6864,-1.95753 c -0.54677,-0.21751 -0.98419,-0.10875 -1.53096,0 -0.4374,-1.95753 -1.53095,-3.69755 -3.17125,-4.89381 -0.21872,-0.10875 -0.43743,-0.32625 -0.65612,-0.435 -0.32808,-0.21752 -0.76548,-0.43502 -1.2029,-0.65252 -0.76547,-0.32625 -1.53095,-0.54376 -2.18707,-0.76126 -1.64031,-0.54375 -3.28062,-1.08752 -5.35835,-2.50127 -1.96837,-1.41377 -2.84319,-2.71879 -3.71802,-3.91507 -0.21871,-0.32624 -0.43741,-0.54374 -0.65612,-0.87 -0.54677,-0.87001 -1.31225,-1.63128 -2.07772,-2.28378 -1.42161,-0.97876 -3.17127,-1.52252 -4.92093,-1.52252 -0.43741,0 -0.76548,0.10875 -1.20288,0.10875 0,0 0,0 0,-0.10875 0.10934,-0.65251 -0.10937,-1.41378 -0.43743,-1.95752 l -3.49932,-4.67631 c -0.54677,-0.65251 -1.31225,-1.08753 -2.18707,-1.08753 0,0 0,0 0,0 -0.87483,0 -1.64031,0.32626 -2.07772,0.97876 l -3.71804,4.67632 c -0.43741,0.54376 -0.65612,1.30502 -0.54676,2.06628 l 0,0 c -0.32807,0 -0.54676,-0.10876 -0.87484,-0.10876 -1.74965,0 -3.49931,0.54376 -4.92092,1.52253 -0.2187,0.10875 -0.43741,0.32625 -0.54677,0.43501 -0.32805,0.32624 -0.65611,0.54374 -0.98419,0.97876 -0.54677,0.6525 -0.98417,1.19626 -1.42159,1.84876 -1.09354,1.41378 -1.96837,2.7188 -4.15544,4.24132 -1.96837,1.41376 -3.49932,1.84877 -4.92093,2.28378 -0.32805,0.10874 -0.65611,0.2175 -0.98418,0.32625 -0.98418,0.21751 -1.96836,0.65251 -2.84321,1.30502 -1.74965,1.19626 -2.84319,3.04503 -3.2806,5.11131 -0.54677,-0.2175 -1.20289,-0.2175 -1.85901,-0.10875 l -5.57706,1.84877 c -0.76547,0.2175 -1.42159,0.87002 -1.74966,1.63128 0,0 0,0 0,0 -0.2187,0.76126 -0.10934,1.63127 0.32807,2.28378 l 3.38997,4.89382 c 0.43741,0.54374 0.98419,0.87 1.6403,1.08751 -0.87482,1.84878 -1.09353,4.13255 -0.43741,6.09008 0.10936,0.2175 0.2187,0.435 0.2187,0.65251 0.10937,0.435 0.32807,0.87001 0.65614,1.30501 0.4374,0.65251 0.87482,1.30501 1.31223,1.84878 1.09354,1.41377 2.07773,2.71878 2.8432,5.22007 0.76548,2.28378 0.65613,3.8063 0.65613,5.32882 0,0.32624 0,0.76126 0,1.08751 -0.10936,1.08751 0,2.06627 0.43741,3.04503 0.65612,1.95754 2.07773,3.5888 3.71803,4.56757 -0.21871,0.43501 -0.43741,0.87001 -0.32806,1.30502 l 0,5.87258 c 0,0.87001 0.43742,1.63127 1.09353,2.06627 0,0 0,0 0,0 0.65614,0.435 1.53096,0.65251 2.29643,0.435 l 5.79576,-1.63126 c 0.54677,-0.10876 0.87483,-0.54376 1.20289,-0.87001 1.74967,1.63127 4.15545,2.39253 6.45188,2.28377 0.43741,0 0.87482,-0.10875 1.42159,-0.2175 0.76548,-0.2175 1.53096,-0.435 2.18709,-0.65252 1.6403,-0.54374 3.28061,-1.0875 5.90509,-1.0875 2.4058,0 3.82739,0.54376 5.35834,0.97876 0.32806,0.10874 0.65613,0.2175 0.9842,0.32626 0.98417,0.435 2.07771,0.54375 3.0619,0.54375 2.07771,0 4.15543,-0.87001 5.68639,-2.28378 0.32807,0.43501 0.65613,0.65251 1.2029,0.87001 l 5.68639,1.74002 c 0.76548,0.21751 1.64031,0.10876 2.40579,-0.32625 0,0 0,0 0,0 0.65612,-0.435 1.09354,-1.19627 1.09354,-2.06627 l 0.10935,-5.87258 c 0,-0.43502 -0.10935,-0.87002 -0.32807,-1.30502 1.74967,-0.97876 3.17127,-2.61003 3.71804,-4.56755 0.10935,-0.21751 0.10935,-0.43501 0.21871,-0.76127 0.10935,-0.435 0.2187,-0.87001 0.2187,-1.41378 0.10936,-0.76125 0.10936,-1.52251 0.10936,-2.28377 0,-1.74003 0,-3.37129 0.76548,-5.87257 0.76548,-2.28378 1.6403,-3.48006 2.62448,-4.67631 0.21872,-0.32627 0.43743,-0.54377 0.65613,-0.87002 0.65612,-0.76126 1.20289,-1.74003 1.53095,-2.71878 0.65612,-2.06628 0.43742,-4.35007 -0.54677,-6.30759 0.54677,-0.2175 0.98419,-0.435 1.31225,-0.87 l 3.49932,-4.78508 c 0.54677,-0.54374 0.76548,-1.305 0.43741,-2.17502 z"
       class="st0" />
    <path
       style="fill:#ffffff"
       inkscape:connector-curvature="0"
       id="path6335"
       d="m 448.30326,658.54075 c 0,0 0,0 0,0 -0.2,-0.7 -0.8,-1.3 -1.5,-1.6 l -5.2,-1.8 c -0.5,-0.2 -0.9,-0.1 -1.4,0 -0.4,-1.8 -1.4,-3.4 -2.9,-4.5 -0.2,-0.1 -0.4,-0.3 -0.6,-0.4 -0.3,-0.2 -0.7,-0.4 -1.1,-0.6 -0.7,-0.3 -1.4,-0.5 -2,-0.7 -1.5,-0.5 -3,-1 -4.9,-2.3 -1.8,-1.3 -2.6,-2.5 -3.4,-3.6 -0.2,-0.3 -0.4,-0.5 -0.6,-0.8 -0.5,-0.8 -1.2,-1.5 -1.9,-2.1 -1.3,-0.9 -2.9,-1.4 -4.5,-1.4 -0.4,0 -0.7,0.1 -1.1,0.1 0,0 0,0 0,-0.1 0.1,-0.6 -0.1,-1.3 -0.4,-1.8 l -3.2,-4.3 c -0.5,-0.6 -1.2,-1 -2,-1 0,0 0,0 0,0 -0.8,0 -1.5,0.3 -1.9,0.9 l -3.4,4.3 c -0.4,0.5 -0.6,1.2 -0.5,1.9 l 0,0 c -0.3,0 -0.5,-0.1 -0.8,-0.1 -1.6,0 -3.2,0.5 -4.5,1.4 -0.2,0.1 -0.4,0.3 -0.5,0.4 -0.3,0.3 -0.6,0.5 -0.9,0.9 -0.5,0.6 -0.9,1.1 -1.3,1.7 -1,1.3 -1.8,2.5 -3.8,3.9 -1.8,1.3 -3.2,1.7 -4.5,2.1 -0.3,0.1 -0.6,0.2 -0.9,0.3 -0.9,0.2 -1.8,0.6 -2.6,1.2 -1.6,1.1 -2.6,2.8 -3,4.7 -0.5,-0.2 -1.1,-0.2 -1.7,-0.1 l -5.1,1.7 c -0.7,0.2 -1.3,0.8 -1.6,1.5 0,0 0,0 0,0 -0.2,0.7 -0.1,1.5 0.3,2.1 l 3.1,4.5 c 0.4,0.5 0.9,0.8 1.5,1 -0.8,1.7 -1,3.8 -0.4,5.6 0.1,0.2 0.2,0.4 0.2,0.6 0.1,0.4 0.3,0.8 0.6,1.2 0.4,0.6 0.8,1.2 1.2,1.7 1,1.3 1.9,2.5 2.6,4.8 0.7,2.1 0.6,3.5 0.6,4.9 0,0.3 0,0.7 0,1 -0.1,1 0,1.9 0.4,2.8 0.6,1.8 1.9,3.3 3.4,4.2 -0.2,0.4 -0.4,0.8 -0.3,1.2 l 0,5.4 c 0,0.8 0.4,1.5 1,1.9 0,0 0,0 0,0 0.6,0.4 1.4,0.6 2.1,0.4 l 5.3,-1.5 c 0.5,-0.1 0.8,-0.5 1.1,-0.8 1.6,1.5 3.8,2.2 5.9,2.1 0.4,0 0.8,-0.1 1.3,-0.2 0.7,-0.2 1.4,-0.4 2,-0.6 1.5,-0.5 3,-1 5.4,-1 2.2,0 3.5,0.5 4.9,0.9 0.3,0.1 0.6,0.2 0.9,0.3 0.9,0.4 1.9,0.5 2.8,0.5 1.9,0 3.8,-0.8 5.2,-2.1 0.3,0.4 0.6,0.6 1.1,0.8 l 5.2,1.6 c 0.7,0.2 1.5,0.1 2.2,-0.3 0,0 0,0 0,0 0.6,-0.4 1,-1.1 1,-1.9 l 0.1,-5.4 c 0,-0.4 -0.1,-0.8 -0.3,-1.2 1.6,-0.9 2.9,-2.4 3.4,-4.2 0.1,-0.2 0.1,-0.4 0.2,-0.7 0.1,-0.4 0.2,-0.8 0.2,-1.3 0.1,-0.7 0.1,-1.4 0.1,-2.1 0,-1.6 0,-3.1 0.7,-5.4 0.7,-2.1 1.5,-3.2 2.4,-4.3 0.2,-0.3 0.4,-0.5 0.6,-0.8 0.6,-0.7 1.1,-1.6 1.4,-2.5 0.6,-1.9 0.4,-4 -0.5,-5.8 0.5,-0.2 0.9,-0.4 1.2,-0.8 l 3.2,-4.4 c 0.5,-0.5 0.7,-1.2 0.4,-2 z"
       class="st0" />
    <path
       style="fill:#ffffff"
       inkscape:connector-curvature="0"
       id="path6337"
       d="m 408.70326,670.24075 c 0,-1.7 1.4,-3 3.1,-3 1.7,0 3.1,1.4 3.1,3 0,1.7 -1.4,3 -3.1,3 -1.7,0 -3.1,-1.4 -3.1,-3 z"
       class="st6" />
    <path
       style="fill:#000000;stroke:none;stroke-width:1;stroke-miterlimit:4;stroke-opacity:1;stroke-dasharray:none"
       inkscape:connector-curvature="0"
       id="path6339"
       d="m 411.70326,644.44075 c -0.5,-1.9 -1.7,-3.5 -3.2,-4.4 l 3.2,-4.1 3,4.1 c -1.5,1 -2.5,2.5 -3,4.4 m -24.5,17.8 c -1.6,-1.1 -2.7,-2.5 -3.3,-4.2 l -4.8,1.6 2.9,4.2 c 1.4,-1 3.3,-1.6 5.2,-1.6 m 9.5,28.3 c -1.5,1.2 -3.2,1.8 -5.1,1.8 l 0,5.1 5,-1.5 c -0.6,-1.6 -0.6,-3.5 0.1,-5.4 m 30,0.1 c 0.7,1.8 0.7,3.6 0.1,5.3 l 4.9,1.5 0.1,-5.1 c -1.7,0.1 -3.5,-0.5 -5.1,-1.7 m 9.3,-28.3 c 2,-0.1 3.7,0.4 5.1,1.5 l 3,-4.1 -4.9,-1.7 c -0.4,1.6 -1.6,3.2 -3.2,4.3 m -30.5,28.4 c -2.3,0 -4.1,-1.8 -4.1,-4.1 0,-0.3 -0.3,-0.4 -0.5,-0.2 -1.5,1.8 -2.6,3.4 -2.7,5.3 -0.1,2.8 2.3,5.1 5.2,5.1 0.2,0 0.4,0 0.5,0 0.3,0 0.5,0 0.9,-0.1 2,-0.5 3.8,-1.5 7.2,-1.5 2.9,0 4.4,0.8 5.9,1.2 0.6,0.2 1.3,0.4 2,0.4 2.9,0 5.2,-2.3 5.2,-5.1 0,-2 -1.2,-3.5 -2.7,-5.3 -0.1,-0.2 -0.4,0 -0.4,0.2 0,2.2 -1.9,4.1 -4.1,4.1 -1.7,0 -3.9,-1.5 -6.1,-1.5 -1.9,0 -4.6,1.5 -6.3,1.5 z m -2.7,-5.6 c 0,1.9 1.5,3.4 3.4,3.4 0.2,0 0.4,0 0.7,-0.1 0.1,0 0.2,0 0.3,-0.1 0,0 0.1,0 0.1,0 1.2,-0.4 2.3,-0.9 4.4,-0.9 2.1,0 3.1,0.6 4.3,0.9 0.4,0.1 0.8,0.2 1.2,0.2 1.9,0 3.4,-1.5 3.4,-3.4 0,-0.5 -0.1,-1 -0.3,-1.4 -0.1,-0.2 -0.2,-0.4 -0.3,-0.5 0,0 -5.8,-7.9 -6,-8.1 -0.3,-0.4 -0.7,-0.2 -0.9,-0.1 -0.3,0.1 -1,0.3 -1.5,0.3 -0.5,0 -1.1,-0.1 -1.4,-0.3 -0.4,-0.2 -0.7,-0.3 -0.9,0.1 -0.2,0.3 -4.4,6 -5.7,7.8 -0.5,0.6 -0.8,1.3 -0.8,2.2 z m 26.7,-2.6 c -0.7,2.2 -3,3.3 -5.2,2.6 -0.3,-0.1 -0.5,0.1 -0.3,0.4 1.3,1.9 2.4,3.5 4.3,4.2 2.7,0.9 5.7,-0.6 6.5,-3.3 0.1,-0.2 0.1,-0.3 0.1,-0.5 0.1,-0.2 0.1,-0.5 0.2,-0.8 0.2,-2.1 -0.3,-4 0.8,-7.3 0.9,-2.7 2.1,-3.9 3,-5.2 0.4,-0.5 0.8,-1.1 1,-1.7 0.9,-2.7 -0.6,-5.7 -3.3,-6.5 -1.9,-0.6 -3.8,0.1 -6,0.9 -0.2,0.1 -0.2,0.3 0.1,0.4 2.2,0.7 3.4,3 2.7,5.2 -0.5,1.6 -2.6,3.2 -3.3,5.3 -0.6,1.7 0,4.6 -0.6,6.3 z m -6.2,0.8 c 1.8,0.6 3.8,-0.4 4.4,-2.2 0.1,-0.2 0.1,-0.4 0.1,-0.7 0,-0.1 0,-0.2 0,-0.3 0,0 0,-0.1 0,-0.1 0,-1.2 -0.2,-2.5 0.4,-4.4 0.7,-2 1.5,-2.8 2.2,-3.8 0.2,-0.3 0.4,-0.7 0.6,-1.1 0.6,-1.8 -0.4,-3.7 -2.2,-4.3 -0.5,-0.1 -1,-0.2 -1.4,-0.1 -0.2,0 -0.4,0 -0.6,0.1 0,0 -9.4,3 -9.7,3.1 -0.4,0.2 -0.4,0.6 -0.4,0.8 0,0.3 -0.1,1 -0.2,1.5 -0.1,0.4 -0.4,1 -0.7,1.3 -0.3,0.3 -0.5,0.6 -0.2,0.9 0.3,0.3 4.3,6 5.7,7.8 0.5,0.7 1.2,1.2 2,1.5 z m 5.6,-26.2 c 1.9,1.3 2.3,3.9 0.9,5.7 -0.2,0.2 0,0.5 0.3,0.4 2.3,-0.6 4.1,-1.2 5.3,-2.8 1.7,-2.3 1.2,-5.5 -1.1,-7.2 -0.1,-0.1 -0.3,-0.2 -0.5,-0.3 -0.2,-0.2 -0.4,-0.3 -0.8,-0.4 -1.9,-0.8 -3.9,-1 -6.7,-3 -2.3,-1.7 -3.1,-3.2 -4.1,-4.5 -0.3,-0.5 -0.8,-1 -1.4,-1.5 -2.3,-1.7 -5.6,-1.2 -7.2,1.1 -1.1,1.6 -1.1,3.6 -1,5.9 0,0.2 0.3,0.3 0.4,0 1.3,-1.8 3.9,-2.2 5.8,-0.9 1.4,1 2.3,3.5 4.1,4.7 1.6,1.5 4.6,1.8 6,2.8 z m -1.1,6.2 c 1.1,-1.5 0.8,-3.7 -0.8,-4.8 -0.1,-0.1 -0.3,-0.3 -0.6,-0.4 -0.1,0 -0.2,-0.1 -0.3,-0.1 0,0 -0.1,0 -0.1,0 -1.2,-0.4 -2.4,-0.6 -4.1,-1.8 -1.7,-1.2 -2.2,-2.3 -2.9,-3.2 -0.2,-0.3 -0.5,-0.6 -0.8,-0.9 -1.5,-1.1 -3.7,-0.8 -4.8,0.8 -0.3,0.4 -0.5,0.8 -0.6,1.3 0,0.2 -0.1,0.4 -0.1,0.6 0,0 0,9.8 0,10.1 0,0.5 0.4,0.5 0.7,0.6 0.3,0.1 1,0.4 1.3,0.6 0.4,0.3 0.8,0.7 1,1 0.2,0.3 0.4,0.6 0.8,0.4 0.4,-0.2 7.1,-2.3 9.2,-3 0.9,-0.1 1.6,-0.6 2.1,-1.2 z m -23.3,-13.4 c 1.8,-1.3 4.4,-0.9 5.8,0.9 0.2,0.2 0.5,0.2 0.5,-0.1 0.1,-2.3 0.1,-4.3 -1,-5.9 -1.6,-2.3 -4.9,-2.8 -7.2,-1.1 -0.2,0.1 -0.3,0.2 -0.4,0.3 -0.2,0.1 -0.4,0.3 -0.6,0.6 -1.4,1.6 -2.2,3.4 -5,5.4 -2.3,1.7 -4,2 -5.5,2.4 -0.6,0.2 -1.3,0.4 -1.8,0.8 -2.3,1.7 -2.9,4.9 -1.1,7.2 1.2,1.6 3.1,2.2 5.3,2.8 0.2,0.1 0.3,-0.2 0.2,-0.4 -1.3,-1.8 -0.9,-4.4 0.9,-5.7 1.4,-1 4,-1.1 5.8,-2.4 1.4,-1 2.7,-3.8 4.1,-4.8 z m 5.6,3 c -1.1,-1.5 -3.3,-1.9 -4.8,-0.8 -0.2,0.1 -0.3,0.2 -0.5,0.4 -0.1,0.1 -0.1,0.1 -0.2,0.2 0,0 -0.1,0.1 -0.1,0.1 -0.7,1 -1.3,2.1 -3,3.3 -1.7,1.2 -2.9,1.3 -4,1.8 -0.4,0.1 -0.8,0.3 -1.1,0.5 -1.5,1.1 -1.9,3.2 -0.8,4.8 0.3,0.4 0.7,0.7 1.1,0.9 0.2,0.1 0.3,0.2 0.5,0.2 0,0 9.4,3 9.7,3.1 0.5,0.1 0.7,-0.2 0.8,-0.4 0.2,-0.2 0.6,-0.8 1,-1.1 0.4,-0.3 0.9,-0.5 1.3,-0.6 0.4,-0.1 0.7,-0.2 0.7,-0.6 0,-0.4 0,-7.4 0,-9.6 0.1,-0.7 -0.1,-1.5 -0.6,-2.2 z m -20,17.9 c -0.7,-2.2 0.5,-4.5 2.6,-5.2 0.3,-0.1 0.3,-0.4 0.1,-0.5 -2.2,-0.8 -4.1,-1.5 -5.9,-0.9 -2.7,0.8 -4.2,3.8 -3.3,6.5 0,0.2 0.1,0.3 0.2,0.5 0.1,0.2 0.2,0.5 0.4,0.8 1.1,1.8 2.6,3.1 3.7,6.4 0.9,2.7 0.6,4.4 0.6,6 -0.1,0.6 0,1.3 0.2,2 0.9,2.7 3.8,4.2 6.5,3.3 1.9,-0.6 3,-2.2 4.3,-4.2 0.1,-0.2 -0.1,-0.4 -0.3,-0.3 -2.2,0.7 -4.5,-0.5 -5.2,-2.6 -0.5,-1.6 0.2,-4.1 -0.5,-6.2 -0.6,-1.9 -2.9,-4 -3.4,-5.6 z m 4.5,-4.3 c -1.8,0.6 -2.8,2.5 -2.2,4.3 0,0.2 0.1,0.4 0.3,0.6 0.1,0.1 0.1,0.2 0.2,0.2 0,0 0,0.1 0.1,0.1 0.7,1 1.6,1.9 2.3,3.8 0.7,2 0.4,3.1 0.5,4.3 0,0.4 0,0.8 0.2,1.2 0.6,1.8 2.5,2.8 4.3,2.2 0.5,-0.1 0.9,-0.4 1.2,-0.7 0.1,-0.1 0.3,-0.3 0.4,-0.4 0,0 5.8,-7.9 5.9,-8.2 0.3,-0.4 0,-0.7 -0.2,-0.9 -0.2,-0.2 -0.6,-0.8 -0.7,-1.3 -0.1,-0.4 -0.2,-1 -0.2,-1.4 0,-0.4 0,-0.7 -0.4,-0.8 -0.4,-0.1 -7.1,-2.3 -9.2,-3 -0.8,-0.2 -1.6,-0.3 -2.5,0 z"
       class="st7" />
    <path
       style="fill:#ffc758"
       inkscape:connector-curvature="0"
       id="path6341"
       d="m 440.50326,564.44075 21.1,-7.3 c 0,0 -1.8,8.8 -1.3,15.6 0.6,8.8 5.7,15.5 5.7,15.5 l -26,9 0.5,-32.8 z"
       class="st6" />
    <g
       id="g6343"
       transform="translate(207.10326,405.04075)">
		<path
   style="fill:#d4a11e"
   inkscape:connector-curvature="0"
   id="path6345"
   d="m 258.9,183.2 c 0,0 -4.6,-6.6 -5.4,-14.3 -0.6,-5.8 0,-10.8 1,-16.8 -0.9,4 -4.3,15.3 -13.8,25.8 -3.8,4.2 -5.5,7.9 -6.2,10.5 l -0.4,-49.7 0,0 0,0 c 0,0 -5,1.8 -5.5,1.9 -0.6,0.2 -0.9,0.6 -0.9,0.7 0,0.3 -0.2,0.5 -0.6,0.6 -0.4,0.1 -3.3,1.2 -5.3,1.8 -0.4,0.1 -0.2,0.5 0,0.5 2.4,-0.1 5.8,-0.4 6.1,-0.4 0.5,-0.1 0.7,-0.3 0.7,-0.6 0,0 0,0 0,-0.1 0.1,-0.4 0.4,-0.7 0.8,-0.7 0.3,0 2.1,-0.2 3.2,-0.4 l -0.5,53.5 2.4,0 0,-3.8 24.4,-8.5 z"
   class="st8" />

	</g>
    <g
       id="g6347"
       transform="translate(207.10326,405.04075)">
		<path
   style="fill:#ffc758"
   inkscape:connector-curvature="0"
   id="path6349"
   d="m 165.4,193.6 c 0,0 -3.9,-2.9 -5,-8.4 -1.1,-5.6 1.7,-8.8 1.7,-8.8 l 25.6,-8.8 c 0,0 -1.6,5.1 -0.1,10.9 1.9,7.3 5.8,12.2 5.8,12.2 0,0 -9.4,-1.8 -18.5,-0.6 -8.6,1.1 -9.5,3.5 -9.5,3.5 z"
   class="st6" />

	</g>
    <path
       style="fill:#ffc758"
       inkscape:connector-curvature="0"
       id="path6351"
       d="m 343.10326,592.24075 c 0,0 3.2,-8.7 12.5,-18.2 7.1,-7.2 11.7,-9.3 11.7,-9.3 0,0 -4.1,5.9 -5.8,15.6 -1.1,6 0.1,13.6 0.1,13.6 0,0 -4.8,-1 -10.3,-1.6 -4.6,-0.5 -8.2,-0.1 -8.2,-0.1 z"
       class="st6" />
    <path
       style="fill:#d4a11e"
       inkscape:connector-curvature="0"
       id="path6353"
       d="m 367.30326,564.74075 c 0,0 -4,5.9 -5.7,15.6 -1.1,6 0.1,13.6 0.1,13.6 0,0 -1.2,-0.3 -4,-0.9 -11.4,-2.6 9.6,-28.3 9.6,-28.3 z"
       class="st8" />
    <path
       style="fill:#d4a11e"
       inkscape:connector-curvature="0"
       id="path6355"
       d="m 382.30326,571.74075 -0.2,-23 0,0 0,0 0,0 0,0 c -0.5,0.2 -5,1.7 -5.5,1.9 -0.6,0.2 -0.9,0.6 -0.9,0.8 0,0.3 -0.2,0.5 -0.6,0.6 -0.4,0.1 -3.3,1.1 -5.3,1.8 -0.4,0.1 -0.2,0.5 0,0.5 2.3,-0.1 5.8,-0.4 6.1,-0.4 0.5,-0.1 0.7,-0.3 0.8,-0.6 0,0 0,0 0,-0.1 0.1,-0.4 0.4,-0.7 0.8,-0.7 0.3,0 2,-0.2 3.2,-0.3 l -0.2,19.6 h 1.8 z"
       class="st8" />
    <path
       style="fill:#d4a11e"
       inkscape:connector-curvature="0"
       id="path6357"
       d="m 412.10326,550.94075 h 1.8 l 0,-22.1 h 0 l 0,0 c 0,0 -5,1.8 -5.5,1.9 -0.6,0.2 -0.9,0.6 -0.9,0.7 0,0.3 -0.2,0.5 -0.6,0.6 -0.4,0.1 -3.3,1.1 -5.3,1.8 -0.4,0.1 -0.2,0.5 0,0.5 2.4,-0.1 5.8,-0.4 6.1,-0.4 0.5,-0.1 0.7,-0.3 0.8,-0.6 0,0 0,0 0,0 0.1,-0.4 0.4,-0.7 0.8,-0.7 0.3,0 1.9,-0.2 3.1,-0.3 l -0.3,18.6 z"
       class="st8" />
    <path
       style="fill:#ffc758"
       inkscape:connector-curvature="0"
       id="path6359"
       d="m 407.60326,534.04075 c 0,0 0.1,0 0.1,0 0.5,-0.1 0.7,-0.3 0.7,-0.6 0,0 0,0 0,0 0,-0.3 0.2,-0.5 0.5,-0.6 l -0.6,-1.9 c -0.6,0.2 -0.8,0.6 -0.8,0.7 0,0.3 -0.2,0.4 -0.5,0.5 l 0.6,1.9 z"
       class="st6" />
    <path
       style="fill:#ffc758"
       inkscape:connector-curvature="0"
       id="path6361"
       d="m 375.80326,553.84075 c 0,0 0.1,0 0.1,0 0.5,-0.1 0.7,-0.3 0.7,-0.6 0,0 0,0 0,0 0.1,-0.3 0.2,-0.5 0.5,-0.6 l -0.6,-1.9 c -0.6,0.2 -0.8,0.6 -0.8,0.7 0,0.3 -0.2,0.4 -0.5,0.5 l 0.6,1.9 z"
       class="st6" />
    <path
       style="fill:#ffc758"
       inkscape:connector-curvature="0"
       id="path6363"
       d="m 434.80326,548.84075 c 0,0 0.1,0 0.1,0 0.5,-0.1 0.7,-0.3 0.7,-0.6 0,0 0,0 0,0 0.1,-0.3 0.2,-0.5 0.5,-0.6 l -0.6,-1.9 c -0.6,0.2 -0.8,0.6 -0.8,0.7 0,0.3 -0.2,0.4 -0.5,0.5 l 0.6,1.9 z"
       class="st6" />
    <path
       style="fill:#d4a11e"
       inkscape:connector-curvature="0"
       id="path6365"
       d="m 400.50326,595.74075 c 0,0 -4.1,-6 -5.7,-12.4 -1.4,-5.5 0,-10.7 0,-10.7 0,0 -2.7,9.4 -9.2,14.5 -4.5,3.6 -15.6,6.9 -13,11.5 0.4,-0.6 1.5,-1.8 6,-2.9 0.5,-0.1 1.1,-0.2 1.7,-0.3 l 0,7.6 2.4,0 0,-7.9 c 8.3,-0.9 17.8,0.6 17.8,0.6 z"
       class="st8" />
    <g
       id="g6367"
       transform="translate(207.10326,405.04075)">
		<path
   style="fill:#ffc758"
   inkscape:connector-curvature="0"
   id="path6369"
   d="m 162.7,174.8 c 0,0 -3,-1.8 -2.6,-7.6 0.4,-6 3.4,-8.6 3.4,-8.8 l 19.9,-6.8 c 0,0 -1.5,3 -0.4,7.5 1.2,5.4 4.7,8.5 4.7,8.5 0,0 -10,0.1 -19,3.2 -4.4,1.5 -6,4 -6,4 z"
   class="st6" />

	</g>
    <g
       id="g6371"
       transform="translate(207.10326,405.04075)">
		<path
   style="fill:#d4a11e"
   inkscape:connector-curvature="0"
   id="path6373"
   d="m 174.5,162.3 c 5.7,-4.7 8.8,-10.7 8.8,-10.7 0,0 -0.8,3.8 -0.2,7.2 1.1,5.8 4.5,8.8 4.5,8.8 0,0 -8.1,0.1 -16.8,2.6 -5.8,1.6 -7.6,3.9 -8.1,4.7 -1.9,-4.4 6,-7.8 11.8,-12.6 z"
   class="st8" />

	</g>
    <g
       id="g6375"
       transform="translate(207.10326,405.04075)">
		<path
   style="fill:#ffc758"
   inkscape:connector-curvature="0"
   id="path6377"
   d="m 197.2,195.1 c 0,0 -5.5,-4.1 -6.8,-11.8 -1.1,-6.1 3,-10.5 3,-10.5 l 31.1,-10.7 c 0,0 -1.7,6.9 -0.1,13.5 1.8,7.4 8.6,16.6 8.6,16.6 0,0 -12.9,-3.7 -24.1,-2.3 -10.7,1.4 -11.7,5.2 -11.7,5.2 z"
   class="st6" />

	</g>
    <g
       id="g6379"
       transform="translate(207.10326,405.04075)">
		<path
   style="fill:#ffc758"
   inkscape:connector-curvature="0"
   id="path6381"
   d="m 190.9,145.8 c -0.2,-4.7 3.1,-8.5 3.2,-8.7 l 22.3,-7.8 c 0,0 -1.5,3.5 -1.1,6.5 0.7,5.7 3.9,8.7 3.9,8.7 0,0 -8.8,-0.5 -19.1,3.1 -5.7,2 -6.3,4.7 -6.3,4.7 0,0 -2.7,-0.7 -2.9,-6.5 z"
   class="st6" />

	</g>
    <g
       id="g6383"
       transform="translate(207.10326,405.04075)">
		<path
   style="fill:#d4a11e"
   inkscape:connector-curvature="0"
   id="path6385"
   d="m 208.5,139.8 c 4,-3.5 7.9,-10.4 7.9,-10.4 0,0 -1.5,3.5 -1.1,6.5 0.7,5.7 3.9,8.7 3.9,8.7 0,0 -9.5,-0.1 -18.6,3.1 -3.9,1.4 -6.4,3.5 -6.7,4.7 -1.3,-4.4 9.1,-7.8 14.6,-12.6 z"
   class="st8" />

	</g>
    <g
       id="g6387"
       transform="translate(207.10326,405.04075)">
		<path
   style="fill:#ffc758"
   inkscape:connector-curvature="0"
   id="path6389"
   d="m 194.1,171.5 c 0,0 -3.2,-3.7 -3.8,-9.5 -0.6,-6 2.9,-8.4 3.2,-8.6 l 25.8,-8.9 c 0,0 -0.7,1.9 -0.1,7.1 0.6,4.4 4.9,10.4 4.9,10.4 0,0 -13.8,0.4 -22.3,3.7 -5.4,2.1 -7.7,5.8 -7.7,5.8 z"
   class="st6" />

	</g>
    <g
       id="g6391"
       transform="translate(207.10326,405.04075)">
		<path
   style="fill:#d4a11e"
   inkscape:connector-curvature="0"
   id="path6393"
   d="m 211.2,156.6 c 5.6,-4.8 8.1,-12 8.1,-12 0,0 -0.7,4.1 0,7.3 1.3,5.6 5.3,10.3 5.3,10.3 0,0 -12,0.2 -20.7,3.1 -5.7,1.9 -9.2,5.3 -9.7,6.3 -1.3,-4.9 11.4,-10.2 17,-15 z"
   class="st8" />

	</g>
    <g
       id="g6395"
       transform="translate(207.10326,405.04075)">
		<path
   style="fill:#d4a11e"
   inkscape:connector-curvature="0"
   id="path6397"
   d="m 233.5,192.7 c 0,0 -7,-9.1 -9.1,-17.1 -1.3,-5.3 -0.3,-11.3 0.1,-13.4 -0.8,2.8 -3.6,11.9 -10.5,18.3 -6.6,6.1 -19.6,9 -16.8,14.7 0.5,-0.9 2,-3.1 7.3,-4.4 l -0.1,7.3 2.5,0 0,-7.8 c 11.5,-1.8 26.6,2.4 26.6,2.4 z"
   class="st8" />

	</g>
    <path
       style="fill:#000000;fill-rule:evenodd"
       inkscape:connector-curvature="0"
       id="path6399"
       d="m 452.60326,614.84075 c 1.6,-0.3 3.2,-0.7 5.6,-1.3 -0.1,-0.1 -0.3,-0.2 -0.4,-0.3 -2.6,-2.9 -2.2,-6 -0.6,-7.5 5.8,-5.4 5.7,-9.4 5.7,-9.4 0,0 -14.1,2.9 -32.7,3.9 -1.2,0.1 -5.5,2 -6.8,2 -2.6,0.1 -5.2,0.2 -7.9,0.2 -35.1,0.3 -44.9,-2.2 -56.4,-4.3 -11.7,-2.2 -16.8,-4.5 -16.8,-4.5 l -0.4,1.2 c 0,0 9.2,3.6 15.8,6.8 1.4,0.7 6.9,8.9 8.7,11.7 h -41.7 c -2.3,-47.8 6.9,-86.9 6.9,-86.9 0,0 31.9,-6.8 79.9,-6.8 l 0,-5.1 c -50.9,0 -84.8,7.2 -84.8,7.2 0,0 -14.8,52.2 -7,114.4 3.3,25.9 24.7,74.4 91.6,96.9 l 2.9,-4.1 -2.9,-4.1 c -63,-21.1 -81.4,-63.8 -84.6,-88.1 -0.7,-5.4 -1.2,-10.8 -1.6,-16 h 86.5 v -7.3 h -44.4 c 1,-3.2 4.1,-4 8,-3.1 4,1 8,2 11.8,1.8 9.5,-0.5 8.1,-3 9,-3 9.8,0.6 13.5,3 22,2.8 7.8,-0.1 10.5,-2.2 11.2,-2.2 9.5,-0.1 13.1,4.3 22.6,5.1 0.3,0 0.6,0 0.8,0 z"
       class="st9" />
    <path
       style="fill:#000000;fill-rule:evenodd"
       inkscape:connector-curvature="0"
       id="path6401"
       d="m 496.20326,521.74075 c 0,0 -33.8,-7.2 -84.7,-7.2 l 0,5.1 c 48,0 79.8,6.8 79.8,6.8 0,0 9.3,39.1 6.9,86.9 h -41.8 c -3.3,-3.2 -1.4,-7.4 -0.3,-8.4 4.9,-4.4 4.9,-7.4 4.9,-7.4 0,0 -11.3,2.8 -29.9,3.6 -1.2,0 -6.4,2.4 -7.7,2.4 -2.6,0.1 -6.2,0.2 -8.9,0.2 -24.2,0 -36.1,-0.5 -57.1,-5 0.4,0.5 0.6,0.7 1,1.3 0.1,0.2 9.2,2.5 9.3,2.7 1.4,1.9 3.2,3.2 5.4,4.4 3.4,1.8 8.4,3.3 12.5,3.6 9.5,0.6 7.7,-3 8.6,-3 9.7,-0.2 16,3.3 24.5,3.2 7.8,-0.1 8,-2.6 8.8,-2.6 7.7,-0.4 15.5,2.9 22.2,5.1 h -38.2 v 7.3 h 86.2 c -0.4,5.3 -0.9,10.6 -1.6,16 -3.2,24.4 -21.6,67 -84.6,88.1 v 8.2 c 66.9,-22.5 88.4,-70.9 91.6,-96.9 7.9,-62.2 -6.9,-114.4 -6.9,-114.4 z"
       class="st10" />
    <path
       sodipodi:type="arc"
       style="fill:#000000;fill-opacity:1;stroke:#000000;stroke-width:1;stroke-miterlimit:4;stroke-opacity:1;stroke-dasharray:none;stroke-dashoffset:0"
       id="path7577"
       sodipodi:cx="317.78009"
       sodipodi:cy="273.0018"
       sodipodi:rx="1.8404251"
       sodipodi:ry="1.8404251"
       d="m 319.62052,273.0018 a 1.8404251,1.8404251 0 1 1 -3.68085,0 1.8404251,1.8404251 0 1 1 3.68085,0 z"
       transform="matrix(1.4587121,0,0,1.4587121,-51.85246,271.98971)" />
  </g>
  <style
     id="style6291"
     type="text/css">
	.st0{fill:#00285E;}
	.st1{fill:#FFFFFF;}
	.st2{fill:#6CADDF;}
	.st3{fill-rule:evenodd;clip-rule:evenodd;fill:#00285E;}
	.st4{fill-rule:evenodd;clip-rule:evenodd;fill:#97C1E7;}
	.st5{fill-rule:evenodd;clip-rule:evenodd;fill:#FFFFFF;}
	.st6{fill:#FFC758;}
	.st7{fill:#EE3124;}
	.st8{fill:#D4A11E;}
	.st9{fill-rule:evenodd;clip-rule:evenodd;fill:#FFC758;}
	.st10{fill-rule:evenodd;clip-rule:evenodd;fill:#D4A11E;}
</style>
</svg>
